<?xml version="1.0" standalone="no"?>
<!DOCTYPE svg PUBLIC "-//W3C//DTD SVG 1.1//EN" "http://www.w3.org/Graphics/SVG/1.1/DTD/svg11.dtd" >
<svg xmlns="http://www.w3.org/2000/svg" xmlns:xlink="http://www.w3.org/1999/xlink" version="1.1">
<metadata>
Created by FontForge 20170731 at Wed Nov  7 11:45:16 2018
 By Aleksey,,,
Copyright (c) 2018 by Dhan Studio. All rights reserved.
</metadata>
<defs>
<font id="Boisterous" horiz-adv-x="959" >
  <font-face 
    font-family="Boisterous"
    font-weight="400"
    font-stretch="normal"
    units-per-em="1000"
    panose-1="2 0 5 7 0 0 0 2 0 3"
    ascent="800"
    descent="-200"
    x-height="224.5"
    cap-height="1059.5"
    bbox="-1036.95 -887.628 2105.4 1486.92"
    underline-thickness="50"
    underline-position="-150"
    unicode-range="U+000D-FB06"
  />
<missing-glyph horiz-adv-x="206" 
 />
    <glyph glyph-name="a_b" unicode="ab" horiz-adv-x="733" 
d="M765 166q3 0 5 -2t-1.5 -6t-15 -11t-35.5 -18q-19 -6 -47 -11t-46 -12q-8 -4 -6.5 -7.5t-5.5 -9.5q-18 -20 -34.5 -27.5t-29 -8.5t-20 2t-7.5 5q-2 -2 -4.5 -11t-4.5 -20t-3.5 -20.5t-1.5 -11.5q0 -6 -1 -13.5t-1 -9.5q0 -7 2.5 -23t3 -31.5t-3.5 -25.5t-17 -6
q-7 2 -10 5t-4 7t-1.5 9.5t-1.5 12.5q-3 17 -4.5 29t-2 22.5t-1.5 22.5t-2 30q-2 19 -2.5 55t0 77t2 80t3.5 64q0 5 1.5 15.5t2.5 19.5t1.5 13t-0.5 -4q1 4 2 11t2 14.5t1.5 14t-0.5 10.5l-2 2q-2 -6 -9.5 -36t-20 -72t-29.5 -91.5t-38 -95t-45 -82.5t-50 -53
q-20 -12 -40 -10t-35 10q-1 0 -5.5 3.5t-10.5 8.5q-7 5 -16 11q-8 11 -13.5 29.5t-7.5 34.5q-3 13 -2 37t3 47t4 40.5t1 18.5q-7 -7 -12 -13q-5 -5 -8.5 -9.5t-3.5 -5.5q-2 -5 -1 -10.5t2.5 -11t2 -10.5t-3.5 -9q-2 -2 -5 1t-6.5 7t-5.5 8l-2 4q-2 -1 -5.5 -5.5t-7 -10
t-6.5 -11t-4 -6.5l-6 -10q-6 -9 -15.5 -22.5t-21 -25t-25 -17t-26.5 1.5q-16 8 -17 33t5 48q3 13 13 29.5t24.5 29.5t32.5 20t38 1q5 -2 13 -9.5t7 -7.5q7 1 10 3.5t5 6.5t4.5 8.5t10.5 10.5q5 3 6 5.5t9 5.5q21 9 29 1.5t8.5 -23t-2.5 -34t-4 -30.5q-2 -29 -1.5 -56.5
t5.5 -47.5q10 -34 22.5 -48t26.5 -12q16 1 32 15t31.5 35.5t29.5 47t25 49t18 42.5t10 27q12 33 24.5 74.5t23.5 85.5t21 86.5t18 78.5l11 53l9 41q2 6 1.5 12.5t0.5 10.5q2 10 5.5 29t9 36t12.5 28t16 5q4 -2 5.5 -2.5t2.5 -0.5t2 -2t3 -7t2.5 -11.5t1.5 -11.5
q0 -5 -2.5 -15t-4.5 -19q-2 -19 -5.5 -38.5t-5.5 -36.5q-7 -47 -13 -90t-11 -84t-8.5 -83t-5.5 -88q0 -8 -1.5 -28t-2.5 -41t-1.5 -38.5t1.5 -18.5q4 -3 4.5 1t0.5 5q8 17 13.5 36t16.5 33q11 16 27 27t32 12.5t30 -7.5t20 -32q2 -7 1 -16t-3.5 -18.5t-4 -17.5t-1.5 -12
q21 2 34.5 4.5t25 5.5t21.5 8t24 11q8 3 13 6t10 2zM610 158q2 17 -0.5 31t-7.5 21q-6 9 -19 -3t-24.5 -31.5t-17.5 -39t0 -24.5q0 1 9 2.5t19.5 2t19.5 1t10 0.5q1 2 5.5 17t5.5 23zM70 118q3 4 9.5 12.5t12.5 18t9 18.5t-1 14q-5 6 -10 7t-9.5 -0.5t-8 -3.5t-6.5 -3
q-14 -5 -20.5 -22t-11.5 -30q-3 -9 -7 -22.5t-5.5 -24t1 -13.5t13.5 9q9 10 18.5 21t15.5 19zM529 89q-4 -15 4.5 -16.5t20 4t20 13.5t5.5 11q-5 4 -11.5 3.5t-13 -3t-11 -4.5l-4.5 -2q-4 -3 -6.5 -2t-3.5 -4zM476 399v-1q0 -1 0.5 -1t0.5 -1q4 -2 4 3q-1 3 -4 4t-2 -4v-1z
" />
    <glyph glyph-name="a_h" unicode="ah" horiz-adv-x="761" 
d="M792 165q5 -2 2 -9q-5 -8 -15 -17.5t-11 -11.5l-15 -14q-5 -3 -10.5 -8t-6.5 -7q-5 -4 -7.5 -6.5t-9.5 -6.5q-26 -13 -43.5 -6t-28 20.5t-15 26.5l-4.5 13q-6 1 -14.5 -11t-17.5 -30t-17 -37.5t-14 -31.5q-5 -11 -11 -30t-15 -36.5t-21.5 -28t-30.5 -2.5
q-11 4 -18.5 19.5t-12.5 37t-8 46.5t-4 49q-5 67 -2.5 123t9 107.5t14 101t13.5 102.5q-11 -22 -27.5 -66.5t-37 -98.5t-44 -109t-50.5 -99t-56 -68.5t-59 -16.5q-13 -2 -22 4t-15 14.5t-9.5 17.5t-5.5 13q-1 1 -1.5 5.5t-1.5 10t-1.5 10t-1.5 4.5q-2 1 -8 -4t-12.5 -11.5
l-13 -13t-8.5 -7.5q-14 -19 -31 -36t-34 -25.5t-32 -4t-24 28.5q-9 14 -4 31t10 30q4 12 12 25t18.5 22.5t24 15t29.5 4.5q16 -2 23.5 -7.5t10.5 -12t3 -11.5t1 -5q5 -2 12 2t14.5 9t15.5 8t16 -1q12 -8 14 -20t7 -23q11 -46 29 -51.5t39.5 17t45.5 66.5t47.5 97t45 109
t38 103t26.5 78t11 35q9 23 17.5 51t16.5 51q5 14 7 26t6 23q1 4 4.5 14t8 21.5t10.5 20.5t13 11q8 2 20 1t18 -7q4 -5 3 -17t-5 -27t-8.5 -29.5t-6.5 -24.5q-13 -50 -22.5 -95.5t-18.5 -93.5q-11 -50 -19.5 -98.5t-15 -98.5t-9.5 -102t-2 -110q0 -14 1 -34.5t2.5 -39
t3.5 -33t5 -16.5l2.5 4t5 9t4.5 8.5l2 3.5q7 15 11 24t7.5 16.5t8 16t12.5 22.5q9 18 19 39t22 34t27 13t34 -25q14 -18 20.5 -31.5t13.5 -16.5q4 -2 14 5t20.5 16t19 17t11.5 10q8 6 16.5 13.5t7.5 7.5q3 -2 7 -1t6 0zM85 133q8 14 6 21t-13 16q-3 9 -6.5 4.5t-5.5 -4.5
q-5 0 -15 -14.5t-19 -32.5t-14.5 -34t-2.5 -19q3 -2 9.5 0t14.5 7t16 12.5t13 15.5zM482 530q2 -1 5 1.5t0 4.5q-2 2 -5 -1t0 -5z" />
    <glyph glyph-name="a_k" unicode="ak" horiz-adv-x="687" 
d="M706 166q8 -1 8 -3t-8 -15q-1 -2 -7 -7.5t-12 -10.5t-10.5 -8.5t-2.5 -1.5q-9 -9 -26.5 -18t-39 -16t-44 -12.5t-40.5 -6.5q-15 -6 -34.5 -5.5t-37.5 3t-30.5 5.5t-13.5 3q-7 -5 -9 -28t-2 -52.5t1 -58t1 -44.5v-19t-1 -30v-24.5t-1 -18.5q-2 -12 -3.5 -25.5t-6 -23
t-12 -12.5t-20.5 6q-6 4 -7.5 29.5t-1 58t2 63t1.5 44.5q1 61 1.5 126.5t2 131t5.5 129t13 121.5q-5 -22 -10.5 -49.5t-12.5 -58t-15.5 -62.5t-17.5 -62q-6 -20 -13.5 -40.5t-15.5 -39.5t-16 -35.5t-15 -28.5q-13 -21 -23.5 -30.5t-21 -12t-21 2t-23.5 12.5q-10 6 -14 16
t-9 21q-5 13 -5.5 22.5t-1.5 13.5t-5 3t-16 -8q-17 -11 -29.5 -20t-34.5 -19q-7 -4 -17 -12.5t-22 -10.5q-11 -1 -27 2.5t-24 16.5q-4 7 -1.5 17t7.5 19t9 14.5t3 4.5q19 30 32 43q6 5 23 16.5t37 18.5t37.5 4t23.5 -27q4 -16 2.5 -21t-1 -6t5.5 -0.5t21 -3.5q2 -1 10 -5.5
t9 -6.5t0.5 -13t0 -24.5t3.5 -25.5t12 -16q18 -5 35 18q24 35 43.5 93.5t37 127.5t34 140t34 131t37 100.5t43.5 48.5q12 5 22.5 5t8.5 -11q-1 -8 -7 -23t-13 -31.5t-13.5 -32t-8.5 -23.5q-10 -38 -15 -69t-11 -71q-3 -19 -4.5 -36t-2.5 -35t-2 -39t-3 -49
q-1 -13 -3.5 -37.5t-5 -50t-2 -46.5t5.5 -25q3 -2 9 1.5t13.5 9t13.5 11.5l9 9q9 8 20.5 23t23.5 29t23.5 22.5t20.5 4.5q9 -5 4 -17.5t-16 -26t-23 -25.5l-16 -16q-17 -16 -34 -28t-39 -27q-8 -6 -4 -11t15 -9.5t27 -7.5t33 -4q18 -1 41.5 3.5t47.5 11t44.5 14.5t32.5 15
q12 6 21 14t15.5 14.5t10.5 11t7 4.5zM99 152q2 10 4 17.5t-2 13.5q-1 2 -4.5 1t-6.5 -2.5t-5 -3t-1 -1.5q-1 0 -7 -3.5t-13 -8t-13 -8.5t-7 -5q-3 -2 -11 -13t-16.5 -24.5t-13 -25.5t0.5 -16q1 -1 15.5 5.5t31 15.5t30.5 17.5t15 10.5q2 2 2 13t1 17zM380 500
q-2 -3 -2.5 -14t-2.5 -22q3 16 3.5 25t1.5 11zM380 501v-1v1zM381 501h-1h1z" />
    <glyph glyph-name="a_l" unicode="al" horiz-adv-x="511" 
d="M422 365q-3 -47 -6.5 -97.5t-6.5 -102t-5.5 -101.5t-3.5 -96v-36t1 -41t3.5 -42t7.5 -40q5 -16 11.5 -21.5t-2.5 -13.5q-14 -12 -23 -11t-15 7.5t-8.5 14.5t-3.5 11q-2 9 -3.5 26.5t-3 37t-2 37.5t-0.5 28q0 83 3 165.5t8 166.5q0 10 1.5 22.5t1.5 20.5l-2 42l-5.5 -14
t-12.5 -32t-13 -34t-7 -20q-5 -12 -10 -26.5t-10 -28.5t-9.5 -25.5t-7.5 -18.5q-9 -21 -24 -49t-32.5 -53t-36 -42.5t-34.5 -18.5q-24 -1 -32.5 14t-7.5 37t7.5 47t11.5 43q4 13 6.5 24.5t1.5 17.5t-6 5t-16 -13q-5 -5 -9.5 -12t-8.5 -11q-4 -3 -11 -11t-14.5 -17t-15 -17
t-12.5 -12q-7 -6 -19.5 -15t-27 -15.5t-28 -6.5t-22.5 12q-4 5 -3 17t5.5 27t12 30t16.5 26q9 12 24.5 24.5t32.5 21.5t34.5 11t30.5 -7q4 -3 4 -4.5t2 -6.5q5 -7 9 -5q10 5 12 7t10 5q21 8 27.5 -0.5t5 -26.5t-8 -43t-12.5 -49t-7.5 -44t7.5 -29q3 -3 9.5 1t14 11.5t14 16
t9.5 12.5q5 7 13.5 15.5t13.5 18.5q46 88 76.5 178.5t52.5 188.5q5 18 8 31.5t5.5 26.5t4.5 28t5 35q5 35 12.5 72.5t22.5 75.5q4 9 11 15q15 9 19.5 5t3.5 -16t-5 -30t-7 -36q-11 -71 -19 -141.5t-13 -146.5zM111 162q4 11 1.5 15t-7.5 5t-11 -0.5t-8 -2.5
q-10 -2 -18.5 -8.5t-15.5 -15t-12.5 -16.5t-8.5 -13t-11.5 -16t-15 -22.5t-9 -21t5.5 -11.5q1 -1 13.5 5.5t26.5 18.5q21 17 41.5 41t28.5 42zM373 348q2 -1 5 2.5t1 5.5q-2 1 -5 -2.5t-1 -5.5z" />
    <glyph glyph-name="a_t" unicode="at" horiz-adv-x="578" 
d="M671 494q17 -10 28 -21.5t9 -39.5q-1 -14 -7 -23.5t-14 -15t-16.5 -6.5t-13.5 2t-9.5 3t-3.5 9q4 12 11 15.5t13 3.5t10.5 -1.5t4.5 0.5q10 27 4 40t-21 18.5t-36.5 6.5t-43.5 3q-12 1 -26 0t-26 -3.5t-21 -5t-11 -4.5q-5 -4 -7.5 -26t-4.5 -51t-3.5 -59.5t-2.5 -52.5
q-2 -45 -4 -93.5t-4 -98l-4 -99t-3 -94.5q-2 -54 -4.5 -101.5t-0.5 -93.5q2 -35 4 -59.5t7 -44.5q3 -14 8 -24t9 -17t5 -12t-3 -8q-14 -11 -26 -4.5t-21 18.5t-13.5 23t-4.5 10q-8 26 -14.5 65t-6.5 71q-2 86 -0.5 177t5.5 183t10.5 183.5t14.5 177.5q1 8 2.5 13.5t-0.5 4.5
q-3 2 -11.5 -1t-12.5 -2q-1 0 -3 -8.5t-4.5 -19.5t-5 -21.5t-3.5 -14.5q-7 -26 -9.5 -50t-6.5 -36q-2 -8 -7 -17t-7 -19q-5 -20 -10.5 -40t-12.5 -40q-14 -42 -29 -87.5t-44 -95.5q-5 -8 -9 -14.5t-12 -16.5q-5 -7 -9 -16t-12 -14q-15 -8 -30.5 -11t-36.5 5q-2 0 -9.5 2
t-9.5 4q-4 3 -8 13t-8 22.5t-7 25.5t-4 24q-2 14 -2 38t-1 48v22.5t-13 -10.5q-6 -7 -15 -21t-21 -27.5t-27 -23t-33 -7.5q-21 2 -25 13t1 42q2 10 7.5 23t13 24t17.5 20t21 12t27 -1t35 -5q12 0 20 1.5t14 2.5t11 0.5t10 -4.5q10 -9 12.5 -21t2 -25t-3 -26.5t-1.5 -25.5
q0 -1 0.5 -15t5.5 -46q3 -15 5.5 -30.5t8 -24.5t14 -7.5t22.5 19.5l4 5.5t9.5 11.5t10 11t4.5 6q20 34 33.5 76t26.5 78q4 11 9.5 27.5t12 35.5t13 39.5t12.5 39.5q0 2 5 22t10 44t8.5 44t1.5 23q-5 6 -26 1.5t-46.5 -13t-49 -18.5t-33.5 -14q-8 -3 -15 -3t-15 -3
q-9 -4 -20.5 -10t-24 -12t-25 -10.5t-24.5 -4.5q-6 0 -14.5 1t-10.5 5q-2 3 12 9.5t32 13.5t34.5 12.5t20.5 7.5q14 6 24.5 13t21.5 11q24 10 32 13.5t13.5 5t15.5 4t39 11.5q7 2 19 5t23 5t19 4l8 2q5 13 10 39t10 50q1 6 4.5 24.5t7 39.5t7 39.5t5.5 24.5q3 10 3.5 18.5
t2 15t5 11.5t11.5 8q31 10 41.5 -6t10.5 -44t-5.5 -61.5t-4.5 -58.5v-18t-1 -24.5t-1.5 -22l-0.5 -9.5q16 5 32.5 5.5t26.5 1.5q35 2 61.5 -1.5t50.5 -16.5zM32 109q0 -2 8.5 6t17.5 19t15 21.5t2 14.5t-12 -3t-15.5 -18.5t-12.5 -23t-3 -16.5zM444 561q-2 1 -6 -10.5
t-7.5 -25t-6 -25.5t-1.5 -12q0 -1 6 1.5t10 4.5q5 6 6 20.5t-1 46.5z" />
    <glyph glyph-name="a_n" unicode="an" horiz-adv-x="686" 
d="M705 166q11 0 11 -3.5t-8 -17.5q-2 -3 -9.5 -10.5t-16.5 -15t-17.5 -14t-11.5 -8.5q-48 -34 -76.5 -41t-43 4t-19 34t-4.5 47.5t0.5 45t-3.5 26.5q-3 3 -7 0.5t-8.5 -8t-8.5 -12t-7 -11.5l-36 -61q-5 -8 -8.5 -15t-8.5 -16t-11 -20.5t-15 -27.5q-5 -9 -9 -19.5t-8.5 -19
t-10.5 -13.5t-15 -3q-14 3 -19.5 13t-6.5 26t0.5 35.5t1.5 41.5q0 10 1.5 31.5t2.5 44.5t0.5 41.5t-4.5 22.5q-2 2 -8 -8.5t-12.5 -24.5t-12.5 -27.5t-8 -17.5q-11 -26 -19.5 -47t-14.5 -34q-11 -25 -26 -47.5t-31 -41.5q-11 -13 -20.5 -23.5t-25.5 -9.5q-21 1 -33.5 12.5
t-18.5 29t-7.5 37t-1.5 37t0.5 29.5t-0.5 14q-2 2 -7.5 -5t-10.5 -12q-2 -3 -7.5 -9t-16.5 -17l-12.5 -10t-16 -10.5t-17.5 -6.5t-15 3q-11 8 -12 23t1 23q3 12 9.5 26.5t16 27t23 22t29.5 12.5q11 2 19 -0.5t17 -11.5q0 3 1 5t1 3t1 2q11 6 21.5 6t10.5 -10q2 -3 3 -17.5
t1.5 -34.5t1.5 -42.5t3 -42.5t6 -33.5t11 -15.5q9 -3 22.5 11t27.5 33.5t25.5 39.5t15.5 29q15 34 26.5 61t24.5 59q7 17 16 33t27 21q16 4 23.5 -0.5t10 -16.5t2 -30t-0.5 -42q0 -14 -1 -39.5t-1 -47.5t3 -33t12 4q18 24 30.5 48.5t30.5 50.5q3 5 9.5 14.5t15 19t18 17.5
t19.5 10q20 4 27.5 -2.5t9 -19.5t-0.5 -30t-1 -34q1 -12 0.5 -24t-0.5 -22t2 -17.5t8 -11.5q12 -8 36.5 4.5t49.5 31t44.5 35.5t21.5 18zM88 149q1 1 0 7.5t-3 8.5q-8 8 -23 -2.5t-29 -28t-24 -34.5t-9 -21q0 -14 12 -9t27.5 19.5t29.5 32t19 27.5z" />
    <glyph glyph-name="a_m" unicode="am" horiz-adv-x="847" 
d="M882 162q2 -2 -3 -8t-12.5 -12.5t-14.5 -12t-8 -6.5q-3 -4 -8 -8.5t-9 -7.5q-7 -5 -20 -11.5t-26 -14.5q-26 -14 -55 -20.5t-55 -2.5q-23 3 -37 20.5t-31 42.5q-6 10 -11.5 9t-11 -7t-12 -15.5t-13.5 -17.5q-1 -1 -5 -7t-10.5 -12.5t-15 -10.5t-18.5 0q-14 5 -18.5 25.5
t-6.5 41.5q-2 13 -0.5 26.5t3 25.5t1.5 21t-4 13q-2 2 -6 -4.5t-8 -14.5l-10 -24q-2 -2 -6.5 -3t-5.5 -3q-10 -18 -15 -35.5t-10 -25.5q-4 -9 -11.5 -25.5t-17.5 -32.5t-21 -25t-23 -3q-8 4 -11 6t-4.5 3.5t-1.5 5t-1 10.5q-4 22 -6 51.5t-1 58.5q0 12 2.5 30t3.5 31
t-2.5 14.5t-15.5 -20.5q-7 -14 -17 -36t-22 -46.5t-26 -48t-28.5 -40t-30 -23t-29.5 3.5q-9 1 -15.5 9.5t-10 21.5t-5 29t0.5 32q0 2 1 6l2 8t3 10q-3 5 -11.5 -1t-18 -15.5t-18 -19t-12.5 -12.5q-5 -3 -7.5 -6t-5.5 -7q-3 -3 -13 -7.5t-22.5 -8t-25 -3.5t-19.5 7
q-9 9 -7.5 23.5t7.5 30t14.5 29t14.5 21.5q7 10 22 23t32.5 21t35 8.5t29.5 -13.5q4 -4 12 -7.5t11 -7.5q9 -10 13 -13.5t5.5 -7t1.5 -10.5t-1 -24q-1 -12 -3.5 -34.5t-1.5 -40.5t9 -23.5t28 16.5q16 13 31.5 39.5t30 59t29 66t28.5 60.5q5 8 10 10t9 1t7 -3.5t6 -3.5
q9 -2 12.5 -14t5 -27t1 -29.5t-0.5 -21.5q0 -24 -1 -47t-0.5 -37.5t5 -15t15.5 20.5q1 3 6 14t10.5 23.5t11 24t8.5 17.5q3 4 10.5 19t19 29t26 21.5t30.5 -2.5q7 -5 9.5 -13.5t1.5 -20t-3 -25t-2 -26.5q0 -3 -1.5 -12.5t-2 -21.5t0 -23t3.5 -16q3 -4 8 -0.5t11 9.5t11 12.5
t7 8.5q13 13 20.5 22t21.5 8q23 -1 33 -12t16 -24.5t11.5 -26t19.5 -16.5q10 -3 28.5 1t37.5 11t34.5 14.5t21.5 10.5q6 4 9.5 5.5t6 3.5t6.5 5l12 9q4 3 10.5 9t13.5 11t13.5 7t11.5 -3zM109 152q3 4 7.5 6t2.5 8q-8 30 -26 25.5t-49 -47.5q-5 -5 -8.5 -11.5t-6.5 -11.5
q-3 -6 -8 -16.5t-7 -19t1.5 -12.5t16.5 3q10 5 15 11.5t22 21.5l14 12q6 5 13 12q4 4 7 9.5t6 9.5zM365 72q2 -2 5 1t1 5q-1 2 -4.5 -1t-1.5 -5z" />
    <glyph glyph-name="a_r" unicode="ar" horiz-adv-x="645" 
d="M649 154q9 14 17.5 10.5t4.5 -16.5q-3 -12 -14.5 -30t-25 -35.5t-26.5 -31.5t-17 -20q-9 -11 -20.5 -24.5t-29.5 -30.5q-13 -12 -28.5 -21.5t-32 -12.5t-32.5 2.5t-28 25.5q-8 12 -9.5 28.5t-1 32.5t3 29.5t4.5 19.5q8 47 17.5 88t17.5 92q7 24 7 40.5t-3.5 26.5t-8.5 16
t-8 9q1 -3 -2 -2t-7.5 3t-9 5t-5.5 4q-2 -11 -14 -44.5t-30.5 -76.5t-41 -91t-45 -88.5t-42.5 -68t-34 -29.5q-24 -5 -36 4t-17 24t-5 32.5t-1 30.5q0 10 0.5 22.5t1 23.5t1 19t-0.5 9q-2 2 -6.5 -1t-9.5 -7.5t-10 -9.5t-8 -7l-17 -13q-5 -5 -21 -14t-34.5 -16.5t-37 -9
t-28.5 9.5q-13 13 -10 32t16 38t32.5 35t40.5 23.5t40.5 4.5t31.5 -23q3 -5 1.5 -10.5t-1.5 -10.5q-1 -2 -4.5 -2t-7.5 2q-9 4 -10.5 13t-9.5 11q-26 3 -42.5 -10.5t-25.5 -31.5t-11.5 -34l-2.5 -16q11 -12 28 -5.5t34.5 20.5t33 28.5t24.5 19.5q31 15 43.5 5.5t15 -30
t0 -44.5t-2.5 -39q0 -7 1 -16t3 -15.5t6.5 -9t11.5 3.5q14 10 30.5 33t34 53.5t34 65.5t31 68.5t24.5 63t15 48.5q3 13 2.5 19.5t1.5 16.5q1 7 -1 15t-4.5 15t-3.5 12.5t2 6.5q2 1 6 4.5t7 2.5q11 -3 28.5 -17t34.5 -31t30 -32t15 -18q7 -13 8.5 -27t0 -28.5t-5 -28
t-6.5 -25.5q-6 -25 -15.5 -54.5t-14.5 -52.5q-2 -6 -6 -27t-6.5 -45t-1.5 -45.5t11 -28.5q6 -5 16.5 -0.5t21.5 11.5t19.5 14.5t10.5 9.5l26.5 26.5t16.5 19.5q1 1 4 5t6.5 9t6.5 9t4 5q6 6 13 15.5t13 19.5t11.5 19.5t9.5 15.5q1 2 3.5 5.5t4.5 5.5z" />
    <glyph glyph-name="c_h" unicode="ch" horiz-adv-x="784" 
d="M810 165q10 -4 7.5 -9t-5.5 -12q2 6 -5 -4.5t-16 -24.5q-3 -5 -4 -5t-1 0.5t-0.5 1t-2.5 -2.5q-5 -6 -9 -14.5t-12 -15.5q-7 -7 -9 -12t-7 -10q-4 -3 -8 -8t-7 -8q-43 -36 -68 -29t-30 69q-2 6 -2 16t-0.5 21.5t-2.5 21.5t-7 15q1 16 -2.5 18.5t-8 -1t-7.5 -8t-1 -2.5
q-5 -6 -5 -7v-1.5t-1 -3.5t-7 -12q-11 -16 -23.5 -37t-23.5 -42.5t-20.5 -41t-15.5 -32.5q-9 -21 -19.5 -47.5t-23.5 -63.5l-6.5 -26t-11 -36t-16.5 -30.5t-23 -8.5q-7 2 -10.5 16t-5 31t-1.5 33.5v23.5q-1 73 4 144.5t8 131.5q5 71 8.5 143.5t10.5 132.5q5 50 15 99t12 110
q-10 -27 -23.5 -76.5t-31 -111.5t-38 -131.5t-45 -137t-52.5 -128t-60 -103.5t-67 -64t-74 -10q-12 4 -22 12t-15 15q-1 2 -6 2.5t-7 2.5q-12 14 -16 23t-9 24q-18 53 -7.5 112.5t38.5 105.5q9 15 22 28.5t28 22.5t31 11.5t32 -5.5q11 -6 20.5 -11.5t7.5 -16.5q0 -6 -4 -14
t-11 -14.5t-17 -8.5t-22 5q-3 7 -1 10.5t3 6t-1 6.5t-12 13q-3 3 -7.5 -2t-9.5 -12.5t-9.5 -16t-6.5 -12.5q-8 -15 -12 -30t-7 -26q-2 -6 -3 -4.5t-1.5 4t-1.5 2.5t-1 -9q-1 -21 -4 -43.5t-3.5 -44.5t2.5 -41.5t13 -34.5q22 -34 45.5 -36.5t46.5 15t44.5 47.5t39.5 62.5
t31.5 60t20.5 38.5l16 47q10 31 20.5 66t20.5 71t19.5 71.5t19.5 67.5l41 137q4 11 6.5 27.5t4.5 22.5q8 22 12 43.5t11 40.5q1 6 7 27.5t16 43.5t22.5 37t27.5 7q8 -4 10.5 -16.5t2 -29t-3 -34t-3.5 -31.5q-4 -32 -7.5 -56.5t-6.5 -47t-5.5 -44.5t-4.5 -48q-2 -34 -5 -73
t-6 -72q-5 -60 -12.5 -115t-12.5 -106q-2 -29 -2 -59t-2 -60q-3 -32 -8 -66t0 -66q-4 0 -3.5 -4.5t0.5 -7.5q5 0 4 4.5t-1 7.5q16 29 28.5 64t28.5 68q8 15 18 30.5t18 29.5q2 4 11.5 19t20 31.5t20.5 30t13 15.5q24 13 37 11t20 -14.5t9 -31.5t5 -38q1 -3 1 -15.5t1 -26.5
t3.5 -26.5t7.5 -16.5t17.5 8t25.5 27t21.5 27t6.5 9q9 12 16 23t13 19t12 12t13 2zM449 657q2 -2 5 1.5t0 5.5q-2 1 -5 -2t0 -5zM457 676q-2 2 -4.5 -1t-0.5 -5t5 1t0 5zM810 140q0 2 2 4z" />
    <glyph glyph-name="c_k" unicode="ck" horiz-adv-x="702" 
d="M734 165q5 -3 3 -2.5t-2 -9.5q0 -2 -3.5 -6.5t-5.5 -6.5q-11 -19 -18.5 -25.5t-9.5 -8.5q-15 -17 -30.5 -29.5t-27.5 -26.5q-21 -24 -48 -42q-15 -10 -26.5 -17.5t-23.5 -12t-26.5 -5t-33.5 4.5q-5 1 -11.5 5t-12.5 8l-10.5 7l-4.5 3q-2 0 -4 -9.5t-4 -21.5t-4 -24.5
t-3 -18.5q-3 -23 -2.5 -43t-1.5 -37q-1 -13 -1.5 -37t-3.5 -46t-11 -35t-23 -4q-5 3 -7 3.5t-3.5 1.5t-2.5 3.5t-2 9.5q-6 22 -2.5 45.5t3.5 46.5q1 34 -1.5 62.5t-1.5 59.5q1 69 6.5 124t7.5 102q2 29 2 58t2 58q3 45 6.5 87.5t6.5 77.5q4 47 6.5 95t3.5 89
q-17 -55 -32 -100.5t-29 -88t-29 -86.5t-32 -96q-4 -14 -9 -31t-10.5 -34.5t-11 -34t-10.5 -27.5l-27 -65q-4 -8 -8 -20t-11 -25q-7 -15 -15.5 -32t-19 -32.5t-23 -27t-26.5 -15.5q-30 -8 -56 -1t-44.5 24.5t-27.5 43.5t-5 56q-2 33 7.5 67t32.5 70q2 3 5 6.5t5 6.5t5.5 8.5
t5.5 7.5t5 4.5t5 4.5l9 9q8 10 25.5 16t28.5 7q11 0 21.5 -2.5t13.5 -5.5q10 -11 17 -25t3 -25q-5 -16 -11 -20.5t-26 7.5q-1 1 -3 1q-1 6 -2 3.5t0 2.5q2 11 2.5 21.5t-4.5 17.5q-6 8 -8.5 3t-8.5 -9q-11 -6 -17.5 -10t-10.5 -7.5t-7.5 -8t-7.5 -11.5l-18 -33
q-2 -6 -1.5 -8t-1.5 -7q-6 -15 -9.5 -45t-1.5 -61.5t12.5 -57.5t33.5 -32q16 -5 30 3.5t28 22.5q17 19 23.5 32.5t14.5 33.5q9 20 20 45.5t17 41.5q38 117 81 250.5t84 261.5q9 34 15.5 63t10.5 59q2 3 2.5 15t4.5 15q8 7 21 8.5t21 -2.5q11 -6 14.5 -25t2.5 -43t-3.5 -49
t-3.5 -42q-3 -60 -4.5 -110t-3.5 -97t-4.5 -95.5t-5.5 -106.5q-1 -14 -2.5 -32.5t-2 -32t0.5 -18t5 9.5q12 25 23 55t22 55.5t21.5 41t19.5 10.5q5 -3 8 -2t5 -4q3 -6 -0.5 -12t-4.5 -8q-1 -3 -2.5 -3t-3 -0.5t-4.5 -4.5t-7 -15q-9 -24 -20.5 -48.5t-22 -50t-19.5 -52
t-12 -53.5q4 -39 23 -52t42.5 -11t46.5 14t34 24q12 10 22.5 19t20 18t19 19t21.5 23q9 10 15.5 19.5t12 16t11.5 9t15 -1.5zM412 666q2 -2 4.5 1t0.5 5t-5 -1t0 -5z" />
    <glyph glyph-name="c_o" unicode="co" horiz-adv-x="427" 
d="M454 165q8 2 13 1.5t1 -8.5q-3 -8 -7 -9.5t-12 -3.5q-8 -3 -18.5 -4t-21 0t-19.5 3.5t-13 5.5q-9 1 -19.5 4t-20.5 5.5t-17 4t-9 -1.5q-1 -2 4.5 -7.5t12.5 -11.5q8 -7 17 -15q14 -14 16 -32t-4 -34.5t-18 -27.5t-27 -9q-29 3 -44 33t-13 75q-10 -11 -15 -14.5t-13 -14.5
t-15 -23t-15 -23q-5 -6 -12 -11.5t-13 -11.5l-12 -14t-12 -13t-11.5 -12t-13.5 -11q-7 -5 -15 -9t-16 -7q-14 -5 -29 -3.5t-28 7.5t-23 14.5t-13 18.5q-2 6 -6 12.5t-6 14.5q-8 21 -4 52.5t16.5 63.5t31 58.5t39.5 37.5l14 9q3 2 9 5t8 3q18 6 35.5 1t28.5 -15.5t13 -23
t-12 -21.5q-2 -2 -8 -4t-8 -1q-4 1 -4 5t1.5 8.5t2 10t-2.5 10.5q1 -1 -1.5 0.5t-5.5 3.5t-5.5 3.5t-1.5 1.5q-11 3 -24 -8t-21 -22q-8 -10 -13.5 -24.5t-10.5 -26.5q-7 -16 -12 -29.5t-8 -25.5q-2 -8 -4.5 -26t-2.5 -37.5t5 -36.5t18 -23q5 -2 14.5 1.5t19.5 10.5
t19.5 14.5t15.5 12.5q8 7 15.5 15t12.5 14q10 12 19 22.5t17.5 20.5t17 21t18.5 25q13 20 22 38.5t26 20.5q6 1 8.5 0t3.5 -2.5t2 -3.5t4 -3q2 0 9 -3t16 -6t17 -5.5t13 -2.5q26 -8 44 -12t33 -2q5 0 12.5 2.5t14.5 4.5zM342 101q-1 4 -6 10t-11 12.5t-12 12t-9 7.5
q-7 6 -9 6t-4 -2q-3 -3 -4 -14.5t0.5 -27t7 -32.5t14.5 -31q5 -3 15 1t13 10q1 1 3 6.5t2 7.5q1 4 1.5 16.5t-1.5 17.5z" />
    <glyph glyph-name="e_b" unicode="eb" horiz-adv-x="586" 
d="M619 163q1 -7 -5.5 -11.5t-16.5 -7t-20.5 -4l-17.5 -2.5l-12 -0.5t-26.5 -1.5t-28 -2t-16.5 -2q-11 -4 -18 -12t-20 -17q-2 -2 -6 -5.5t-6 -5.5l-12 -9l-4 -3l-30 -25q-2 -1 -4 -1v-1q-1 -3 -1 -16t-0.5 -29.5t-1.5 -33t-4.5 -28t-10 -14t-18.5 10.5q-14 13 -13 27.5
t2 39.5q0 5 0.5 3.5t2.5 5.5q0 2 1 10.5t-1 10.5q-6 -1 -17.5 -1.5t-23.5 3t-20.5 13t-7.5 28.5q0 11 2.5 18t19.5 19q6 4 12.5 5t13 1t11.5 1t7 5q7 13 3.5 25.5t-3.5 29.5q-1 23 1 58t7 83q2 21 -0.5 26.5t-16.5 -14.5q-9 -13 -13 -20.5t-7.5 -14t-8.5 -15t-15 -24.5
q-18 -26 -34.5 -50t-30.5 -41q-8 -11 -18 -23t-20.5 -24t-20.5 -22.5t-17 -17.5l-7.5 -7.5t-5 -4.5t-5.5 -4.5t-9 -6.5q-8 -5 -22.5 -15t-31.5 -17t-34 -7t-30 14q-15 17 -13 43.5t17 55.5q10 20 18 31.5t23 22.5q1 1 6 4.5t11.5 8t12.5 8t10 4.5q12 2 24.5 1.5t21.5 -5
t12.5 -14t-3.5 -25.5l-11 -14q-5 -9 -7 -10t-12 -9l-15 -10q-15 -8 -26.5 -8.5t-19.5 -3t-12.5 -9.5t-7.5 -28q-5 -35 10 -36.5t47 21.5q29 21 55 48.5t49 59.5l36 44q13 17 28.5 39t30.5 46.5t29.5 49.5t27.5 48q8 14 15 29.5t10 23.5q5 17 6.5 35.5t6.5 37.5
q6 22 12.5 46.5t14.5 48.5t18 47t23 41q4 5 6 8t8 5q-3 -1 0.5 0.5t9 4t12 3.5t9.5 -2q8 -7 7.5 -24.5t-7 -39.5t-17 -47t-20.5 -47t-18.5 -39t-10.5 -23q-4 -11 -8 -30.5t-7.5 -40.5t-6.5 -40t-4 -30q-3 -20 -3 -46.5t-2 -50.5q-1 -14 -3.5 -32t-4 -32t1 -19t11.5 9
q3 5 4 7t3 5q6 8 14.5 17.5t19.5 17.5t23.5 12.5t27.5 1.5q12 -1 20 -9q7 -7 10.5 -20.5t-2.5 -37.5q-3 -13 -8.5 -22.5t-8.5 -13.5l-0.5 -1t1.5 -1h8t18 2q23 2 38 3t36 3l3 1.5t7.5 2.5t8.5 0.5t5 -4.5zM434 144q8 4 16 17t14 28t8.5 28t1.5 19q-2 8 -5 7t-7 -2
q-14 -3 -18 -7.5t-9 -12.5l-6 -10q-5 -6 -13.5 -17.5t-16.5 -23.5t-14 -22t-4 -11q1 -2 9.5 -1t18 3t17.5 3.5zM332 62q5 6 5 16.5t-1 12.5q-2 10 -2 14t-1.5 5t-4 -0.5t-8.5 -1.5q-14 -2 -22.5 -13.5t-4.5 -23.5q2 -9 8 -11.5t12.5 -2.5t12 2t6.5 3zM98 199q-6 -1 -16 -10
t-19 -20t-15.5 -20.5t-4.5 -10.5q1 -1 7 1t14 5t15.5 7t12.5 9q9 10 11.5 13t4.5 9q5 14 3 16.5t-13 0.5zM398 98q5 4 11.5 11t9.5 10q-5 -2 -20 -1.5t-25 -1.5q-1 0 -1 -6v-12.5t0.5 -12l0.5 -5.5q3 4 13 11t11 7zM421 120l-2 -1q2 0 2 1zM556 138h3h-3z" />
    <glyph glyph-name="e_l" unicode="el" horiz-adv-x="443" 
d="M412 676q-8 -31 -12.5 -51t-7.5 -34t-4.5 -25.5t-3 -26t-4 -34.5l-6.5 -52q-9 -68 -15.5 -112t-11 -80t-6.5 -70t-1 -80q1 -41 0.5 -81.5t1.5 -77.5t8 -70.5t21 -60.5q4 -7 8.5 -11t7.5 -7t3 -5.5t-4 -7.5q-9 -10 -21.5 -7t-25 14.5t-23 29t-15.5 36.5q-5 17 -7 40t-5 46
l-4 42t-2 37q0 55 1 94.5t2 69.5t3.5 55t5.5 52.5t8 61t11 80.5q-10 -18 -22.5 -45t-27.5 -61t-33 -72.5t-39 -78.5q-10 -19 -25.5 -46t-34.5 -52t-40.5 -43t-43.5 -19q-17 0 -28.5 11.5t-17.5 31.5t-5 48t9 60q2 10 8 21t14.5 20t19 14.5t21.5 5.5q24 -2 34 -14t10 -27
t-6.5 -29.5t-13.5 -21.5q-16 -14 -31 -14.5t-16 -3.5q-6 -31 -2.5 -45.5t12 -17t21 4t25 17.5t23 24.5t15.5 24.5q7 12 10.5 16.5t5.5 8t4.5 9t8.5 17.5q21 42 41 86t37 86q14 28 25.5 57.5t20.5 56.5q13 30 21 52t14.5 42.5t12 42.5t12.5 52q3 4 4.5 4.5t3 2.5t4 9t8.5 24
q2 5 4.5 15t5.5 16t10 11.5t13.5 7t12 -2t7.5 -16.5q2 -14 -5.5 -32t-8.5 -23zM77 211q-6 1 -11.5 -9.5t-9.5 -23.5t-6 -23.5l-2 -10.5q8 0 18.5 2.5t14.5 10.5q10 16 12.5 26t0 16t-7.5 9t-9 3z" />
    <glyph glyph-name="e_m" unicode="em" horiz-adv-x="716" 
d="M561 317q-1 0 0 -1q-17 -14 -24 -29.5t-13 -31.5q-7 -15 -13 -33t-13 -38q-8 -12 -15 -36t-14.5 -47t-15.5 -38.5t-18 -10.5q-14 3 -16 10.5t-6 21.5l-1 5.5t-2.5 12t-4 12t-4.5 6.5q-4 2 -7.5 -1t-6.5 -8q-4 -5 -7 -12q-8 -22 -15.5 -50t-15.5 -44q-9 -15 -28 -12
q-16 2 -23 23.5t-8 48.5t1 53t4 38q2 16 1 18.5t-4 -1.5t-6 -11t-5 -9q-7 -10 -19 -23.5t-25.5 -27t-27 -25.5t-23.5 -19q-35 -24 -76 -31.5t-77 15.5q-9 7 -14.5 10.5t-9 8t-6.5 12t-7 22.5q-2 5 0 10.5t0 10.5t0 19t9 25l3 9t8 13.5t17 15t32 13.5q27 5 38.5 -2t13 -19.5
t-5 -27.5t-15.5 -25q-8 -11 -19 -17t-18 -10q-2 -1 -11 -2t-10 -3q-2 -5 1 -13.5t8.5 -17.5t12.5 -16.5t15 -10.5q20 -8 43 -1t45 20.5t39.5 29t25.5 25.5q6 8 10.5 12.5t8 8.5t6.5 8.5t7 11.5q2 4 5.5 12t5.5 10q5 9 10 20.5t10.5 23t10.5 21.5t11 15q20 18 27 14.5
t7.5 -19t-3.5 -38t-5 -42.5q0 -9 -2 -29t-3 -41t-0.5 -38t5.5 -19q1 0 6 11.5t10 25t8.5 24t2.5 8.5q4 9 8.5 19t9.5 18t12 12.5t17 3.5q1 0 8 -4.5t8 -6.5q2 -2 5 -9.5t5.5 -16t4 -15l1.5 -6.5q1 0 4.5 7.5t8 18t8.5 21t6 16.5l10.5 31.5t8.5 24.5t8 21t10 22q2 6 5.5 16
t5.5 12q4 5 7.5 11t6.5 11q9 14 18.5 24t24.5 7q16 -3 22.5 -17.5t6.5 -35t-4.5 -46t-8.5 -51.5q-4 -23 -8 -47.5t-8 -47t-6.5 -41.5t-3.5 -31t-2 -29t-1 -32.5t1.5 -27.5t6.5 -15q6 -3 16 5t19.5 19.5t16.5 22t8 11.5q6 7 11.5 15t9.5 14q7 10 11.5 17.5t9 15.5t9 16.5
t10.5 19.5q11 17 16.5 29.5t12.5 23.5q5 8 6 11.5t7 7.5q14 -2 14.5 -3t2.5 -4q3 -7 -0.5 -12.5t-5.5 -7.5q-4 -4 -8 -10.5t-7 -13t-5.5 -11t-2.5 -5.5q-14 -14 -23 -34.5t-17 -33.5q-7 -11 -20 -33.5t-30.5 -42.5t-38.5 -32t-43 -3q-8 4 -16 20t-11 28q-3 17 -2 39.5
t2 39.5q3 37 9 71.5t12.5 67.5t11.5 65t4 65q3 -2 5.5 -3.5t-5.5 4.5zM49 163q-17 -32 -8.5 -38t29.5 17q15 16 16 32q1 9 0 13t-2.5 4.5t-3.5 -0.5t-5 -1l-4 -4l-9 -9l-9 -9t-4 -5z" />
    <glyph glyph-name="e_n" unicode="en" horiz-adv-x="760" 
d="M755 146q3 2 8 7.5t10.5 9t10.5 3.5t7 -10q-5 -12 -16 -21t-25 -20q-13 -10 -26 -19.5t-26.5 -16t-27.5 -9t-30 2.5q-11 2 -21 15t-15 21q-3 5 -5 14t-3.5 18t-2.5 16t-2 7q-5 2 -11 -0.5t-11.5 -8t-10.5 -11.5t-9 -11q-9 -12 -17 -25.5t-12 -18.5q-5 -7 -9.5 -18.5
t-11 -22.5t-16.5 -18.5t-26 -5.5q-20 2 -29 12.5t-12 27.5t-2.5 39.5t0.5 48.5q0 14 2 31.5t1.5 31t-5 18t-16.5 -7.5q-11 -11 -24 -26.5t-26 -32.5t-25.5 -34t-22.5 -29q-18 -23 -40.5 -53.5t-49 -58t-56.5 -46.5t-63 -17q-21 1 -47 13t-38 29t-17 44.5t-2.5 59t11.5 64
t23 60t33.5 47t42.5 25.5q43 6 53.5 -8t0.5 -36t-33.5 -45t-48.5 -33q-4 -2 -5 -0.5t-1.5 2t-1.5 -1t-5 -8.5q-5 -8 -8.5 -28.5t-5 -43t-0.5 -43.5t6 -30q22 -37 49 -40t55.5 15.5t57.5 51.5t55 68.5t47.5 66t36.5 44.5q6 6 14 16t17 19.5t17 18t13 11.5q22 11 29.5 11.5
t19.5 -9.5q6 -5 8 -11t2.5 -15.5t0 -23.5t1.5 -36q1 -14 1.5 -32.5t3 -32.5t8.5 -18.5t18 10.5q3 4 3 6.5t3 5.5q6 7 16.5 22t24 30t29.5 24t34 4q12 -4 17 -12t7.5 -18.5t4.5 -23.5t7 -26q11 -25 24 -26.5t39 12.5q8 5 13 10l10 10q4 4 11.5 10t11.5 9zM95 233
q-11 -14 -21 -30.5t-15 -36.5q4 4 18.5 10.5t18.5 10.5q24 25 31.5 41t4.5 22.5t-14 2t-23 -19.5zM57 166q-4 -2 1 0h-1zM58 166q0 -1 0.5 -1.5t0.5 1.5h-1z" />
    <glyph glyph-name="n_t" unicode="nt" horiz-adv-x="557" 
d="M677 488q7 -12 5.5 -29.5t-13.5 -25.5q-2 -2 -11.5 0t-13.5 5q-6 4 -6.5 9t-0.5 11.5t-2.5 13.5t-12.5 16q-4 4 -14 5.5t-20.5 2t-19 -0.5t-9.5 -1q-11 -1 -15 -2.5t-12 -3.5q-3 -1 -10 -1.5t-14.5 -2t-14.5 -3.5t-10 -5q-7 -7 -7.5 -40t-2.5 -76q-3 -48 -5.5 -87
t-4.5 -75.5t-3.5 -74t-2.5 -83.5q-1 -58 -3 -120.5t8 -124.5q3 -17 7.5 -31.5t2.5 -17.5q-13 -13 -23.5 -7.5t-19.5 13.5q-11 10 -16 37t-7 57.5t-2.5 58t-0.5 37.5q-1 23 -0.5 45.5t-0.5 52.5q-1 49 0 90.5t3.5 80t5.5 77.5t6 84q0 3 1.5 11t3 16.5t1.5 16.5t-4 11
q-2 2 -4 -1t-3 -8l-2 -10t-1 -6q-11 -31 -20 -47.5t-17 -37.5q-6 -15 -11 -29t-10 -26q-8 -18 -12.5 -30.5t-9 -24t-10.5 -24t-15 -31.5q-7 -14 -15.5 -24.5t-17.5 -24.5q-7 -10 -16.5 -24t-21.5 -25.5t-27 -17.5t-34 0q-13 4 -19 14t-15 29q-5 9 -7.5 20t-4 21t-2.5 17
t-3 9q-6 5 -14 -1t-15.5 -17.5t-15 -25t-11.5 -23.5l-2.5 -8t-6.5 -18.5t-8.5 -21t-8.5 -13.5q-2 -2 -6.5 -4t-5.5 -3q-16 -3 -23 1.5t-8.5 13.5t0 21.5t2.5 25.5l2 61q0 2 0.5 17t2.5 32.5t7 32t13 15.5q5 1 14 -1.5t11 -4.5q9 -8 8.5 -26t-2 -34t-0.5 -24t12 5
q6 6 11.5 14.5t12.5 15.5t15 11t19 2q14 -3 20 -8.5t8.5 -13t3 -16t3.5 -17.5q3 -8 5.5 -19.5l5 -23t5.5 -20t7 -11.5q6 -4 16.5 2t22 17t21.5 24t16 22q17 27 37.5 69t40 87.5t35 88.5t22.5 73q-6 0 -16.5 -1.5t-23 -4.5t-25 -7t-22.5 -7q-13 -5 -28.5 -12t-15.5 -9
q-1 -3 4 -5t11 -4q7 -2 16 -3q-15 -11 -39.5 -13.5t-56.5 -10.5q-10 -3 -24 -9t-27.5 -10t-24.5 -4t-14 11q-3 8 11 17t32 16.5t35 13.5t22 8q12 5 20.5 10.5t14.5 7.5q9 3 32.5 10.5t49 16t47 16t26.5 12.5q8 7 15.5 31.5t15.5 47.5q9 27 13.5 48t8 40.5t8 40t12.5 48.5
q2 7 5 16.5t6 18.5t7 16.5t9 10.5q15 10 21 4.5t6.5 -19t-3 -33t-8 -37.5t-9 -32.5t-4.5 -17.5q-1 -7 -4.5 -32.5t-7 -53.5t-6 -50.5t-1.5 -22.5q14 2 23 4t15.5 3.5t11.5 3t12 1.5q21 3 42 3t39.5 -3.5t32.5 -10.5t20 -19zM418 439q0 -2 3.5 -3.5t2.5 3.5q0 2 -3 3.5
t-3 -3.5z" />
    <glyph glyph-name="e_r" unicode="er" horiz-adv-x="423" 
d="M338 148q-6 -19 -14 -40t-15.5 -43t-12.5 -43t-4 -40q2 -21 2.5 -40t5.5 -35q1 -6 6 -13.5t9 -15.5t5.5 -14.5t-2.5 -9.5q-9 -6 -18 4.5t-14 18.5q-6 10 -13 26t-11.5 34.5t-6.5 37.5t2 35q0 4 2.5 15.5t5.5 25t6.5 27.5t6.5 25q4 16 9.5 37t11 42.5t11.5 41.5t11 35
q2 5 4.5 11.5t4.5 12t3.5 8.5t0.5 1q1 1 2.5 6t2.5 11t1 12t-3 9q-8 10 -23 6t-32 -6q-6 -1 -16.5 -2t-20 -1.5t-17 -1.5l-7.5 -1q-4 -4 -3.5 -7.5t3.5 -8t7 -9.5t7 -11q4 -9 7.5 -21t6.5 -25.5t5 -27.5t2 -25q2 -32 -14.5 -62.5t-41.5 -54t-52 -38t-45 -15.5
q-49 -11 -75.5 7t-34 48t2.5 64t33 56q13 12 31.5 18t36.5 6q11 0 21 -8.5t13.5 -19.5t-1 -23t-21.5 -21q-5 -3 -14.5 -5.5t-19 -4.5t-17 -4t-8.5 -3q-5 -5 -6 -18t1 -27t6.5 -26t12.5 -16q9 -5 23.5 -4t27 5t21 7.5t7.5 3.5q1 0 6 4.5t11 10t12 10t8 6.5q8 5 17.5 17
t17.5 27.5t12.5 33t3.5 34.5q-2 19 -8.5 39.5t-15 37t-17 27t-12.5 11.5l-12 1.5t-8 0t-9.5 -0.5h-15.5q-1 0 -5 0.5t-8.5 1.5t-8 2t-3.5 2q-9 11 -5 17.5t14.5 10t25.5 4.5t27 3q26 4 47.5 1t32.5 -1q6 1 24 3t39 2t40.5 -4t29.5 -16q11 -10 6.5 -36.5t-14.5 -56.5
t-21.5 -57.5t-15.5 -40.5zM102 191q-4 0 -11 -6t-13.5 -12.5t-11 -13t-2.5 -7.5q11 0 21 2q8 2 15.5 4.5t9.5 7.5q7 9 6.5 14t-3.5 7.5t-7 3z" />
    <glyph glyph-name="e_s" unicode="es" horiz-adv-x="330" 
d="M364 163q4 -3 0 -7t-10.5 -7t-13.5 -6t-9 -5q-1 -1 -6.5 -4t-12 -7t-12 -7t-6.5 -4l-40 -28q-1 -4 3.5 -14t6.5 -13q5 -9 10 -16.5t7 -14.5q3 -9 6 -15t4.5 -12.5t1 -16t-2.5 -25.5q-4 -29 -23 -42.5t-41 -12t-41 16.5t-23 44q-4 28 4 50t19 37.5t20.5 24l9.5 8.5
q0 4 -3 10t-7 12.5t-7.5 12.5t-4.5 10q-3 12 -7 15t-9.5 0t-12.5 -10t-16 -14q-8 -7 -20 -15t-25.5 -15.5t-27 -12t-23.5 -3.5q-6 1 -15 4.5t-17.5 9.5t-15 15t-7.5 20q-1 9 2 21t9 23t14.5 19.5t17.5 10.5q17 3 28.5 -1.5t16 -13.5t1 -20t-15.5 -20q-4 -4 -8 -4t-10 -3
l-8 -4t-7 -5.5t-2.5 -8.5t5.5 -12q7 -10 18.5 -10t25.5 6t29 16.5t28 21.5t23.5 21.5t15.5 17.5q3 5 3.5 9.5t2.5 9.5q2 3 4.5 9t4.5 8q4 7 9.5 16.5t12.5 18.5t17.5 16t25.5 11q5 1 12.5 2t12.5 -0.5t6 -6t-7 -13.5l-7 -9q-2 -2 -2.5 -2t-2.5 -2q-9 -9 -20 -19.5t-19 -22.5
t-11.5 -27t1.5 -34q3 -11 11 -21.5t8 -11.5t10 4t18 10q5 3 18 11.5t27.5 16.5t28 12t20.5 -3zM260 -8q-1 8 -5.5 19.5t-9.5 22.5t-10 19.5t-6 11.5q-2 4 -2 3q-1 0 -1.5 -1t-2.5 -2q-13 -1 -25 -23t-15 -49t6.5 -49.5t39.5 -24.5q10 0 16.5 6.5t10 17t4.5 23.5t0 26z
M52 175q-4 -1 -11 -12q-4 -5 -7 -12q4 -5 10 -3t10 7.5t4 12.5t-6 13v-6z" />
    <glyph glyph-name="e_t" unicode="et" horiz-adv-x="479" 
d="M629 464q3 -6 1 -9t-6.5 -4t-9 -1t-6.5 -1q-20 -7 -48 -9t-49 -5q-48 -7 -76.5 -10.5t-30.5 -4.5q-11 -6 -18 -46.5t-10.5 -99t-4.5 -127t-0.5 -131t2.5 -110.5t5 -66q1 -10 3 -22t4.5 -23.5t4.5 -21t4 -13.5q2 -7 7 -17.5t9.5 -21t7.5 -19t1 -10.5q-5 -5 -11 -4.5
t-12.5 4t-12.5 8.5t-10 9q-17 15 -27.5 47t-16.5 73.5t-8.5 89t-3 94.5t0 89.5t0.5 74t-0.5 48t-4.5 11.5q-11 -14 -19.5 -27t-16.5 -24q-3 -4 -8 -12t-7 -12q-6 -8 -10.5 -12t-12.5 -13q-7 -9 -18 -21.5t-19 -20.5q-11 -12 -23.5 -24t-30.5 -22q-20 -12 -40.5 -20t-48.5 2
q-9 3 -18 9t-16 13t-12 14t-6 11q-10 18 -11 39.5t5 41t18 34.5t29 20q37 17 56.5 7.5t23.5 -28.5t-6.5 -37.5t-34.5 -19.5q-18 0 -28 5.5t-11 5.5q-3 -3 -3.5 -9.5t-0.5 -14t0.5 -14.5t1.5 -10q4 -27 14.5 -39t24 -13t28.5 6t28.5 17t24.5 20.5t16 15.5l25 27l15 16
q2 2 5 5.5t5 5.5q11 14 25.5 35t23.5 37q6 12 11 18.5t9 12t7.5 11.5t6.5 16q3 0 4.5 8t3 20.5t2.5 27.5t2 27q1 24 1.5 34t-4.5 12t-17.5 -0.5t-36.5 -3.5q-9 0 -25 1.5t-28.5 2.5t-16.5 -1t10 -8q2 -1 6.5 -4t6.5 -4q-16 -2 -44.5 0.5t-47.5 3.5q-16 1 -38.5 0t-44 -1
t-38.5 2t-21 9q-5 7 -2 10t9 4t12 1h8q63 10 131 10.5t129 3.5q20 1 31 0.5t16.5 2t8.5 8t6 18.5l16 70q2 10 5.5 17t6.5 17q3 9 6 20t6 22.5t6.5 22t7.5 16.5l5.5 5.5t4.5 5.5q24 19 34.5 11.5t12 -27t-1.5 -44t-6 -40.5q-7 -34 -15 -60.5t-11 -54.5q4 0 9.5 0.5t13.5 1.5
q11 1 22 -0.5t15 1.5q14 2 19 1.5t13 1.5q9 3 27 5t37.5 2.5t36 0t21.5 -2.5zM69 178q-8 -9 -9.5 -14t-2.5 -9l4.5 -1.5t12 -2.5t15 0t13.5 5q4 2 8 9t4 13q3 15 -4 18t-9 3q-5 1 -10 -1.5t-9 -6t-7.5 -7.5t-5.5 -6zM416 601q-2 2 -5 -0.5t0 -5.5q2 -2 5 0.5t0 5.5zM395 519
q2 -2 5 0.5t0 5.5q-2 2 -5 -0.5t0 -5.5zM401 555q0 -3 3.5 -4.5t2.5 3.5q-1 2 -4.5 4t-1.5 -3zM409 572q-2 1 -4.5 -1t-0.5 -5q2 -2 5 0.5t0 5.5zM398 537q2 -2 5 0.5t0 4.5q-2 2 -5 -0.5t0 -4.5zM413 583q-2 2 -5 -0.5t0 -4.5q2 -2 5 0.5t0 4.5zM392 508q2 -2 4.5 0.5
t0.5 4.5t-5 -0.5t0 -4.5zM415 453q-8 -1 -7 -1.5t6 -0.5q-5 -2 -1 -3.5t2 3.5v2z" />
    <glyph glyph-name="h_t" unicode="ht" horiz-adv-x="594" 
d="M449 302q2 -2 3.5 -1.5t1.5 3.5q0 6 -5 4q0 9 -2 11q-1 1 -3 -4t-5 -14t-6 -19t-6 -19q-2 -6 -2.5 -11t-2.5 -9q-3 -6 -5.5 -13.5t-5.5 -15.5q-5 -13 -9 -24.5t-8.5 -23.5t-9.5 -25t-12 -28q-16 -23 -26.5 -46t-30.5 -38q-7 -5 -15 -12t-18 -12.5t-21 -8t-24 2.5
q-13 4 -20 16t-11 27t-6 32.5t-5 34.5q-2 10 -3 22t-3.5 18t-7 4t-12.5 -20l-6.5 -13t-4.5 -11q-10 -29 -16.5 -61.5t-12 -67t-11 -70.5t-13.5 -70q-3 -13 -5.5 -27.5t-7.5 -27.5t-12 -21.5t-19 -8.5q-18 -1 -28 13.5t-14.5 39t-6 56.5t-3.5 68q-5 88 -8.5 168t-2.5 154
t8.5 144.5t25.5 138.5q5 17 9.5 31t12.5 30q5 9 6 14.5t17 9.5q-1 0 4 2t12 3.5t14.5 0.5t12.5 -6q-1 1 0.5 -17t2.5 -44q0 -19 1.5 -32.5t-5.5 -16.5t-13 0.5t-10.5 10t-6.5 14t-1 12.5q-6 -14 -10.5 -51.5t-8.5 -85.5t-6 -98.5t-2 -88.5q0 -75 1.5 -154t2.5 -158
q0 -10 -1 -32.5t-0.5 -40t3 -22t8.5 21.5q4 19 8.5 43t8 49.5t7.5 50.5t8 46q3 12 8 41.5t15.5 58.5t28 48t44.5 11q12 -4 19.5 -17t11.5 -30.5t6.5 -37t5.5 -37.5q1 -4 2 -11l2 -14t2 -12t2 -6q8 -6 21 3t25.5 23.5t22.5 28.5t13 19q18 31 28.5 60.5t15.5 43.5
q27 76 58 171q4 13 2.5 17t1.5 13q0 1 3 3.5t6 6.5t4 8t-2 7q-2 2 -12.5 0.5t-23.5 -5.5l-26 -8t-22 -6q-24 -6 -42 -11t-36 -10.5t-38 -10.5t-47 -11q-8 -2 -20 -4.5t-24 -4.5t-22 -2t-13 5q-3 6 5 11.5t20.5 10.5t25.5 9t20 6q26 7 45.5 9.5t45.5 8.5q17 5 39.5 12
t44.5 13q13 3 27 5t26 4t20.5 4t11.5 5q12 11 13.5 37.5t6.5 54.5l3 21t6.5 27t11.5 21t18 4t11.5 -21t-1.5 -52q0 -5 -3 -15.5t-6 -22t-3.5 -22t3.5 -14.5q1 -1 18.5 2.5t38.5 8t40 9t24 5.5q10 2 29.5 6t39.5 7t37 2t22 -9q3 -5 -2.5 -10t-15 -9.5t-21 -7.5t-20.5 -4
q-13 0 -21.5 4.5t-22.5 2.5q-6 -1 -29 -5.5t-49 -10.5t-47.5 -12t-24.5 -9q-9 -11 -8.5 -48t-3.5 -86q-2 -24 -5 -58.5t-6 -73.5t-6 -79.5t-5.5 -77t-4 -67t-1.5 -48.5q0 -47 1.5 -86.5t6.5 -72.5q1 -7 8 -25.5t10 -34.5t-2.5 -23t-29.5 10q-15 10 -23.5 34t-12 53.5
t-4.5 61.5t-1 59q0 33 1 71.5t3 79t4.5 81.5t5.5 79q0 6 1.5 19.5t3 29t2.5 31.5t1 28q-1 0 -1 2q-1 4 1 4v-6z" />
    <glyph glyph-name="i_l" unicode="il" horiz-adv-x="363" 
d="M306 613q-1 -7 -3.5 -20t-4.5 -23.5t-3.5 -14.5t0.5 7q-5 -33 -10.5 -80.5t-10.5 -96.5t-9 -92t-5 -67q-2 -38 -3.5 -80.5l-3 -85t-1.5 -83.5t1 -75q1 -29 2.5 -63.5t4.5 -67.5t9 -60.5t17 -40.5q1 -2 5 -4t7.5 -4.5t4.5 -5.5t-3 -6q-5 -5 -13.5 -4.5t-17.5 3t-16.5 6
t-8.5 4.5q-6 4 -10 12t-7 16t-5 14.5t-2 8.5q-13 45 -19 107.5t-6.5 134t2.5 147.5t9.5 147.5t15 134t18.5 107.5q-17 -29 -27 -63.5t-21 -69.5q-10 -33 -21.5 -64.5t-24.5 -60.5q-3 -5 -6 -14t-6.5 -19t-6.5 -18.5t-5 -12.5q-3 -8 -5 -12.5t-7 -12.5q-3 -8 -4.5 -11.5
t-6.5 -14.5q-4 -9 -10.5 -26.5t-17 -33.5t-25 -26t-33.5 -3q-9 3 -13 13.5t-5.5 24t-0.5 29t2 28.5q0 5 1.5 20t6 29.5t12 24.5t20.5 5q7 -2 8.5 -10t0.5 -18.5t-3.5 -21.5t-3.5 -19q-2 -12 -3.5 -28.5t-1.5 -29t2.5 -17.5t9.5 7q8 13 16.5 24.5t12.5 19.5q5 8 10 23.5
t10 26.5q9 21 14.5 36t15.5 38q5 10 6.5 14.5t4.5 12.5l8 22q6 13 12 29.5t13 35.5q10 31 21 66.5t22 70t21.5 64.5t20.5 51q6 14 9 25.5t16 19.5q13 7 19.5 5t8.5 -8t1 -13.5t-1 -12.5zM19 248q2 -1 0 2t-5 7t-6 6.5t-3 0.5q-1 2 1 8t21 11q8 2 18.5 2.5t12.5 -1.5
q7 -7 3 -20q-2 -6 -6 -14q-1 -1 -15 -3.5t-21 1.5z" />
    <glyph glyph-name="i_n" unicode="in" horiz-adv-x="484" 
d="M516 163q2 -6 -6 -14.5t-20.5 -17.5t-25.5 -16.5t-21 -11.5q-5 -2 -14 -6.5t-19.5 -8t-22 -5t-22.5 1.5q-5 1 -10.5 6.5t-10.5 11t-8.5 10.5t-4.5 7q0 1 -2 10t-3.5 19.5t-3.5 19l-2 8.5q-4 1 -10 -7.5t-13 -21t-13 -25.5t-10 -20q-3 -5 -8 -16.5t-12 -23t-15 -20.5
t-17 -9q-11 0 -18 6t-11.5 15t-6.5 20l-4 22q-1 7 0.5 27.5t2 39.5t-2 29t-11.5 -4q-4 -6 -5.5 -9t-3 -7t-4.5 -9.5t-10 -15.5q-9 -14 -21 -28t-14 -17q-2 -5 -6.5 -14.5t-8.5 -15.5q-2 -3 -3.5 -4.5t-3.5 -5.5q-3 -5 -9 -13t-14 -14.5t-17 -11t-18 -2.5q-13 3 -20 14
t-10.5 27.5t-4 37.5t0.5 42q1 20 2 38t5 30t11.5 17.5t21.5 0.5q12 -4 15.5 -9t2.5 -11.5t-3.5 -14t-3.5 -17.5q-1 -17 -1.5 -26.5t-1 -16.5t-1 -13.5t-1.5 -17.5q0 -5 -1 -16.5t-1 -21.5t3 -15.5t10 1.5l14 16q6 7 15 20.5t17 26.5q5 8 10.5 14.5t7.5 10.5q5 7 8.5 13.5
t7.5 13.5q7 10 18.5 26.5t16.5 24.5q13 22 24 28t10 7q11 -2 21 -11.5t13 -17.5q6 -15 4.5 -42t-3 -49t-0.5 -31t11 13q3 7 7.5 14t9.5 15q6 9 11 19.5t11.5 19.5t15 14t19.5 4q12 -2 17.5 -6.5t8.5 -11.5t4.5 -15t4.5 -15q6 -16 9 -27t7.5 -16t13 -5t25.5 7q7 3 17 7
t20 9.5t19 11t13 11.5q1 1 3 4.5t6 7t9.5 4.5t13.5 -3zM37 260q-11 -1 -17.5 8t-5.5 15q1 10 3 8.5t8 2.5q16 11 25 7.5t10.5 -12.5t-4.5 -18.5t-19 -10.5z" />
    <glyph glyph-name="l_l" unicode="ll" horiz-adv-x="522" 
d="M538 165q6 0 7 -4t-3 -16t-12.5 -35t-21.5 -62q-3 -10 -7 -18.5t-7 -18.5q-8 -20 -17.5 -52t-24 -62t-33.5 -51t-44 -18q-32 2 -50.5 23t-28 51t-12 65.5t-2.5 66.5q-6 75 -5 126t5.5 95.5t12 90.5t14.5 111q-4 -17 -15 -59t-26.5 -97.5t-33.5 -117t-35 -118t-31 -100.5
t-22 -64q-8 -19 -17.5 -42.5t-21.5 -42.5t-27.5 -29t-35.5 -2q-15 6 -24 32t-14.5 60.5t-8 71t-3.5 62.5q-1 44 2 91t5 98q5 94 13 185.5t25 175.5q5 19 9.5 37.5t13.5 41.5q2 6 5 16.5t8.5 19.5t12.5 14t17 -1q4 -2 5.5 -2.5t2.5 -0.5t2 -2t3 -7q2 -7 -2.5 -18t-2.5 -18
q1 -4 1.5 -25.5t0 -45.5t-4 -44t-10.5 -20q-12 -1 -13 0.5t2 4.5t5.5 6.5t-3.5 5.5q-2 0 -2 5v11.5t1 13t1 10.5q-5 -27 -10 -63.5t-9.5 -74t-8.5 -71.5t-6 -56q-7 -84 -11 -172t0 -164q0 -10 0.5 -32.5t2 -46.5t4 -43.5t6.5 -23.5q5 -5 9.5 -4t8.5 4t6.5 6.5t2.5 4.5
q4 4 4.5 5.5t0 2.5t0 3t4.5 8q7 13 11 22t6 16.5t4 14t6 15.5l14 30l20 52q10 27 16.5 51t14.5 50q32 106 59 212t55 221q2 9 5 26.5t8 34.5t12.5 28.5t19.5 8.5q9 -2 13 -8.5t5 -15.5t0 -18.5t-1 -18.5q0 -72 -6.5 -153.5t-12.5 -164.5t-8 -164t6 -153q2 -10 4 -24.5
t6 -24.5q9 -24 20 -27t22.5 7t22.5 28.5t20.5 38.5t16 37t9.5 24l15 43q6 18 14 34.5t14 35.5l6 15t8.5 20.5t9 18t8.5 7.5zM310 466q-1 -3 -1 -9q0 2 0.5 3.5t0.5 3.5v2z" />
    <glyph glyph-name="i_t" unicode="it" horiz-adv-x="397" 
d="M524 472q6 -1 19 -6t25 -12t19 -16t1 -18q0 -1 -4 -2t-9 -2t-9.5 -1.5t-7.5 0.5q-4 2 -6.5 8t-6.5 8t-4 5t-3 5q-17 10 -33 13t-33.5 2.5t-37 -3t-41.5 -5.5q-12 -1 -25.5 -1.5t-24.5 -0.5t-19.5 -1t-9.5 -2q-2 -1 -4 -23.5t-4 -52t-3.5 -58.5t-2.5 -42
q-1 -26 -3.5 -68.5t-4.5 -92.5t-3.5 -104.5t-0.5 -104t5 -91t13 -65.5q3 -10 9 -19.5t11.5 -17t8 -13t-0.5 -7.5q-13 -8 -26.5 -1t-24.5 20t-19 26.5t-9 19.5q-6 20 -9 65t-3.5 102.5t0.5 121.5t2.5 122t3.5 104.5t4 69.5q1 11 2.5 27t3.5 31.5t4 28t2 16.5
q-2 -2 -12.5 -2.5t-11.5 -1.5q-2 -2 -2.5 -8t-2.5 -8q-10 -15 -21 -39.5t-22 -47.5l-11 -27q-2 -5 -11 -24.5t-21 -47t-26 -59t-26.5 -59t-23 -47.5t-14.5 -25q-3 -5 -3 -3q-8 -9 -19.5 -13t-25.5 1q-8 3 -12 13.5t-5.5 24t-1 29t2.5 28.5q0 5 1.5 20t5.5 29.5t12 24.5t21 5
q7 -2 8 -10t0 -18.5t-3.5 -21.5t-3.5 -19q-2 -12 -3.5 -28.5t-1.5 -29t3 -17.5t10 7q8 13 16.5 24.5t12.5 19.5q21 44 41.5 93t37.5 94q1 2 6 12.5t5 12.5q3 10 7.5 22.5t10 26t11.5 26.5t12 23q4 7 2 9t-8 1.5t-14 -2.5t-17 -3q-24 -4 -51 -7t-58 -8q-18 -3 -37 -8.5
t-35 -7.5q-3 0 -10 -1t-13.5 -2t-11 -1.5t-3.5 -0.5q-19 1 -24.5 8t18.5 18q7 3 19.5 7t26 8t27 7t23.5 4q16 2 36.5 1t33.5 -1q6 0 10 0.5l8 1t9 1.5t13 2q19 3 33 4t24 3.5t17.5 8.5t14.5 20q3 6 5 13t4 13q3 8 10 27t15 40.5t15.5 41t12.5 29.5q2 5 1 7t4 4
q19 7 27.5 4.5t10.5 -12t-0.5 -24t-3.5 -31.5q0 -7 -4 -26.5t-8.5 -40t-7.5 -37t-1 -18.5q2 -1 0 -3q2 0 4.5 0.5t6.5 0.5q35 2 63 6t46 4h42t44 -5zM18 248q2 -1 0.5 1.5t-4.5 6t-6 6.5t-4 3q0 2 2 7.5t21 10.5q8 2 18 2.5t12 -1.5q5 -4 5 -9.5t-2 -10.5q-2 -6 -5 -14
q-1 -1 -15 -3.5t-22 1.5zM277 492q1 11 3.5 21.5t2.5 18.5q0 -1 -4.5 -12t-10 -24t-9 -24t-2.5 -12q4 0 7.5 2t5.5 0q3 -3 4 6.5t3 23.5zM265 438q1 -1 0 -1v1z" />
    <glyph glyph-name="m_m" unicode="mm" horiz-adv-x="1075" 
d="M1087 164q5 2 8 1.5t0 -8.5q-7 -18 -23 -40t-36 -41t-43.5 -30.5t-45.5 -9.5q-21 2 -31.5 14.5t-15.5 26.5q-5 16 -5 36q-4 1 -10.5 -6.5t-13.5 -17.5t-13 -19l-8 -12q-12 -14 -22 -28.5t-22 -13.5q-20 1 -23.5 11t-5.5 25q-2 17 -1.5 29t-1.5 14q-2 1 -9 -10
t-14.5 -25.5t-14 -26.5t-6.5 -13q-6 -10 -11 -23t-11.5 -24t-14.5 -17t-19 -2q-15 3 -23 16.5t-11.5 31t-4 35t-0.5 28.5q-1 10 1 32t4.5 50t5.5 58l5.5 55t4 41.5t1.5 17.5q0 4 -7 -3t-15 -23q-8 -15 -19 -40.5t-25 -65.5q-8 -18 -16.5 -42t-16.5 -42q-4 -9 -8.5 -22.5
t-10 -26t-12.5 -23.5t-16 -16q-18 -9 -31.5 -10t-24 5t-17 17t-9.5 25q-1 2 -3 12.5t-3 12.5q-2 4 -4.5 14.5l-5 21t-5 19.5t-4.5 12q-3 3 -7 -0.5t-8.5 -9.5t-8 -12.5t-4.5 -8.5q-9 -13 -15 -21.5t-10.5 -16t-8.5 -14t-10 -15.5t-16 -22t-18 -15q-23 -6 -33 6t-12 32.5
t0.5 45t4.5 44.5q3 30 5.5 52.5t5.5 41.5t6 37t7 41q2 13 8 40.5t11 57t7.5 54t-2.5 31.5q-3 4 -6.5 2.5t-6.5 -5.5t-6 -9t-4 -7q-43 -54 -73 -118t-56 -126q-9 -20 -20 -49t-22.5 -61t-23.5 -62.5t-22 -53.5q-4 -9 -4 -22t-5 -21q-7 -8 -19.5 -14.5t-22.5 -3.5
q-12 3 -17.5 13.5t-7.5 24t-1 29.5t1 31q1 17 1.5 30.5t1.5 26t2.5 26.5t4.5 33q5 28 13.5 59t20.5 55.5t26.5 39t31.5 11.5q12 -3 21.5 -13t11.5 -18q3 -13 3.5 -21.5t1 -11t2 1t6.5 13.5q17 33 35 68.5t35 65.5q6 11 17.5 34.5t27 45t34.5 34t41 2.5q10 -5 15 -17.5
t6.5 -29t0.5 -35t-2 -34.5q-4 -60 -16.5 -117.5t-21.5 -114.5q-1 -6 -4 -25t-6 -40t-5 -38t0 -19q3 -5 5.5 -5t4.5 2.5t4 6t4 5.5q6 8 5.5 10.5t4.5 10.5t16 29.5t26 42t32 33.5t34 5q23 -11 27 -37t3 -53q0 -7 0.5 -11t0.5 -9q1 -5 1 -7t2 -10q1 -22 8 -31.5t11 -10.5
q7 -1 14 8t13.5 22.5t12.5 28t11 25.5q17 40 29.5 74t27.5 70q5 12 10.5 27t11.5 27q3 6 11.5 20.5t20.5 28t26 21t28 -0.5q6 -4 8 -11.5t2.5 -18t0 -23t0.5 -25.5q0 -15 -1.5 -44t-4 -61.5t-5.5 -64t-4 -50.5q-2 -20 -4 -36.5t-3 -25t1 -8t10 14.5t17 33t15 28
q7 10 17.5 24.5t22 23.5t21.5 8.5t16 -19.5q2 -7 2 -18t-1 -21.5t-2 -18.5t0 -9q3 -3 6 -1.5t6 5.5t5 8.5t4 6.5q7 9 15.5 22t18.5 23.5t20.5 17t21.5 3.5q15 -3 23 -14t12.5 -23.5t9.5 -24t14 -15.5q10 -5 23.5 2.5t28 21t28 29.5t24.5 29q8 8 12 14.5t7 7.5zM109 198
q-7 2 -16 5.5t-11 7.5q-1 1 0 3t2 3.5t1 2t-3 -0.5q-2 -1 -4 -9t-4 -18t-3.5 -20t-2.5 -16q-8 -56 -9.5 -76.5t1 -18t8 21.5t13 42.5t15 44.5t13.5 28zM109 198q2 -1 6 -1q2 0 3 -1q-3 7 -9 2zM730 20l1 1z" />
    <glyph glyph-name="n_g" unicode="ng" horiz-adv-x="775" 
d="M812 164q6 -3 -0.5 -9.5t-17 -14t-23 -14t-18.5 -9.5q-12 -6 -26.5 -10.5t-30.5 -9.5q-8 -2 -15.5 -6t-15.5 -6q-3 -1 -8 -2.5l-10 -3t-9 -2.5t-4 -2t-0.5 -8t-1.5 -16.5t-1.5 -20.5t-1.5 -19q-11 -94 -33.5 -175t-64.5 -154q-3 -5 -6 -12.5t-6 -12.5q-2 -2 -6 -5t-5 -5
q-9 -21 -19 -34.5t-22.5 -23.5t-28 -18t-36.5 -18q-29 -14 -65 -20t-81 8q-22 7 -36.5 13.5t-28.5 20.5q-4 3 -5 4.5t-1 2.5t-0.5 2.5t-3.5 4.5q-8 8 -16 13.5t-13 11.5q-3 4 -7.5 13.5t-9.5 20t-9 20.5t-5 14q-4 22 -3 49.5t3 41.5q2 8 2.5 12.5t3.5 15.5q7 21 13.5 36
t17.5 34l10 16q7 11 19 25t26 26q5 5 10 9.5t10 8.5q6 5 12 7t11 6q25 16 57 29.5t67 25.5t72.5 22t72.5 19q6 2 16 5t19.5 5.5t16.5 4.5l7 2q6 7 6 23.5t2 40.5q0 8 0.5 23t0.5 31t-0.5 28t-2.5 14l-3 -6t-7 -13l-8 -14t-5 -8q-3 -5 -5 -8t-4 -6.5t-4.5 -8.5l-7.5 -15
q-3 -3 -9 -10t-13.5 -15.5t-15.5 -16.5t-14 -12q-5 -4 -9 -5.5t-9 -4.5q-4 -2 -9 -4l-10 -4q-26 -15 -63 -16.5t-71 16.5q-5 2 -9.5 9t-8.5 9q-9 6 -15.5 7.5t-9.5 4.5q-8 8 -10.5 12.5t-13.5 24.5q-7 12 -10 21t-5.5 12t-7 -0.5t-14.5 -14.5l-6 -12q-2 -1 -6 0.5t-6 -0.5
q-3 -4 -6 -11.5t-6 -12.5q-2 -2 -7 -3.5t-6 -2.5q-5 -14 -18 -32.5t-24 -35.5q-2 -2 -7 -3t-6 -3q-8 -18 -21 -33t-27 -34q-3 -3 -8 -10t-11.5 -15t-14.5 -15t-15 -9q-31 -8 -44.5 1.5t-16.5 28.5t1.5 44t10.5 48q7 29 14.5 56.5t15.5 47.5q9 23 18.5 45t24.5 47q4 6 8 15
t9.5 16.5t14.5 13t23 4.5q13 -1 19 -3.5t7.5 -8.5t0.5 -16.5t-2 -26.5q-1 -9 -0.5 -20.5t-1.5 -21.5t-8.5 -15.5t-20.5 -3.5q-2 0 -8 7t-10 5q-1 0 -6.5 -14.5t-11.5 -32.5l-11.5 -34.5l-7.5 -22.5q-1 -4 -5 -16.5t-8.5 -27t-7.5 -29t-3.5 -24t3.5 -11t15 9.5q10 11 20 22.5
t23 26.5q12 15 18.5 23.5t17.5 19.5l6 6q7 11 21 32.5t33 42t41 34t46 7.5q8 -2 19 -13t18 -23q3 -7 4.5 -18t7.5 -19q8 -11 22 -21.5t29 -18t28 -11t21 1.5q-5 6 -12 21t-9 22q-6 31 1 57.5t18 52.5q9 24 17.5 39t24.5 34q5 6 13.5 14.5t19 15.5t22.5 11t25 2
q14 -3 26.5 -17.5t16.5 -31.5q3 -15 2.5 -27t-0.5 -16.5t1.5 -0.5t8.5 19q6 15 8 32t4 48q1 17 2.5 38.5t3.5 40.5q2 15 4 32.5t6 33.5t10.5 28t16.5 16q18 8 28 3.5t14 -18.5t2 -37t-8 -52q-2 -8 -6 -20.5t-9 -26t-9.5 -27t-5.5 -23.5q-4 -25 -3 -60t-1 -77
q-1 -14 -3.5 -33.5t-4 -38t-1.5 -32.5t4 -18q1 -2 15.5 2t31 9.5t30 10.5t14.5 5q5 2 18.5 8t24.5 12q10 5 19 13.5t21 2.5zM586 54q0 4 -2 5t-4.5 -0.5t-4 -3l-1.5 -1.5q-7 2 -13 0q-20 -5 -41 -11.5t-44 -13.5q-57 -16 -112.5 -34.5t-95.5 -44.5q-10 -6 -20.5 -12.5
t-16.5 -11.5l-10 -15l-20 -28q-17 -26 -31.5 -58t-17.5 -58q-5 -42 3.5 -80t29 -66.5t51 -46t69.5 -18.5q24 -1 48.5 7t46.5 21.5t40 31t30 35.5q16 25 27.5 50t21.5 48q17 42 28.5 84t19.5 87q7 37 12.5 72.5t6.5 61.5zM494 158q11 15 21 34.5t17.5 39.5t10.5 40.5t0 38.5
q-5 23 -13.5 24.5t-17.5 -0.5q-6 -1 -18.5 -16t-23.5 -33q-5 -8 -15 -33t-17.5 -53t-7.5 -52.5t15 -32.5q5 -2 11.5 1.5t12.5 8.5t10.5 10.5t5.5 7.5q0 2 4 7.5t5 7.5zM567 256q2 -2 5.5 1t1.5 5t-5.5 -1t-1.5 -5z" />
    <glyph glyph-name="n_n" unicode="nn" horiz-adv-x="744" 
d="M774 163q5 -5 -3 -19t-20 -29t-24 -28t-14 -16q-2 -2 -10.5 -14t-20.5 -24t-27 -20.5t-30 -2.5q-19 7 -26.5 34t-9 61t0.5 69t2 58q0 11 1.5 28.5t2 35.5t-1.5 33t-8 21q-7 0 -14 -7.5t-13.5 -17t-11.5 -19.5t-7 -15q-5 -11 -8.5 -23.5t-6.5 -20.5q-4 -11 -5.5 -17.5
t-5.5 -17.5q-6 -21 -9.5 -45.5t-8.5 -46.5q-3 -12 -5.5 -24t-6 -22t-8.5 -17.5t-12 -9.5q-26 -9 -39 5.5t-19 37.5q-4 15 -5.5 26t-3.5 16.5t-5.5 3t-11.5 -15.5q-3 -5 -2.5 -6.5t-3.5 -5.5q-4 -5 -10.5 -16.5t-11.5 -19.5l-11 -19l-7 -14q-1 -2 -2 -2t-2 -2
q-4 -10 -16.5 -22t-24.5 -14q-13 -2 -24.5 3t-21 14.5t-16 22t-9.5 26.5q-4 19 -7 48t-5 56q-1 20 0 42.5t0 39.5t-5 23t-14 -7q-2 -3 -2.5 -6.5t-2.5 -5.5q-3 -4 -7 -12.5t-10 -18.5q-5 -9 -11.5 -24t-13.5 -31.5t-13.5 -31.5t-9.5 -23q-8 -23 -13.5 -46t-16.5 -52
q-2 -5 -6.5 -18.5t-12.5 -26t-20 -19t-30 2.5q-10 5 -15 23.5t-7 42.5t-2 49.5t1 43.5q1 15 1 19t1 7t2 9l4 24t6.5 38.5t7.5 39t8 32.5t7 18q1 2 8 1t9 -1q9 3 16 4q6 1 12 0.5t10 -4.5q2 -3 2 -21.5t-1.5 -40.5t-3 -40t-2.5 -20q-2 -7 -2.5 -9.5t-8.5 -2.5q-4 0 -5 1
q0 -2 0.5 -5.5t-0.5 -11.5q-1 -16 -3.5 -37.5t-3.5 -37t1.5 -19.5t10.5 14q6 12 13.5 31t16 39.5t16 39.5t13.5 31q4 8 6.5 15t9.5 15q5 5 8 18.5t14 24.5q4 5 12 16.5t16 14.5q33 10 46.5 -10t15.5 -52t-1 -67t-3 -55q0 -14 1 -32t4.5 -35t10 -30t17.5 -15q7 -2 16.5 10
t19 29t17.5 34t13 26q10 21 25 40t29 16q13 0 27 -8t18 -22v-10q0 -4 1 -9q4 0 8.5 11.5t8 25t6.5 25t3 12.5q4 16 6.5 30t7.5 31q4 11 14 31l18 36q3 6 8.5 15.5t13.5 19t18.5 15.5t23.5 5q20 -2 31.5 -16t17 -35t6 -46.5t-1 -51t-3.5 -48.5t-3 -39q0 -1 -1 -16.5t-1 -35
t1.5 -37t6.5 -20.5q4 -3 14 5t20 19t18.5 21.5t10.5 12.5q3 2 6 5q2 2 5 5.5t6 7.5q2 2 7.5 12.5t13 21t16 16.5t15.5 -1z" />
    <glyph glyph-name="o_f" unicode="of" horiz-adv-x="466" 
d="M340 68q-10 -5 -22.5 -8.5t-24.5 -7.5t-20.5 -8.5t-9.5 -12.5q-2 -14 2.5 -23t11.5 -15t14.5 -10t11.5 -7q20 -17 37 -32t34 -41q12 -19 25.5 -44t18.5 -54q7 -48 -2 -92.5t-22 -78.5q-7 -17 -16 -36.5t-21 -35t-28 -25.5t-37 -7q-24 3 -40 28.5t-25.5 59.5t-15 70.5
t-8.5 61.5q-13 101 -7.5 192.5t16.5 186.5q2 18 4.5 42.5t6 51t8 54t10.5 53.5q4 18 8.5 34.5t5 25.5t-4.5 7.5t-20 -19.5q-3 -4 -8 -12t-9 -12q-8 -7 -17 -17.5t-18.5 -22t-18.5 -22.5t-17 -20q-5 -5 -22.5 -22t-35.5 -35.5t-29.5 -35t-5.5 -20.5q14 2 28.5 -3.5
t33.5 -20.5q6 -4 13.5 -10.5t14 -16t10 -21.5t2.5 -26q-2 -23 -23 -37.5t-47 -16.5t-51 10.5t-35 42.5q-3 9 -4.5 22t-0.5 27.5t4.5 29t10.5 26.5q7 15 24 32t38.5 36t44 40.5t42.5 45.5q27 32 50.5 63t45.5 63q8 14 11.5 19t11.5 16q3 5 9.5 16.5t10.5 16.5q7 12 12.5 30.5
t19.5 31.5q3 3 4 5.5t2 4.5t3.5 4t10.5 4q3 1 11 4.5t18 -4.5q3 -3 -1 -5q-2 -1 -5 -1q-1 -23 -15.5 -52t-21.5 -52q-22 -76 -33 -156t-22 -180q-1 -11 -3 -22t-4 -20.5t-3 -16.5t0 -8q2 -3 11 -2t21 4t25 7.5t22 8.5q32 14 56 25t57 24q9 4 18 8.5t16.5 7.5t13.5 2.5
t10 -6.5q2 -3 -8 -10t-27 -15.5t-38 -18.5t-41 -19t-37 -16.5t-25 -11.5zM123 64q3 10 -7.5 25t-25.5 26.5t-30.5 16.5t-22.5 -3q-2 -3 -2 -12.5t1 -20.5t3 -21t3 -14q5 -15 18 -24t20 -10q18 -1 29 12t14 25zM267 -30q-3 2 -2.5 3.5t-4.5 -3.5q-2 -2 -0.5 -6t1.5 -6
q3 -43 2.5 -87t-0.5 -89t3 -90t13 -89q1 -5 4.5 -12.5t6.5 -14.5t5.5 -11.5t1.5 -4.5q5 -2 10 1.5t8.5 8.5t6 9.5t2.5 5.5q6 8 7 13.5t6 10.5t4.5 5.5t2.5 7.5q19 40 31 81.5t7 95.5q-2 20 -7.5 40.5t-10.5 29.5q-4 8 -10.5 19t-8.5 15q-6 8 -15.5 17t-21 18t-22.5 17.5
t-19 14.5zM257 404q2 -2 6 0.5t1 5.5q-2 1 -6 -1.5t-1 -4.5z" />
    <glyph glyph-name="o_h" unicode="oh" horiz-adv-x="603" 
d="M641 164q7 -4 0 -14t-20 -21t-26.5 -20t-18.5 -12q-12 -7 -30.5 -15.5t-38 -14t-37 -5.5t-27.5 10q-2 2 -6.5 3t-6.5 3q-3 3 -7.5 17t-8.5 29t-7 27.5t-4 12.5q-6 2 -16.5 -15.5t-21 -41t-19.5 -46.5t-12 -32q-5 -12 -11 -34.5t-13.5 -44t-17 -38t-21.5 -17.5t-20.5 7
t-15 21t-10.5 29.5t-6 34.5q-5 36 -6 81t-0.5 91.5t3 92t4.5 83.5q3 38 9 77.5t11 81.5v6v10v9t-1 5t-7 -11t-13 -27.5t-13 -29.5t-7 -17q-8 -15 -14 -24.5t-11 -17.5t-10.5 -15t-11.5 -17q-3 -5 -2.5 -6.5t-2.5 -5.5q-4 -4 -6 -9t-6 -9q-5 -5 -11.5 -14.5t-14 -21
t-15 -23.5t-12.5 -21q-12 -21 -15 -33.5t17 -20.5q16 -7 29 -15t22 -20.5t13 -30.5t1 -44q-2 -22 -11 -44.5t-23.5 -41t-32.5 -29t-39 -8.5q-28 3 -40.5 21.5t-15 45.5t2 58t10.5 59q4 21 7.5 37.5t7.5 29.5t9.5 22t15.5 14q1 1 8.5 3t9.5 4t2.5 8.5t2.5 9.5q5 6 14 16.5
t16 20.5q43 64 83 141t66 158q5 17 11.5 33.5t10.5 33.5q3 12 3.5 26t2 27.5t6.5 24t16 14.5q-1 0 1.5 1.5t6 2.5t8 0.5t8.5 -4.5q6 -6 7 -17t-0.5 -24.5t-4.5 -28t-5 -28.5q-8 -67 -13 -131t-9.5 -128t-8 -129.5t-7.5 -136.5q-1 -19 -4.5 -46.5t-4.5 -57.5q0 -10 3.5 -14
t3.5 -11q0 -2 -1.5 -20.5t-2 -35t1.5 -22.5t10 17q5 14 7.5 29t8.5 32q7 19 11.5 31t7.5 19.5l5 12.5t5 11q3 8 12 28t21.5 39.5t28 33t32.5 9.5q12 -3 17.5 -9.5t8 -14.5t3.5 -16t3 -15q7 -22 8.5 -42t12.5 -26q8 -4 24 1.5t32.5 14t29.5 17t16 10.5q4 4 9 6.5t9 5.5
q0 1 5 6t12 10.5t15.5 8.5t15.5 0zM117 121q-1 11 -7 25.5t-14 26t-17.5 17t-18.5 -1.5q-1 -1 0 -5.5t1 -6.5q0 -1 -3.5 -13.5t-7.5 -30.5t-7 -37.5t-3 -34.5q0 -34 5 -48t13 -13.5t17.5 13t19.5 30.5q11 19 17.5 39.5t4.5 39.5zM239 530q1 -1 4.5 1.5t0.5 5.5
q-1 1 -4.5 -1.5t-0.5 -5.5z" />
    <glyph glyph-name="o_i" unicode="oi" horiz-adv-x="410" 
d="M310 -74q3 -5 8 -6.5t8.5 -2t4 -2t-3.5 -7.5q-5 -8 -14 -6.5t-22 6.5q-14 4 -22 15.5t-12 26t-5.5 31t-1.5 31.5q0 29 0.5 51t1.5 42t2 41t3 49q1 19 3 36t0.5 29t-8 16t-21.5 -2q-31 -13 -57.5 -29t-52.5 -34q-12 -8 -24 -15.5t-12 -9.5q-2 -14 11 -23.5t29 -22.5
q22 -19 28.5 -26t10.5 -17q6 -16 -0.5 -34t-20 -34t-32 -27.5t-34.5 -14.5q-32 -6 -54 6t-30 25t-9 33t2 43t10 46t16 43q4 8 13.5 23.5t21.5 29t25.5 20.5t24.5 0q4 -3 5 -5t-0.5 -5.5t-3.5 -9.5t-4 -17q14 6 24.5 12t20 12t20 12t24.5 13q5 3 18.5 11t30 15t33.5 10t30 -5
q12 -7 14.5 -30.5t0.5 -53t-6 -58.5t-4 -48q-2 -50 -2 -91t8 -67q2 -7 1.5 -13.5t2.5 -11.5zM125 67q5 20 -2 35t-19.5 25t-27 16t-24.5 9v-6q-2 -1 -1.5 -5.5t0.5 -6.5q-2 -6 -5 -16t-5.5 -20t-4.5 -18.5t-2 -12.5q0 -9 2 -19t5 -19t6.5 -15.5t6.5 -7.5q7 -3 17.5 1.5
t21.5 13.5t20 21t12 25zM323 414q9 -14 1 -27.5t-21.5 -20.5t-27 -5.5t-16.5 17.5q-1 3 2.5 12t5.5 12q4 6 7.5 8t11.5 4l4.5 1.5t11 2.5t12.5 0.5t9 -4.5z" />
    <glyph glyph-name="o_l" unicode="ol" horiz-adv-x="422" 
d="M356 689q5 -3 7 -3h2l-1 -1.5t-1 -7.5q-2 -30 -8 -47t-10 -39q-10 -58 -13 -121t-7 -123q-3 -45 -6.5 -94t-6.5 -97.5t-6 -95t-4 -86.5q-3 -70 -6 -131.5t-1 -124.5q1 -14 4 -33.5t5.5 -38t1.5 -32.5t-9 -18q-19 -9 -29.5 5t-15 37t-5.5 47t-1 33q-2 92 -0.5 195t5.5 204
t10 195.5t12 169.5q-16 -26 -34 -54t-37 -56t-37.5 -54.5t-35.5 -49.5l-11 -19q-8 -11 -14 -16.5t-9 -9t-1.5 -7t9.5 -9.5q13 -11 24 -24.5t16 -24.5q4 -8 8.5 -22t6.5 -21q10 -45 -1 -72t-40 -44q-4 -2 -12.5 -6.5t-19.5 -8t-24.5 -5t-27.5 1.5q-28 6 -40 24.5t-13 44
t5.5 54t16.5 54.5q10 25 23.5 53.5t30.5 43.5q10 9 22 8t20 5q2 1 6.5 9t4.5 9q23 32 44 61t40 57q8 13 13 21t9.5 15t9 15t11.5 20l4 6l4 6q3 4 4 7.5t5 7.5q9 11 19.5 27.5t13.5 25.5q1 3 3.5 16.5t6.5 31t9.5 36t12.5 32.5t16.5 20t21.5 -2zM119 54q10 17 9 39.5
t-8.5 43.5t-19 38.5t-21.5 25.5v-7q-6 -2 -4.5 -4.5t-0.5 -7.5q-1 -3 -6.5 -14t-11.5 -27t-11.5 -35t-7.5 -37t0 -33.5t12 -24.5q6 -6 12 -2.5t18 8.5q17 8 25 16.5t15 20.5z" />
    <glyph glyph-name="o_n" unicode="on" horiz-adv-x="647" 
d="M683 162q6 -7 -1 -12t-17 -13q-12 -9 -23 -18.5t-14 -11.5q-10 -6 -22.5 -16t-27.5 -18t-32 -11.5t-35 2.5q-11 0 -18.5 5t-12.5 12.5t-8 15.5t-6 14l-1 6.5t-3 17t-4 22.5t-4 22q-5 21 -16 17t-24 -18t-24 -32.5t-15 -25.5l-16 -32q-3 -8 -7 -20t-9 -24t-11.5 -20.5
t-15.5 -8.5q-18 -1 -27.5 13.5t-13.5 37t-4 50t2 52.5q1 21 4.5 41t7 36.5t6 27t1.5 11.5q-2 2 -18.5 0t-36 -5.5t-35.5 -7t-17 -3.5q-3 -1 -18 -4t-32 -7.5t-31.5 -10t-18.5 -11.5q-5 -8 -2.5 -12.5t9.5 -7.5t16.5 -7t19.5 -10t21.5 -14.5t21.5 -19.5t15.5 -27t2.5 -37
t-17.5 -36.5t-35.5 -24t-44.5 -9.5t-44 7t-36 25t-18.5 45q-1 10 1 24.5t6 29.5t8.5 30t9.5 26l6 15t5 8t7 5.5l12 7.5l7 7t6 5q6 2 17.5 4t24.5 4t24.5 3.5t18.5 1.5q22 4 37 7.5t27 6.5t23.5 5t27.5 3q20 2 36 5t31 -9q10 -8 10.5 -30.5t-3 -49.5t-8 -52.5t-5.5 -38.5
q0 -2 0.5 -9t0.5 -14v-13t-1 -7q3 0 7 8l5 10q9 17 16 31t15 25.5t18 22t25 19.5q4 3 9.5 8t12 8.5t16 5t23.5 -2.5q10 -3 14.5 -9t7.5 -14.5t6 -21t8 -29.5q9 -27 15 -42.5t15.5 -18.5t26 6t47.5 31q5 1 15.5 11t22 20t21.5 15t15 -3zM152 125q0 16 -11 31.5t-25 26.5
t-28 15.5t-21 -0.5q-2 -1 -0.5 -5.5t0.5 -6.5q-5 -8 -11 -20t-8 -29q-1 -14 -0.5 -28.5t4.5 -26.5t11.5 -20t21.5 -10q13 -2 28 6t20 13q13 12 16.5 23.5t2.5 30.5z" />
    <glyph glyph-name="o_n_t" unicode="ont" horiz-adv-x="799" 
d="M786 455q11 0 26 0.5t29 -1t24 -6.5t11 -15q0 -2 -11 -2.5t-26.5 -1t-33 -0.5t-29.5 -1q-23 -1 -43 -0.5t-24 -3.5q-1 -1 -1.5 -18.5t-0.5 -40t-0.5 -43.5t-1.5 -29q-5 -77 -7 -152t-4 -155q0 -37 -1.5 -74t-1.5 -73.5t2.5 -72.5t10.5 -70q0 -1 1.5 -5t-3.5 -7
q-17 -8 -27.5 5t-15.5 35.5t-7 47.5t-2 40q-4 21 -4.5 68.5t0 106.5t2.5 122.5t4.5 116.5t4 87.5t2.5 37.5q-2 0 -8 -16.5t-13 -37t-13 -38.5l-7 -21q-11 -26 -17.5 -39.5t-13 -25.5t-14.5 -28t-21 -49q-6 -10 -13.5 -26.5t-18 -30.5t-24.5 -23t-32 -4q-24 7 -32 25t-10 44
q-2 18 1.5 34t7 29.5t4.5 23t-6 13.5q-5 3 -16 -10t-23 -30.5t-21.5 -33.5t-11.5 -19q-8 -15 -13.5 -31t-12 -30t-14.5 -23t-20 -9q-37 0 -56 48q-3 8 -2 19t-2 22q-4 18 -7 41t-4 49q0 15 -0.5 30.5t-4 27.5t-13.5 17.5t-29 -0.5q-6 -2 -8.5 -2.5t-5 -1.5t-6.5 -3l-12 -6
q-7 -4 -17.5 -7t-19.5 -9t-15 -15.5t-3 -25.5q1 -8 7.5 -13t15.5 -9.5t19.5 -8.5t19.5 -11q14 -10 24 -18.5t15 -17.5t4 -20.5t-10 -26.5q-5 -9 -8.5 -14t-9 -9t-12.5 -7.5l-17 -8.5q-14 -6 -33.5 -10t-39.5 -2.5t-38 8.5t-28 22q-7 11 -10 37t3 56q4 22 12 43.5t18.5 39
t22 30t23.5 15.5q8 3 12.5 1t8 -5.5t6.5 -7t8 -3.5t13.5 4t17.5 9.5l18 11t16 7.5q5 2 11 2.5t8 1.5l24.5 7t31.5 1q18 -6 26.5 -18.5t12 -29t3.5 -35.5t2 -36q0 -2 1.5 -14.5t3.5 -29.5t4 -35.5t4 -31.5q3 -7 7 -4t8.5 10.5t8.5 17t7 14.5q10 18 18.5 32.5t11.5 19.5
q5 7 14.5 20.5t22 24.5t27 17t29.5 -2q12 -6 16 -22.5t4 -36.5t-2 -39.5t-2 -31.5q0 -11 -2 -25.5t3 -17.5q6 -4 16 7t20 26t18 29.5t10 17.5q14 26 29.5 60t30.5 72t29 79t25 81q1 4 0.5 9.5t1.5 8.5q3 2 -1 1.5t-11.5 -1t-17.5 -1.5t-19 -1q-11 -1 -32 -2t-46.5 -2.5
t-53 -2.5t-52 -2.5t-43 -2.5t-25.5 -1q-6 -1 -8.5 -1.5t-4.5 -1t-5.5 -1t-12.5 -0.5q-1 0 -6 0.5t-10 1.5t-9.5 1h-4.5q-3 -8 8 -7.5t26.5 2.5t30.5 3t20 -5q5 -7 -2 -11t-18 -5.5t-24 -2t-20 -1.5q-14 -1 -24 -1t-17.5 1t-15 1t-16.5 -1q-13 -1 -35 -5t-44 -6.5t-40 -1
t-22 12.5q-2 3 10 9t28 11.5t31 9.5t21 5q20 4 35 5.5t27 1.5h23.5t25.5 2q20 3 60 6t85 6t87.5 5.5t68.5 4.5q7 0 17.5 1t20.5 2q11 1 23 2l0.5 11t1.5 25.5t2.5 28t3.5 18.5q0 2 -0.5 6.5t1.5 5.5q2 2 10 5t13 1q13 -3 18.5 -12t6.5 -22t-1 -28.5t-4 -31.5l6 -0.5
t14.5 -0.5h18h15.5q11 0 14.5 0.5t2.5 0.5h2zM161 87q0 14 -13 26t-30 20.5t-32.5 14.5t-20.5 8q-4 2 -2.5 4t-4.5 -3q-1 -2 -0.5 -6t-0.5 -6q-5 -14 -8 -33t-3 -37.5t4.5 -33.5t16.5 -20q8 -3 17.5 -1t18 6t14.5 8.5t8 6.5q3 3 9 7.5t12 11t10.5 13.5t4.5 14zM271 393
q15 0 14 1.5t-7.5 2.5t-14 1t-4.5 -4q1 -1 6 -1h6zM228 391q1 -2 4.5 -1.5l7 1t6 2t1.5 2.5t-4.5 1t-7 -0.5t-6 -2t-1.5 -2.5zM203 387q2 -2 5.5 0.5t1.5 4.5q-1 2 -5 -0.5t-2 -4.5z" />
    <glyph glyph-name="o_o" unicode="oo" horiz-adv-x="450" 
d="M495 160q2 -9 -19 -18t-50.5 -15t-58.5 -6.5t-43 8.5q6 -15 11 -25t8.5 -18t4.5 -16.5t0 -21.5q0 -5 -3.5 -15t-9.5 -21.5t-15 -22.5t-21 -17q-29 -15 -49.5 -13t-34 14.5t-19 32.5t-3.5 42q2 18 6 41t12 46q2 5 7.5 18t11.5 26.5t11.5 24t8.5 11.5q-1 1 -13 1t-29 -1
t-37.5 -2t-37.5 -2.5t-29 -3t-13 -2.5q-2 -5 0.5 -6.5t5.5 -4.5q9 -11 16 -18.5t14 -16.5q18 -27 19.5 -68t-8.5 -80.5t-28 -70t-38 -35.5q-20 -6 -36 -1t-28 15t-19 23t-10 24q-2 7 -2 19v26t0.5 28t1.5 25q2 18 9 46.5t17.5 56t24.5 49t30 24.5q10 2 15.5 0t9 -5t6 -6.5
t5.5 -4.5q2 -1 23 0.5t42 2.5q16 1 34.5 3t36.5 2t32.5 -2.5t22.5 -9.5q7 -6 6.5 -12.5t-4 -12.5t-7 -11t-1.5 -9q2 -7 11.5 -13t22 -11t26.5 -8t25 -4q10 0 23 1t25.5 3.5l22.5 4.5t13 3q4 1 10 5.5t13 7.5t13 3t9 -7zM121 67q2 18 -1.5 34.5t-10.5 31t-15.5 26.5t-15.5 20
q-3 4 -2 3t-4 -3q-6 -3 -8 -8.5t-2.5 -11.5t-0.5 -11.5t-1 -9.5q-10 -34 -17 -65.5t-7 -66.5v-12.5t1 -26t3.5 -27t7.5 -15.5q13 -9 25.5 5.5t22.5 39.5t16.5 52.5t8.5 44.5zM299 12q20 30 16 57.5t-22 49.5q-8 9 -11.5 13.5t-5 5.5t-2.5 -0.5t-5 -3.5q-2 -2 -3.5 -10
t-3.5 -10q-5 -17 -10.5 -34.5t-7.5 -31.5q-2 -30 1.5 -46t11.5 -20t19 3.5t23 26.5z" />
    <glyph glyph-name="o_s" unicode="os" horiz-adv-x="503" 
d="M539 165q7 -4 5.5 -8.5t-7 -8.5t-11.5 -7l-6 -3q-7 -3 -26 -15.5t-39 -26.5t-35.5 -25.5t-14.5 -14.5q1 -1 2.5 -9.5t3.5 -19.5q2 -16 2.5 -30.5t0.5 -19.5q3 -36 -4 -75.5t-22 -75.5t-37.5 -67t-50 -51.5t-59.5 -28t-66 3.5q-10 3 -14 5.5t-6.5 4.5t-4 4.5t-5.5 5.5
l-21 18q-13 12 -20 32t-8.5 41t1 40t9.5 30q8 14 23 30t30 30q25 22 56 46t59 42q8 5 21 12t26 14.5t22.5 14.5t10.5 11q0 2 -3.5 9t-9.5 16.5t-12.5 21.5t-11.5 25q-10 22 -16.5 36.5t-12.5 26.5t-12.5 23t-16.5 28q-4 6 -8 16t-7.5 20t-7 18t-6.5 9q-1 0 -9 -5.5
t-17.5 -12.5l-19 -14t-13.5 -9q-14 -10 -20.5 -16t-15.5 -14q-8 -5 -23.5 -18t-24.5 -24q-7 -9 -9 -15.5t-2 -8.5h21t26.5 -2t25.5 -7.5t20 -18.5q8 -12 8.5 -29.5t-2.5 -34.5t-8 -30.5t-8 -17.5q-10 -12 -21.5 -28.5t-22.5 -25.5q-16 -14 -34.5 -17.5t-35.5 2t-31 19
t-20 33.5q-3 10 -2 31.5t3.5 43t5.5 38l3 16.5q-2 2 -9 2.5t-6 4.5q1 7 12.5 19t20.5 29q8 14 10.5 24.5t6.5 18.5q2 4 1 9.5t1 8.5q2 2 3.5 5.5t3.5 4.5q2 2 4.5 1t4.5 1q13 12 28.5 10t20.5 -18q1 -2 -0.5 -7t-2.5 -5q11 -1 25.5 11.5t33.5 26.5q8 6 20 14t17 13
q6 6 10.5 10l9 8t8 9.5t6.5 14.5q6 17 11.5 29.5t15.5 20.5q12 10 29.5 14.5t29.5 -6.5q9 -9 4 -19.5t-15 -20.5t-20 -19t-10 -13q-1 -6 4 -20t13 -33t19 -41.5t22 -45.5q26 -54 61 -119q3 -1 8.5 3t13.5 10t18 12.5t21 10.5q5 4 15.5 12t22.5 15.5t24 11.5t19 0zM352 -114
q8 32 12.5 64t-2.5 70q-2 11 -3.5 8t-3.5 -2q-5 2 -7 -1.5t-4 -4.5q-6 1 -18 -4.5t-27.5 -14.5t-32.5 -20.5t-32 -21.5q-10 -7 -26 -20.5t-31.5 -29.5t-28 -31.5t-16.5 -26.5q-6 -16 -7 -36.5t4 -40.5t14.5 -37t24.5 -24q16 -8 32 -4.5t33 8.5q14 9 25 17q10 7 17.5 12
t8.5 6q8 7 12.5 17t12.5 21q17 25 26 45.5t17 50.5zM140 143q-13 17 -33 16.5t-34 -8.5h-3q-1 0 -3 1q-1 -4 -4 -19t-5.5 -34.5t-4 -40t0 -35.5t8 -20.5t20.5 4.5q13 9 23.5 18.5t16.5 18.5l9 18t10.5 27t5.5 29.5t-7 24.5zM75 176q0 -1 1 0h-1z" />
    <glyph glyph-name="o_t" unicode="ot" horiz-adv-x="480" 
d="M736 455q1 -7 -1 -13.5t-7.5 -12t-13 -7.5t-16.5 0q-11 3 -11.5 8t1 11t2 13t-8.5 13q-5 3 -16.5 5t-25 3t-25.5 1.5t-18 0.5q-13 0 -43.5 -1.5t-58.5 -3.5q-29 -2 -55 -0.5t-34 -4.5q-5 -3 -10 -27.5t-9.5 -55t-8 -60t-4.5 -44.5q-5 -56 -6.5 -105.5t-5.5 -102.5
q-4 -46 -6.5 -75t-4 -48.5t-2.5 -33t-1 -27.5t0.5 -32.5t2.5 -48.5q1 -23 3.5 -40.5t4.5 -34.5q2 -13 7 -28.5t6.5 -27.5t-4 -17.5t-24.5 1.5q-8 3 -15 16t-13 30.5t-10 34.5t-5 28q-3 26 -6.5 55.5t-3.5 61.5v78t1 56.5t3 46.5t4.5 47.5t5.5 59t7 81.5q1 16 3 39t5 47.5
t6.5 48.5t7.5 42q1 6 2 11.5t1 8.5t-3 2t-9 -8q-26 -26 -52 -58.5t-52 -62.5q-5 -5 -8 -8.5t-5 -5.5l-5 -5q-15 -19 -27.5 -34t-25 -29t-27 -28.5t-32.5 -31.5q-10 -10 -6 -15t14 -9t22.5 -9.5t19.5 -15.5q16 -23 17 -53.5t-7 -52.5q-3 -8 -12 -22t-23 -25.5t-32 -17
t-40 3.5q-26 11 -37.5 43t-11.5 73q0 11 -0.5 27t3.5 32q2 11 7 19.5t9 17.5q4 10 10.5 14t13.5 5t13.5 1t10.5 2q12 7 27 20t22 22q13 6 26 18.5t25.5 27.5t24 30.5t21.5 27.5l62 74l2 4t5 9.5t4.5 10t0.5 5.5q-2 2 -12 1.5t-23.5 -2t-27 -4t-22.5 -3.5q-26 -4 -47.5 -7
t-56.5 -6q-14 -2 -36.5 -6.5t-46.5 3.5q-13 4 -16.5 6.5t-10.5 14.5q-3 5 -0.5 8.5t6.5 5.5t8.5 2.5t7.5 -0.5q12 -3 14 -6.5t1.5 -6.5t-1 -5t6.5 -3q9 -1 24 1.5t34.5 6t41 7.5t42.5 7q18 3 35 5.5t35 4.5q22 3 41 4t29 6q11 6 19.5 22t16.5 30q10 16 15.5 30t10 28.5
t9 30.5t13.5 36q3 6 4.5 11t3.5 8.5t6.5 5.5t12.5 4q2 1 11.5 4t19.5 -7q2 -3 -2 -5q-2 -1 -4 -1q1 -22 -8 -45.5t-17 -49.5q-1 -3 -2.5 -14t-3.5 -24.5t-4 -26.5t-3 -19q4 -5 23.5 -5t44.5 1.5t50 4t40 2.5q33 0 68.5 -3t65.5 -18q10 -5 23 -10t16 -19zM123 105
q-4 13 -13 22t-19 14t-18 7t-9 1q-6 -3 -11.5 -26.5t-6 -51t4.5 -52.5t20 -31q8 -3 12 2.5t6 7.5t5 4.5t4 4.5l9 11q5 6 9.5 17.5t7 24t2.5 24.5t-3 21z" />
    <glyph glyph-name="o_u" unicode="ou" horiz-adv-x="526" 
d="M558 165q3 -3 0 -10.5t-8 -17t-11 -19t-10 -15.5q-16 -27 -40.5 -58t-49.5 -47q-14 -9 -27.5 -8t-24.5 6q-14 6 -21.5 24.5t-4.5 62.5q-1 5 -1 14v18.5t0.5 18t0.5 12.5l-4.5 -6.5t-9 -14t-8 -13t-3.5 -4.5q-5 -9 -6.5 -12.5t-2 -6t-2 -5t-6.5 -8.5q-2 -3 -9 -11t-12 -10
q-16 -8 -29 -5.5t-23 10.5t-16.5 20t-8.5 23q-1 6 0 23t1.5 36.5t1 36t-2.5 19.5q-5 6 -17 6t-24.5 -3t-24 -7t-16.5 -5q-5 -2 -17.5 -4t-25.5 -5t-23 -7t-11 -8q-2 -8 7 -10.5t12 -4.5q19 -11 39 -22.5t24 -30.5q2 -14 -3 -28t-14 -26t-19 -20.5t-17 -11.5q-27 -11 -46 -7
t-31 17.5t-17 33.5t-3 42q1 13 4 28t7 29t10 26t13 18t16.5 9.5t16 2.5t8.5 -7t-7 -19q23 8 45.5 13t45.5 11q7 1 19 4.5t25 5.5t25 1.5t18 -6.5q2 -2 7.5 -2.5t7.5 -2.5q4 -6 5 -17.5t0.5 -25t-1.5 -28t0 -25.5q2 -19 5.5 -39t9.5 -24q6 -5 14.5 1t17 17.5t15.5 24t9 20.5
q6 12 10.5 26t9 26t10.5 19t15 6q15 -2 19.5 -20t4.5 -42t-1.5 -49t1.5 -43q4 -21 10 -30.5t14 -10t18 6.5t21 19q11 11 18.5 21.5t14.5 21.5l29 44q6 8 10 22t10 16q1 1 7 1t7 -1zM120 112q-1 10 -11 20.5t-22.5 19t-24 12.5t-15.5 1q-3 -2 -5.5 -10.5t-4.5 -18.5t-3 -19.5
t-1 -13.5q0 -8 2 -18t5 -20t6.5 -17t5.5 -8q6 -3 13 -0.5t13 7t10.5 9.5t7.5 8q8 8 17 21t7 27z" />
    <glyph glyph-name="o_w" unicode="ow" horiz-adv-x="542" 
d="M452 236q13 -36 13 -80t-11.5 -82t-34 -63.5t-52.5 -23.5q-15 1 -26.5 11t-20 24.5t-14 32t-8.5 34.5q-1 7 -1 16t-1 15t-3 5t-7 -15q-3 -8 -9 -22t-14 -28t-20 -24t-27 -10q-21 1 -32 15t-15 34t-3 43t4 43q1 6 3 17t4.5 22t3.5 19.5t0 9.5q-2 1 -11.5 -1.5t-21.5 -6.5
t-23 -8.5t-15 -5.5q-10 -4 -24 -8.5t-26 -10.5t-17.5 -13t1.5 -15q3 -3 8 -4.5t8 -4.5q8 -8 16.5 -17.5t15 -22.5t10 -30t2.5 -40q-2 -20 -9.5 -41t-21 -36t-31.5 -20.5t-40 7.5q-11 7 -20 34.5t-7 69.5q1 21 8 45.5t14 46.5q8 29 13 46t25 25q11 4 14 3t3 -4.5v-7.5t5 -5
q4 -1 16.5 6t25.5 12q12 4 31.5 11t40 12t37.5 5t23 -10q3 -5 1 -16.5t-5.5 -26.5t-7 -32t-4.5 -32v-16v-23t1 -22t4 -13q4 -6 10.5 3t13.5 22.5t12 27.5t7 18l19 44q4 7 6 13t4.5 10t7 5.5t13.5 -0.5q12 -3 16 -16.5t4.5 -32.5t0 -40.5t2.5 -40.5q4 -23 16.5 -45t19.5 -24
q11 -2 21 18t18 48q7 24 10.5 53t2.5 57.5t-8.5 55t-22.5 46.5q-9 11 -17.5 16t-19.5 9q-7 3 -7 6q-1 2 0 4l4 3q8 3 20.5 2t23.5 -8q6 -3 14 -10.5t16 -17.5t15 -22.5t10 -26.5zM75 72q-2 25 -16.5 45.5t-24.5 26.5v-5q-4 -3 -7 -16t-5 -28t-3 -27.5t-1 -14.5
q-1 -19 0.5 -40t5.5 -34.5t11 -14t19 20.5q10 19 16.5 43.5t4.5 43.5z" />
    <glyph glyph-name="s_h" unicode="sh" horiz-adv-x="709" 
d="M730 166q13 -3 10.5 -10.5t-11.5 -17t-20.5 -19t-17.5 -14.5q-5 -5 -15.5 -12t-23.5 -14t-27.5 -12t-26.5 -5q-20 -6 -36 -3t-28.5 11t-21.5 18t-16 17l-6.5 13.5t-13.5 29.5t-13.5 29.5l-6.5 13.5q-5 1 -15 -14t-21.5 -34t-21.5 -37.5t-13 -24.5q-1 -2 -7.5 -19.5
t-17.5 -37t-24.5 -33.5t-27.5 -8q-10 4 -14 15t-5.5 25.5t-1 31.5t0.5 32q-1 24 1 58t3 70q0 7 1 34.5t2.5 60t3.5 61t5 37.5q-1 1 -4 -10.5t-7.5 -28.5t-9.5 -38t-9 -39.5t-7.5 -32t-3.5 -15.5q-5 -18 -11.5 -43.5t-11.5 -39.5q-9 -30 -18.5 -60.5t-21.5 -60.5
q-5 -12 -9.5 -26t-4.5 -25q1 -11 8.5 -20t14.5 -23q13 -24 24 -60t15.5 -76.5t-1 -81.5t-24.5 -75q-8 -13 -18.5 -27t-24.5 -25t-33 -17t-43 -4q-29 2 -44 16.5t-20.5 36t-3 48t10 54.5t17.5 54t19 47q8 20 21.5 45.5t24.5 52.5q5 11 9.5 19.5t4.5 11.5q0 7 -6 15.5t-14 17
t-15.5 16t-11.5 12.5q-9 11 -25 28.5t-25 28.5q-11 15 -22.5 30t-21.5 32t-16 36t-5 40q1 11 4 20.5t3 10.5q5 17 15 26.5t24 22.5q16 15 35.5 14.5t33.5 -8t19.5 -18.5t-6.5 -16q-9 -5 -14.5 -0.5t-10.5 8.5t-12.5 3.5t-21.5 -14.5q-8 -8 -10.5 -21t-1.5 -28t5 -30t9 -25
q2 -5 9.5 -17t12.5 -19q7 -9 9.5 -13.5t10.5 -13.5q6 -8 14 -16t20 -25q3 -4 5.5 -7t4.5 -8q7 -11 11.5 -18t13.5 -15q3 6 7.5 17t9 23.5t9 25.5t8.5 25q13 40 27.5 94t29 112t26 116t18.5 106q4 31 6 62t4.5 60.5t7.5 56t15 47.5q4 9 4 8.5t8 3.5q16 7 24 1.5t12 -31.5
q1 -6 1 -16t-1 -21t-3 -19.5t-6 -11.5q-4 -2 -5.5 -10t-2.5 -14q-4 -20 -2.5 -34.5t1.5 -32.5q0 -40 -1 -90t-3 -104t-5 -109.5t-6 -106.5q-1 -7 -1.5 -21t0 -29t1.5 -28t3.5 -18t7 0.5t11.5 28.5q8 15 20 36.5t25 42t26 35t25 15.5q18 1 29 -8.5t18 -25t13 -34t14 -35.5
t19 -29t30 -15q17 -2 36 1.5t32 11.5q3 2 9 8.5t10 8.5q13 7 23 16.5t17 17t11 12t5 3.5zM206 -298q7 32 5 69t-10 70t-19.5 59t-22.5 37v-6q-1 -3 -3 -6l-4 -6q-10 -21 -26 -54t-31 -69q-6 -15 -12.5 -34t-11 -38.5t-7 -38t-0.5 -32.5q5 -38 28 -48.5t50 5.5l17.5 10.5t2 2
t-1.5 2t7 10.5q12 14 23.5 32t15.5 35z" />
    <glyph glyph-name="s_s" unicode="ss" horiz-adv-x="313" 
d="M344 162q2 -5 -4 -11.5t-14.5 -12.5t-16.5 -10.5t-9 -5.5q-5 -3 -12 -8t-15 -10t-14.5 -9.5t-8.5 -4.5q3 -9 0.5 -29t-11.5 -39.5t-25.5 -33t-41.5 -9.5q1 0 -2 1.5t-8.5 4t-10.5 7t-7 10.5q-4 13 0 23.5t12 19t18.5 15.5t18.5 13q14 8 19 11t-1 20q-5 17 -15 35.5
t-21 35.5l-8 13q-3 5 -6 9q-6 8 -6 10q-4 -5 -11 -15.5t-13 -18.5q-10 -14 -19.5 -28t-20.5 -28q-9 -11 -15 -16t-7 -11q-2 -7 0.5 -16.5t6 -20t6.5 -20.5t4 -18q3 -26 -1.5 -52.5t-13 -50t-19.5 -41.5t-23 -25q-4 -2 -5.5 -2t-3.5 -3q-9 -8 -23.5 -9.5t-29.5 3t-26.5 13
t-14.5 20.5q-4 15 -2 29.5t6.5 27.5t11 24.5t11.5 20.5q7 11 10.5 18t10.5 16q2 3 5 8t5 7l36 40q3 4 6 7q2 2 4.5 4t2.5 3q1 5 -4 17t-12 26t-14 27t-10 19q-8 14 -17 28.5t-15.5 31t-9.5 35.5t2 42q1 3 0 6.5t1 7.5t6 9.5t6 8.5q3 3 9 6t13.5 5.5t14.5 4t12 1.5
q14 1 22.5 3.5t13.5 -11.5q2 -9 -1.5 -12.5t-9.5 -5.5t-13 -3.5t-12 -5.5q-3 -2 -5 -7t-5 -7q-3 -5 -6.5 -7t-5.5 -10q-5 -23 5.5 -46t21.5 -43q4 -8 8.5 -19t9.5 -21q0 -1 2.5 -7t5.5 -13.5t6 -13.5l3 -6q4 -2 10.5 3.5t14 14t14.5 18t13 17.5q4 5 7 10t8 11q3 3 7 8.5
t7.5 11t6 9.5l2.5 4q-2 4 -6 13t-6.5 19.5t0.5 19t16 10.5q14 3 21.5 -2t9.5 -7q4 -5 -1 -15t-4 -16q1 -2 3.5 -7.5t5.5 -10.5q10 -15 24.5 -36t24.5 -44q6 -13 8 -21.5t5 -11.5t8.5 -0.5t18.5 11.5q13 8 19.5 11.5t17.5 11.5q1 1 3.5 4t5.5 5q8 5 15 10t10 -2zM51 -47
q2 26 -1 52t-8 41q-2 6 -4.5 3t-4.5 -3q-4 0 -5.5 -3.5t-3.5 -5.5q-8 -10 -21 -26t-25 -35.5t-20.5 -40.5t-8.5 -40q0 -18 3.5 -31.5t22.5 -17.5q13 -3 25.5 5.5t23 23.5t18 35.5t9.5 42.5zM202 24q3 7 9 19.5t4 20.5q0 2 -5 -1.5t-3 -3.5q-5 1 -14.5 -8.5t-12.5 -13.5
q-5 -8 -9 -21.5t4 -18.5q4 -2 8 1t8 8t7 10.5t4 7.5z" />
    <glyph glyph-name="t_h" unicode="th" horiz-adv-x="680" 
d="M711 165q4 -2 4 -7t-2.5 -10t-6 -9t-4.5 -5q-13 -11 -17 -14.5t-6 -6.5t-5 -8t-15 -20q-19 -23 -47 -34.5t-57 -1.5q-9 3 -16 11t-12.5 18t-9 20.5t-6.5 17.5q-1 1 -5 11.5t-2 11.5q-6 2 -11 -3.5t-9 -13t-6 -15t-3 -9.5q-17 -40 -30 -75.5t-24 -71.5t-21 -73t-21 -80
q-4 -15 -8.5 -35t-10.5 -36.5t-15.5 -27t-24.5 -5.5q-12 5 -17 25t-9 55q-2 21 -3.5 46.5t-2.5 51t-0.5 49.5t1.5 42q4 64 5 120t2.5 112t3.5 116.5t7 134.5q-20 -72 -38.5 -137.5t-37 -127.5t-37 -121.5t-39.5 -120.5q-7 -21 -14.5 -45.5t-17.5 -46t-22 -35.5t-28 -14
q-20 0 -31.5 16t-18 41.5t-10.5 58.5t-7 69q-8 90 -5.5 169t4.5 153v15.5v34t0.5 33.5t0.5 14q-2 3 -16.5 -1.5t-29.5 -9.5t-30.5 -8t-23.5 -5q-12 -3 -32 -5t-33 -0.5t-11.5 7t32.5 17.5q6 2 19 5.5t27.5 7t28.5 6.5t22 5q17 4 30.5 3t16.5 3q3 3 2.5 22t1.5 39
q3 21 4 35.5t2 27t2.5 25t4.5 29.5q2 6 7 19t9 23q2 6 10.5 10.5t13.5 2.5q9 -3 12 -14t2.5 -25.5t-2.5 -31.5t-3 -33q0 -6 -1.5 -25t-2.5 -39t-2 -35.5t0 -16.5q17 2 33 4t18 3q19 3 30.5 5t21.5 4t21.5 3.5t30.5 4.5q5 1 13.5 1.5l17 1t15.5 1.5t9 2q5 3 8 11t5.5 17.5
t4.5 19.5t4 19l28 110q4 15 5.5 34t4.5 35.5t9.5 26.5t20.5 8q11 -2 14.5 -5.5t3 -9.5t-2 -14.5t-1.5 -19.5q0 -19 1 -39.5t0 -35.5q0 -8 -2.5 -30t-5.5 -46t-5 -43t-1 -19q1 -2 8 -1.5t16 1.5t19 3t18 3q15 2 23 3t13.5 1.5t10.5 0.5t14 1q13 1 31.5 3.5t36 3t31.5 -2
t17 -10.5q3 -6 -2.5 -10.5t-13 -7t-15.5 -4.5t-11 -3l-7 -4.5t-16 -9t-18 -7t-14 2.5q-4 4 5 9t21 10t21.5 10t6.5 8q-2 2 -17.5 0.5t-33.5 -4.5t-32 -6l-14 -3q-8 -1 -23 -1.5t-30.5 -2t-28 -3.5t-15.5 -5q1 1 0.5 -4t-2.5 -13l-4 -20q-2 -17 0.5 -38t1.5 -35
q-1 -29 -3.5 -74.5t-5 -93.5t-4.5 -91.5t-3 -70.5q0 -24 1.5 -47.5t0.5 -31.5q0 -11 -1.5 -29t-3 -36.5t-1.5 -33t3 -17.5q1 -1 3.5 5.5t5.5 15t6 15.5l3 7q7 23 14.5 47.5t15 47t14.5 42t12 34.5q5 14 13 39t19 48.5t25 39.5t31 13q13 -3 24 -19t20.5 -35t18.5 -36t19 -20
q5 -2 13.5 3.5t17 12t15.5 13t9 8.5q5 4 12.5 15t16.5 21t18.5 16.5t17.5 2.5zM277 432q2 10 -2 12t-10.5 1t-13.5 -3t-11 -2q-20 2 -40 -2.5t-51 -10.5q-11 -2 -25.5 -4t-28 -3.5l-22.5 -2.5t-10 -2q-2 -9 -3 -30t-1.5 -47.5t-1 -54.5t-1.5 -51q-2 -25 -2 -56v-62.5
t0.5 -61.5t1.5 -52v-43t1.5 -56t6.5 -49.5t15 -22.5q7 8 11 14t7 9q2 2 3 4l16 37q10 23 14.5 39.5t10.5 33.5l12 40q5 12 8 23t5 20q15 48 31 102.5t28 99.5q3 12 6 21.5t5.5 18t5 17.5t5.5 21q8 26 16.5 54.5t13.5 48.5z" />
    <glyph glyph-name="t_t" unicode="tt" horiz-adv-x="474" 
d="M586 556q14 -13 18.5 -21.5t1 -11.5t-14 -0.5t-25.5 13.5q-1 0 -5 4l-5 5q-7 3 -12 5.5t-13.5 3.5t-24 2t-42.5 1q-38 1 -49 0t-15 -4q-5 -4 -8 -33t-4.5 -65.5t-2 -73t-1.5 -56.5q-1 -14 -2.5 -38t-3.5 -49.5t-3.5 -49t-2.5 -36.5q-1 -31 1 -69t0 -74q-1 -36 -1.5 -49
t-0.5 -20t0.5 -18t1.5 -43q2 -38 1 -75t10 -69l5 -9t10 -21t9 -23t3 -13q-6 -8 -23.5 -0.5t-31.5 19.5q-15 14 -24 36t-13.5 47t-6 51.5t-1.5 49.5q0 10 -2.5 31t-3.5 38q-4 91 -2 190.5t9 202.5q0 -3 1.5 4.5t3.5 19t4.5 24t3.5 20t0 7.5t-5 -13q-3 -6 -5.5 -20t-5.5 -30.5
t-6 -33.5t-5 -28q-7 -36 -17 -83t-22.5 -97t-28 -98t-35 -85t-43 -58.5t-51.5 -18.5q-33 4 -52.5 34.5t-30 73.5t-14.5 91.5t-5 88.5q0 17 0.5 47.5t2 64.5t4 67t5.5 57q1 4 2 17.5t2.5 31t3 37t2.5 35.5t2 26.5l1 10.5q-13 2 -28.5 1t-52.5 -5q-11 -2 -30 -5t-38.5 -4.5
t-35 0.5t-19.5 11q-4 8 5.5 11t21.5 8q20 8 50.5 17.5t65.5 7.5q10 0 14 -2.5t5.5 -5.5t2 -5.5t3.5 -3.5q-1 0 4 0.5t11.5 1t13.5 1.5t10 3q3 3 5.5 14t4 26.5t4 34t5.5 36.5q7 30 13.5 58t13.5 46l2 8l8 2q13 4 19.5 1.5t8.5 -9t1.5 -17.5t-1.5 -24q-1 -29 -7.5 -53.5
t-11.5 -57.5q-2 -9 -3 -21t-1 -13q-2 -5 -3 -14t0 -10q3 -3 14.5 -3t24 0.5t23.5 2t14 1.5q20 1 27.5 2t13.5 1.5t15.5 1t34.5 1.5q7 0 16.5 0.5t19 1.5t17.5 2t11 3q16 9 19.5 34t8.5 49q2 7 1 21t0 20q1 7 3.5 15t7.5 14.5t13 10t19 1.5q12 -3 16.5 -12t5.5 -21.5
t-1 -25.5t-2 -23l-6 -63q-1 -6 -3 -10.5t-1 -7t6 -3.5t19 0q9 1 10 1.5t0.5 0.5t2 0t15.5 -1q16 -1 35.5 -1t38 -1.5t35 -6t27.5 -13.5zM212 14q15 38 29 91.5t26.5 111.5t22.5 115.5t17 104t10 77.5t2 36q-1 2 -10.5 0t-18.5 -2q-3 1 -6.5 0.5t-5.5 -0.5q-13 1 -20 1h-14
t-17 -0.5t-29 -1.5q-9 0 -27.5 -2.5t-37.5 -5.5t-33.5 -6.5t-17.5 -6.5q-2 -1 -4.5 -22.5t-5 -49.5t-5 -55t-3.5 -39q-3 -30 -4.5 -72.5t-2 -86.5t0 -83.5t1.5 -63.5q1 -23 3 -49t5 -42q2 -12 6.5 -28t9.5 -31t11 -26t11 -13q11 -4 24 6t27 30t28 49t28 64zM88 588v3v-3z
" />
    <glyph glyph-name="u_t" unicode="ut" horiz-adv-x="591" 
d="M736 432q3 -30 -10 -37.5t-27 -2.5q-8 3 -10 5t-0.5 4.5t3.5 6t1 9.5q-1 7 -1 16.5t-5 14.5q-8 9 -25 12t-37.5 4t-41.5 -0.5t-36 -1.5q-14 -1 -31 -5t-19 -3q-5 -12 -6.5 -46t-3 -74.5t-3 -79.5t-6.5 -61q-2 -49 -4 -86t-3 -73t-0.5 -77t3.5 -98q1 -20 1.5 -36.5
t1.5 -32t3 -31.5t6 -35q2 -8 9 -25.5t10 -31.5t-2.5 -19.5t-28.5 10.5q-14 9 -22.5 30.5t-14 48.5t-8.5 54.5t-4 47.5q-5 60 -9 105t-5.5 89t1.5 94.5t12 121.5v36t-7 -20l-11 -44t-13 -47.5t-13.5 -45t-11.5 -36.5q-9 -27 -19 -55t-21.5 -50t-25.5 -35.5t-31 -10.5
q-19 3 -30 18t-17 35.5t-9 43.5t-6 42q0 3 -2 12t-3.5 19t-2 17.5t0.5 7.5q-5 3 -13 -9.5t-16.5 -30t-15.5 -34t-9 -20.5q-4 -8 -10.5 -20.5t-15.5 -24.5t-20.5 -20.5t-26.5 -7.5q-26 1 -42 22.5t-24 52t-10.5 65.5t-2.5 62q0 12 -1.5 22t-1 17t4.5 10.5t16 3.5
q15 0 22 -12.5t9.5 -30.5t3 -38.5t2.5 -37.5q1 -7 1.5 -11.5t2 -9t3.5 -11t5 -18.5q8 -35 10.5 -43.5t19.5 17.5q7 9 9 14t4 9q11 17 20.5 32.5t21.5 37.5q4 6 9.5 15.5t12 18t15 13.5t18.5 3q17 -3 25 -21t11.5 -42.5t5.5 -51t7 -47.5q4 -15 9.5 -25.5t12 -14.5t13.5 1
t14 22l18 42q11 25 21.5 55.5t20.5 63t19 64t16 59.5q5 18 9 40.5t12 57.5q5 21 9.5 42t2.5 24q-5 7 -31.5 5t-59 -8t-64 -13t-46.5 -10t-27 -5t-23.5 -4t-24 -3.5t-29.5 -3.5q-6 -1 -26.5 -2t-40 0.5t-31 6t-0.5 15.5q11 9 25 -2q5 -5 16.5 -5t26 2.5t30.5 6t30 6.5
q45 8 86 17t98 17q14 2 30.5 3.5t30.5 2.5t24 2t12 2q5 4 7.5 14.5t4 25t3 30.5t4.5 33q6 32 10 55.5t8 40.5q0 1 2.5 6t3.5 6q2 1 7.5 4.5t11.5 -0.5q8 -6 9 -6t3 -13q1 -8 0.5 -19t-2 -23t-3 -22t-1.5 -15q-1 -2 -2.5 -18t-3.5 -37q-2 -14 -5 -30t-2 -18q3 -3 14 -2
t25.5 3t30.5 4.5t29 2.5q39 -1 69.5 -5t52.5 -17q11 -7 17 -12.5t8 -26.5z" />
    <glyph glyph-name="w_h" unicode="wh" horiz-adv-x="617" 
d="M647 164q8 -4 -6 -18q-11 -11 -14 -12t-8 -5q-9 -8 -11.5 -10t-3.5 -3t-2.5 -2t-8.5 -6t-19 -12t-25.5 -12t-27 -6t-22.5 7q-12 9 -16.5 25t-6 31t-1 26t-0.5 11q-4 1 -11 -9t-9 -14q-3 -5 -8 -17.5l-11 -27.5t-11.5 -29.5t-7.5 -23.5q-5 -14 -7.5 -31t-7.5 -34
q-2 -8 -3 -18.5t-2.5 -19.5t-5 -15.5t-10.5 -7.5q-9 -1 -16.5 8t-13 21.5t-9.5 26t-5 20.5q-6 37 -8.5 70t-2 68t4 74.5t8.5 89.5q0 3 1 10t2.5 15.5t2.5 15.5t2 10q5 8 2.5 5t-10.5 -12t-20 -22t-23.5 -25.5t-22 -22.5t-15.5 -13q3 -5 6 -13.5t4 -19t0 -21t-4 -18.5
q-4 -9 -3 -11.5t-1 -8.5q-8 -39 -22 -74.5t-32 -58.5q-5 -6 -12 -15.5t-15 -13.5q-7 -4 -17 -4.5t-20 3.5q-6 3 -11 12t-8 21t-4.5 23.5t-1.5 18.5q-1 7 0 17.5t1.5 20.5t-0.5 17.5t-4 9.5q-2 1 -7.5 -9.5t-12.5 -24t-13 -26t-7 -15.5q-3 -6 -7 -16t-11 -19.5t-16.5 -15
t-23.5 -0.5q-9 3 -14 18.5t-6 37.5t1 47t5 46.5t7.5 37t9.5 18.5t14 4t10 1q11 -3 12 -8t6 -15q0 -1 2.5 -8t3.5 -14.5t-1 -12.5t-11 -3q-1 1 -4 6.5t-5 3.5l-1 -6.5t-2.5 -14.5t-2.5 -15.5t-1 -10.5q0 -6 -1 -19.5t-2 -27.5t-1 -25t1 -12l3 4.5t6.5 10.5t6.5 11t4 7
l10.5 21t9 17.5t10 16.5t13.5 17q3 4 7.5 12t18.5 4q10 -3 13.5 -15t4.5 -28t0 -33.5t1 -30.5q2 -11 4 -25.5t4 -16.5q6 -5 15.5 4.5t19.5 24.5t18 31t11 24l10 28q1 3 4.5 15.5t7 27t5.5 26.5t1 15q-2 9 -9 16t-15 12t-14 9t-6 6q-5 14 1.5 22t12.5 7q2 1 10.5 -2.5
t10.5 -1.5q3 -2 14.5 5.5t27 22t33.5 35t33 44.5q6 10 12 27t9 25q8 49 20 95.5t38 97.5q1 2 6.5 5t7.5 4q1 1 10.5 4t17.5 -4l3 -5q0 -1 0.5 -4.5t0.5 -4.5q2 -13 -4.5 -32t-11.5 -38q-7 -24 -14.5 -48.5t-12.5 -39.5q-9 -30 -15.5 -65t-11.5 -77q-10 -78 -17 -159t-1 -161
q0 1 0 -4.5t2 -7.5q2 -1 4 5t4 11q8 39 19.5 73.5t31.5 66.5q10 16 18.5 29.5t24.5 11.5q11 1 16.5 -4t7.5 -13t1.5 -18t-0.5 -19q4 -17 3.5 -33.5t10.5 -20.5q5 -2 14.5 1t20 8t19 10.5t11.5 7.5q3 3 7 6t9 6q3 3 7.5 9t10 11t12 8t13.5 0z" />
    <glyph glyph-name="o_y" unicode="oy" horiz-adv-x="664" 
d="M774 -82q1 -11 3.5 -23t-9.5 -14q-8 -3 -11 2.5t-5 13.5t-4.5 17.5t-7.5 14.5q-1 1 -7 4t-13.5 6.5t-15 6t-11.5 3.5q-21 4 -28.5 6t-13 2t-15.5 -1t-35 -4q-18 -2 -35.5 -4t-22.5 -6q-1 -8 -4 -22t-6 -29.5t-6 -30t-5 -21.5q-2 -11 -6.5 -24t-8.5 -25q-11 -35 -24 -61.5
t-39 -60.5q-21 -28 -46.5 -53.5t-58 -46t-72.5 -34.5t-89 -18q-14 -2 -37.5 0t-46.5 10q-4 1 -8 1.5t-11 3.5q-13 7 -29 21.5t-25 31.5q-2 2 -4.5 9t-2.5 6q-7 24 -3.5 46.5t12.5 42t21 35.5l21 28q23 28 48.5 52.5t60.5 45.5q13 8 31.5 16t38.5 18q22 11 44 20t45.5 17
t50.5 14.5t60 12.5q5 1 13 2l16 2t14 2t7 2t2 13t2 26.5t1 29v21.5q1 27 0 49.5t-2.5 44.5t-3 46t-1.5 56q0 5 2 10.5t2 8.5t-3 1.5t-13 -11.5q-1 -2 -6 -7.5t-10.5 -11.5t-10.5 -10.5l-5 -4.5q-3 -7 -16.5 -20.5t-30.5 -28t-33 -27t-22 -17.5q-7 -5 -16.5 -12.5t-20 -12.5
t-22 -6t-23.5 7t-15 26t-0.5 39t7 42t6.5 35q2 16 4.5 27t-3.5 17q-8 7 -24.5 3t-35.5 -13t-35.5 -19t-23.5 -15q-5 -5 -10 -9.5t-13 -10.5q-1 -1 -4.5 -4t-7.5 -6.5t-7 -6.5l-3 -3q-13 -14 -21.5 -27.5t-3.5 -24.5q5 -9 19.5 -15t26.5 -11q3 -1 9.5 -3.5t13 -5.5t12 -7
t7.5 -8q4 -14 -5.5 -26.5t-24.5 -22t-32.5 -15t-29.5 -5.5q-17 1 -36.5 11t-25.5 18l-1.5 4.5t-4 11t-5 12t-2.5 7.5q-1 7 1 27.5t8 40.5t17 31t28 -1q2 -2 3 -2q0 -1 -0.5 -1.5t-0.5 -1.5q-4 -13 -1.5 -12.5t8 6t10.5 12.5t6 8q8 9 13.5 14.5t11 10l11 9t14.5 11.5
q7 5 28.5 19t47.5 25.5t51.5 15.5t39.5 -12q11 -12 12 -30t-3 -38t-9.5 -38.5t-6.5 -30.5q-2 -15 -2.5 -26t6.5 -18q5 -5 19 3.5t30.5 23t33 30.5t27.5 27l19 19t17 20q8 11 20.5 25.5t23.5 28.5q5 6 8 11.5t15 7.5q2 0 5.5 3.5t8.5 1.5q10 -4 15.5 -18t9 -32.5t4.5 -38
t2 -33.5q1 -17 1 -39v-45t-0.5 -46t-0.5 -42q-1 -19 -1 -32t4 -22q7 1 21 2.5t29.5 2.5t30 1t23.5 -1q12 1 29 -1.5t34.5 -8.5t33 -16.5t24.5 -26.5zM487 -80q1 8 -1.5 8.5t-1.5 -0.5q-2 1 -7 2.5t-7 1.5q-41 -3 -82.5 -13t-81 -25t-74 -33t-61.5 -37l-51 -39l-8 -10
q-20 -19 -28.5 -33t-19.5 -35q-4 -8 -9.5 -15.5t-7.5 -14.5q-11 -35 -4.5 -65t23.5 -47q19 -18 43.5 -24.5t50.5 -6t50.5 7t42.5 13.5q54 20 92.5 53.5t63.5 73.5q14 22 27.5 52t24.5 62.5t18 64.5t8 59zM81 118q-14 6 -18.5 7t-11.5 8q-7 6 -6.5 11t-4.5 -1q-2 -2 -2 -9
v-15q0 -9 1 -20q1 -2 1.5 -8.5t3.5 -13.5q4 -9 8.5 -15.5t5.5 -7.5q11 -6 23 -1.5t22 12.5t15.5 18t3.5 16q-2 7 -12.5 9t-28.5 10zM48 167q-1 1 -4 -1t-1 -4q2 -1 4.5 1t0.5 4z" />
    <glyph glyph-name="f_f" unicode="ff" horiz-adv-x="471" 
d="M513 164q4 -4 2 -7t-6 -5.5t-8 -4t-5 -2.5l-18 -13.5t-20 -14.5t-18 -12t-12 -8t-10 -9t-11 -10q-9 -6 -11 -7t-3.5 -2t-4 -3.5l-11.5 -11.5q-3 -3 -8 -6t-15 -12q-2 -2 -8.5 -8t-7.5 -8q-3 -7 -4 -26.5t4 -37.5q2 -10 8.5 -20t14.5 -20t15.5 -19.5t11.5 -19.5
q9 -21 14 -50t4.5 -58t-6 -53t-17.5 -35q-22 -19 -37 -14t-25.5 24.5t-17.5 48.5t-11 57q-11 71 -12 142t3 137.5t8.5 128t4.5 112.5q-42 -45 -86.5 -87t-92.5 -78l-34 -25q-9 -7 -21.5 -15.5t-13.5 -8.5q-1 -3 -1 -20v-36v-34t-1 -14q0 -1 9.5 -5.5t22 -11t25.5 -13.5
t21 -13q1 -1 5 -6.5t9 -12.5q5 -8 13 -18q9 -16 12.5 -33.5t3.5 -33.5t-3 -29t-7 -20q-1 -1 -5.5 -7.5t-10.5 -14.5l-16 -20q-5 -3 -16.5 -5t-13.5 -2q-26 1 -43 18.5t-28.5 44t-17 57.5t-8.5 58q0 2 0.5 8.5t1.5 14t1 15t-2 11.5q-5 11 -8 12t-12 6q-5 2 -14.5 6t-11.5 12
q-2 9 0 15t6 10t8.5 6.5t6.5 5.5q6 8 15 17t12 20t0.5 31t-1.5 36q1 15 3 30.5t3 30.5q7 66 13.5 126.5t17.5 123.5q3 19 6.5 37.5t8 33t10.5 24t14 9.5t11 -1.5t4 -4t1.5 -6t3.5 -6.5q1 -1 2.5 -6.5t4 -12.5t4 -13t2.5 -7q3 -7 4 -11t1.5 -7.5t1 -8.5t0.5 -14
q0 -10 1.5 -17t2.5 -12.5t0 -10t-6 -9.5q-6 -6 -10 -2t-7 10.5t-4 13.5t-1 9q-6 1 -9 -3.5t-4 -10t-1 -11v-6.5q-2 -8 -1.5 -20.5t-0.5 -21.5l-11 -80q-1 -10 -4 -36t-6 -53.5t-4.5 -50t0.5 -25.5q0 -1 4 1t9 4q5 3 13 6l17 12l14 9q13 11 22.5 18t17.5 15q5 4 8 6t6.5 5
t8 6.5t11.5 10.5q35 30 58.5 56.5t46.5 54.5q5 5 10 12t7 10q3 8 1.5 18t0.5 19q4 31 7.5 56t11.5 60q3 11 9 30.5t16 38t24 30t33 5.5q21 -6 25 -26t0 -43t-12 -44t-12 -28q-8 -15 -17 -29.5t-17 -29t-14 -30t-7 -33.5q-4 -56 -5.5 -105.5t-4.5 -101.5q-1 -12 -3 -25
t-3.5 -25t-1.5 -21.5t4 -14.5q3 -3 11 1.5t18 12t18 14.5t11 9q12 9 19 14t13 9t12.5 8t18.5 11q15 10 30 18t23 1zM49 -32q-2 -3 -1 -19t3 -36.5t5 -40.5t6 -32q1 -6 5.5 -16.5t8.5 -20.5t7 -17l3 -7q6 -3 12.5 0t12.5 9t11.5 13.5t8.5 14.5q13 27 11 53t-14.5 47.5
t-33.5 37t-45 20.5v-6zM337 -105q-2 -2 0.5 -9t1.5 -9q-1 -5 -1 -32t2.5 -57.5t7.5 -55.5t14 -26q2 0 4.5 3.5t4.5 8t4 9.5t2 7q3 12 2.5 33.5t-2.5 35.5q-1 7 -5.5 24t-11 33.5t-13 27.5t-10.5 7zM380 524q0 -2 -3.5 -11.5t-6.5 -20t-3.5 -19.5t5.5 -10q-2 1 2.5 7t3.5 5
q11 30 18.5 56t-4.5 58v-4q-4 -1 -6 -8.5t-3 -17t-1.5 -19.5t-1.5 -16zM-4 11q1 1 1.5 6t-0.5 9t-3 5.5t-6 -2.5q-7 -8 -0.5 -14t8.5 -4z" />
    <glyph glyph-name="s_t" unicode="st" horiz-adv-x="496" 
d="M866 634q19 0 35.5 -1.5t24 -5t3.5 -9t-24 -12.5q-6 -2 -13 -5t-14.5 -4t-14 0.5t-10.5 8.5q-1 1 2 2t-7 4q-5 1 -26 -1t-49.5 -5.5t-61 -8.5t-61 -9.5t-50 -8.5t-27.5 -5q-9 -1 -28 -6.5t-40.5 -11.5t-42 -11t-32.5 -5q-4 0 -7 -14.5t-6 -35.5t-4.5 -43t-2.5 -37
q-2 -46 -7 -114.5t-10 -140.5t-8.5 -137.5t-3.5 -106.5q-1 -63 1 -132.5t7 -155.5q1 -14 2 -29.5t1.5 -28t-0.5 -22t-4 -11.5q0 1 -6.5 3t-18.5 15q-6 5 -4 12t0 16q-8 23 -10 29t-1.5 6.5t2 1.5t0.5 15q-1 13 -2 29l-2 32t-1.5 30t-0.5 23q-2 43 -2 80v72.5t0.5 72
t-0.5 80.5q-1 30 1.5 84.5t6 115t8 117.5t7.5 92q1 0 1.5 9.5t1 20.5l1 22t0.5 14q0 1 -8 -0.5t-17.5 -3.5t-17.5 -4.5l-8 -2.5q-3 -5 -7.5 -14t-8 -18.5t-7 -18t-4.5 -12.5q-8 -20 -15.5 -47t-15.5 -55t-16 -54.5t-16 -45.5q-14 -31 -27 -73.5t-29 -80.5
q-7 -17 -11.5 -27.5t-5.5 -19.5t2 -19.5t10 -25.5q9 -17 18 -38t15 -46t8 -54t-4 -62q-4 -15 -9 -26.5t-12 -25.5q-3 -7 -8 -16.5t-11.5 -19t-14 -18.5t-14.5 -15q-26 -20 -56.5 -21t-47.5 21q-16 20 -14.5 54.5t9.5 72.5q8 35 23 67.5t30 70.5q4 9 8.5 20t8.5 20.5t6.5 17
t2.5 10.5q0 8 -8 20t-18 24t-21 23.5t-17 19.5q-14 16 -29.5 34t-25 38.5t-9 42t17.5 45.5q8 9 26.5 23.5t40.5 16.5q11 2 24 0t16 -11q3 -11 -2 -14t-13.5 -3h-17.5t-15 -4q-2 -2 -6 -10t-6 -15q-2 -8 -6 -9.5t-5 -9.5q-3 -20 4 -36.5t18 -31.5t25 -29t26 -27
q1 -2 4.5 -7.5t7.5 -11.5t8 -11t6 -5q-1 1 2 8t7 15.5t7.5 15.5l3.5 7q5 11 9 22.5t7 19.5q3 6 7 17.5t6 18.5q7 18 16 47t19.5 61t21.5 63.5t20 54.5q4 10 9 25t9 29t7 25t2 13q-4 1 -30 -3t-57.5 -9t-60 -9t-38.5 -4q-14 -3 -32.5 -8t-36.5 -8.5t-32 -3.5t-17 8
q-2 6 4.5 10t16 6t20.5 4t18 4q23 6 51 10t58 8t59.5 8.5t54.5 9.5q12 2 21.5 3t10.5 2l11 27.5t16 42.5q9 24 19.5 58.5t21 70.5t20.5 68t17 52q2 6 2 7.5t5 4.5q18 9 25.5 -2t9 -31.5t0 -45t-2.5 -43.5q0 -1 -1 -14t-2.5 -31.5t-3 -40.5t-2.5 -41t-1.5 -32.5t0.5 -14.5
q2 -1 20 1.5t40.5 6.5t44.5 8.5t32 6.5q22 4 63 10.5t86 13t87 11.5t66 5zM165 -177q1 23 -2.5 44.5t-8.5 41.5q-1 1 -1 4l-3 8q-3 12 -8 22l-11 25q-1 1 -1 2v1l-1 1l-1 -1q0 -1 -2 -3q-3 0 -3 -1q-1 0 -1 -0.5t-1 -0.5q-1 -2 -0.5 -3.5t-0.5 -5.5l-13 -26l-12 -28l-7 -18
l-8 -20q-4 -10 -7 -20l-6 -20q-2 -5 -3.5 -10.5t-2.5 -10.5l-2 -7q0 -2 -0.5 -3.5t-0.5 -3.5q-6 -27 -6 -51q0 -7 2 -17q0 -4 1 -6q2 -7 2.5 -11t1 -7t3.5 -5.5t9 -5.5q1 0 1.5 -0.5t1.5 -0.5q1 -1 3 -1q17 -4 32.5 11t28.5 38q5 9 8 17q14 29 17 51zM387 698l2 20
q-2 8 -4 6q-1 0 -1 -0.5t-1 -0.5l-2 -4q-1 -1 -1 -2t-1 -3l-2 -8q-1 -2 -1 -7l-2 -8l-6 -13q0 -1 -0.5 -1.5t-0.5 -1.5l-5 -17q0 -2 -2.5 -9.5t-5.5 -17.5t-6 -19t-5 -13l-5 -16l-2 -8q-1 -2 -1 -3t-1 -2q-2 -5 -3 -9t-2 -7q-1 -4 -2 -7v-1h2h2q2 0 5.5 1.5t6.5 2.5
q1 0 1.5 0.5t1.5 0.5q2 0 8 2q1 0 2 1l11 2h3q2 1 1 1t1 0v-3v1l1 2h-1q0 2 0.5 6.5t0.5 9.5q0 1 0.5 1.5t0.5 2.5q0 8 1 13q0 7 1 10q0 3 1 10.5t2.5 15.5t2.5 15.5t1 10.5q0 2 0.5 3t0.5 3v9t1 9z" />
    <glyph glyph-name=".notdef" horiz-adv-x="206" 
 />
    <glyph glyph-name=".null" horiz-adv-x="0" 
 />
    <glyph glyph-name="nonmarkingreturn" unicode="&#xd;" horiz-adv-x="206" 
 />
    <glyph glyph-name="NULL" horiz-adv-x="0" 
 />
    <glyph glyph-name="NULL" horiz-adv-x="0" 
 />
    <glyph glyph-name="space" unicode=" " horiz-adv-x="206" 
 />
    <glyph glyph-name="exclam" unicode="!" horiz-adv-x="226" 
d="M175 639q17 9 23.5 4t7 -18t-3.5 -31t-7 -35q-24 -119 -45.5 -249.5t-34.5 -268.5l-5 -45q-2 -17 -1 -24.5t-14 -9.5q-12 -2 -16.5 6t-5.5 20.5t0 27t2 25.5q2 32 4 62.5t6 62.5q5 37 12.5 76t12.5 78q6 41 9.5 81.5t10.5 77.5q8 42 18 79t17 66q2 7 3 9.5t7 5.5z
M85 -138q2 0 10.5 -1.5t9.5 -3.5q2 -3 -3.5 -6t-6.5 -4q-3 -8 -4.5 -17t-15.5 -8q-15 1 -20.5 11t10.5 24q4 3 8 4.5t12 0.5z" />
    <glyph glyph-name="quotedbl" unicode="&#x22;" horiz-adv-x="197" 
d="M103 506q17 10 26 6t12.5 -17t2.5 -32t-5 -38t-10 -34.5t-11 -22.5q-5 -9 -6 -13t-9 -8q-15 -7 -18.5 -2t-1.5 17t7.5 29.5t7.5 37.5q0 3 -1 13.5t-1.5 22.5t-1 21.5t1.5 10.5q2 2 3.5 4.5t3.5 4.5zM41 465l3.5 1.5t7.5 3t7.5 2.5t5.5 -1q4 -4 5.5 -23.5t-3.5 -33.5
q-2 -8 -8 -14.5t-13 -10.5t-14 -4.5t-11 3.5q1 -1 2.5 7t3 19.5t2.5 23t2 17.5q2 8 3 7.5t7 2.5z" />
    <glyph glyph-name="numbersign" unicode="#" horiz-adv-x="397" 
d="M353 192q4 -16 -6 -21.5t-20 -4.5q-6 0 -7.5 5.5t-3.5 11.5t-6 10t-13 3t-12 -6t-3.5 -12.5t0 -17t-0.5 -21.5q-1 -9 -4 -16.5t-1 -9.5q1 -2 6 -3.5t11 -3t11 -2.5t8 -2q-2 0 3.5 -3t6.5 -2q-1 -2 -8.5 -5t-26.5 2q-9 3 -11.5 -1t-2.5 -13.5t0.5 -24t-2.5 -33.5
q-2 -10 -3 -20.5t-12 -13.5q-13 -3 -19.5 7t-9 26t-1.5 33.5t4 28.5l4 4q4 4 1 7q-4 4 -20.5 3t-30.5 -3q-1 0 -9 -1.5t-18 -3t-17.5 -2.5t-6.5 -1q-1 -1 -2 -10.5t-2 -22t-1 -24.5v-18q0 -3 1.5 -10t-1.5 -9q-10 -5 -16 -1.5t-10 12t-5 20t0 22.5t4.5 21.5t0.5 12.5t-8.5 2
t-12 -1t-13.5 -2.5t-12 -2.5q-5 0 -16.5 -1t-20 -0.5t-9.5 2.5t16 7q9 2 11 2.5t3 0t2.5 -0.5t8.5 1q23 5 34 6.5t15 5t4.5 11t2.5 23.5l6 38q0 4 1.5 7t0.5 5.5t-4.5 3t-13.5 -0.5q-3 0 -17.5 -4t-32 -6.5t-32 -2t-15.5 8.5q0 2 7 4.5t17 4.5t19.5 3.5t12.5 2.5l17.5 2.5
t20.5 2.5t17 2l7 1q3 2 4.5 11.5t2 22l1 25t2.5 20.5q2 14 4.5 27.5t10.5 18.5q15 7 19.5 -1.5t4 -23t-3.5 -30.5t-4 -25q-2 -9 -6 -22t0 -16q3 -2 9.5 -2t13 1t13 2.5t9.5 2.5q1 0 7 -0.5t13.5 -0.5h13.5t8 1q9 5 9 17.5t2 27.5q0 6 2 19t13 16q10 2 16.5 -3t9.5 -13
q2 -5 1 -17t-1 -17q-2 -9 -5 -15.5t0 -10.5q3 -5 13 -6.5t21 -3t20.5 -5t11.5 -12.5zM240 170q1 9 7 15t-1 15q-2 1 -5.5 0.5t-7.5 -1t-6.5 -2t-1.5 -1.5q-2 1 -16 1t-25 -1q-13 -1 -20 -1.5t-10 -2.5t-4 -5.5t-2 -9.5q-2 -14 -5 -30t-5 -27q-2 -17 4.5 -16.5t16.5 1.5
q5 1 16.5 1t24.5 0.5t23 1t12 1.5t3 10t1 19.5t0.5 19.5t0.5 12z" />
    <glyph glyph-name="dollar" unicode="$" horiz-adv-x="516" 
d="M310 170q11 -17 22.5 -33.5t21.5 -32.5q3 -4 17 -23t29 -42.5t25.5 -46t6.5 -32.5q-3 -11 -20 -17t-38.5 -9.5t-44 -6t-37.5 -6.5q-19 -5 -29 -9t-14.5 -12t-6 -23t-2.5 -41q-2 -36 -1.5 -74t0.5 -70q0 -17 -1.5 -30.5t-1.5 -25.5t2.5 -24t9.5 -25q2 -5 5.5 -10t4.5 -8.5
t-3.5 -6t-17.5 -1.5q-10 0 -14.5 3.5t-7 9.5t-4 14t-4.5 18q-8 26 -10 50t-0.5 46.5t4.5 44t4 43.5q0 21 1 35t-1 37v9.5t-1 9.5q-4 4 -22.5 -2t-39.5 -16.5t-40 -20.5t-25 -13q-7 -4 -13.5 -8.5t-17.5 -11.5q-17 -9 -29 -17t-27 -22q-10 -8 -16.5 -11.5t-7.5 -7.5
q-2 -7 -2.5 -8.5t0.5 -1t3.5 0t5.5 -4.5q10 -13 4.5 -19t-18 -7t-26 2.5t-17.5 10.5q-7 10 -1.5 22t17.5 24.5t29 24t33.5 21t29.5 16.5t19 10q25 14 48.5 27.5t52.5 25.5q6 2 11.5 2.5t13.5 3.5q15 6 23 13t12.5 16.5t6 24.5t3.5 38q1 20 0 40.5t0 31.5q1 17 3.5 36t5 37.5
t2.5 37t-3 33.5q-4 17 -16 33.5t-22 31.5q-12 18 -29 40t-32 47t-25.5 52.5t-8.5 57.5q0 10 3.5 14t6.5 12q2 6 1.5 13.5t3.5 12.5q11 17 29 26t39 20q4 2 14 8.5t24 11.5q5 1 12 3t13.5 3.5t12 3t6.5 3.5t2 12.5t1.5 24.5t0.5 30.5t1 30.5q2 31 2.5 57.5t2.5 40.5
q0 2 -1.5 7t0.5 6q2 2 7.5 6t10.5 1q10 -6 11.5 -6.5t3.5 -13.5q8 -32 4.5 -66t-5.5 -71q-1 -14 -3 -31t1 -22q3 -4 10.5 -6t16.5 -3t18 -1.5t14 -2.5q15 -5 33 -20t32 -36t19 -45.5t-5 -48.5q-6 -14 -10 -20.5t-7 -9t-6.5 -1t-7.5 3.5q-5 3 -5 11t2 18t3.5 20t0.5 17
q-2 12 -8.5 26t-16.5 27t-22.5 23t-25.5 15q-5 2 -11 3t-11 2t-8.5 1.5t-2.5 0.5q-2 -1 -4 -11.5t-3.5 -24t-3 -27.5t-1.5 -22q-2 -29 -4 -55.5t-3.5 -52t-3.5 -52t-4 -56.5q-1 -9 -3 -22t0 -17q4 -17 18 -35.5t27 -36.5zM236 431q2 35 7 70.5t8 60.5q1 11 -3.5 9t-3.5 -2
q-5 2 -15 -1t-20.5 -8.5t-18.5 -10.5t-9 -6q-8 -6 -11.5 -12t-6.5 -14q-1 -2 -6 -3.5t-6 -3.5q-8 -14 -11 -33.5t4 -45.5q3 -14 11.5 -31t19 -34t21 -33t18.5 -26q11 -15 15 -7.5t4.5 27.5t0.5 48.5t2 55.5zM380 -40q4 5 -3 20t-17.5 32.5t-20.5 32.5t-13 20q-8 10 -14.5 21
t-15.5 25q-15 20 -22 33t-14 6q-2 -1 -0.5 -6t1.5 -7q-2 -41 -5.5 -85.5t-7.5 -78.5q-2 -20 4 -26t16 -5t21.5 5.5t19.5 5.5q1 0 12.5 1t24 2.5t23.5 2.5z" />
    <glyph glyph-name="percent" unicode="%" horiz-adv-x="376" 
d="M262 530q14 2 29 -2.5t17 -7.5q-1 1 -2 -3t-2 -10.5t-3 -14t-4 -13.5q-3 -11 -7.5 -20t-7.5 -16q-10 -22 -20 -40.5t-16 -30.5q-24 -52 -43.5 -97.5t-36.5 -90t-34.5 -91t-38.5 -100.5q-3 -8 -8.5 -20.5t-11 -24.5t-9 -21t-2.5 -11q2 -4 4.5 -3.5t4.5 3.5t3.5 6.5
t2.5 4.5q25 21 47 47.5t40 49.5q8 10 20.5 22.5t15.5 18.5q2 4 0.5 10t-0.5 10q3 12 10.5 24t25.5 12q10 0 13 -1.5t3.5 -4.5t0.5 -6.5t3 -7.5q3 -3 10.5 -9.5t10.5 -11.5q15 -26 19 -46.5t-19 -35.5q-15 -10 -32.5 -9.5t-28.5 9.5q-5 4 -9.5 15t-6.5 11t-6.5 -5t-10.5 -12
t-12.5 -15t-11.5 -14q-3 -5 -6 -12t-9 -14q-5 -7 -13 -11t-13 -9q-5 -7 -16.5 -22.5t-24.5 -23.5q-20 -12 -39 -15.5t-27 10.5q-2 3 -0.5 11.5t4.5 20t7.5 24.5t8.5 26q17 46 33 82.5t29 70.5q4 11 5 21t5 20q4 8 10 16.5t10 19.5q5 10 6.5 21.5t4.5 19.5q5 12 13 26.5
t12 24.5l26 56q17 38 37 79.5t34 79.5q-31 -11 -64.5 -32t-62.5 -40q-14 -9 -23 -14.5t-12.5 -11t-2.5 -13t7 -22.5q3 -8 6 -13t-1 -13q-5 -12 -15 -18t-22 -6.5t-23 3t-17 11.5q-5 8 -5 18t3 20t6.5 17.5t5.5 10.5t7 6.5t11 7t11 7t7 5.5q4 3 8.5 5t7.5 5t7.5 5t7.5 5
q4 4 5 3.5t5 2.5q30 17 55.5 34.5t57.5 31.5q7 3 18 8.5t18 6.5zM236 70q-3 -4 -4 -14t1 -21t6.5 -19t11.5 -7q1 0 2.5 9t2.5 11q2 3 0.5 11t-5 16t-7.5 13t-8 1zM67 336q2 0 3 6t1 12t-2 9t-7 -1q-11 -12 -5.5 -19.5t10.5 -6.5z" />
    <glyph glyph-name="ampersand" unicode="&#x26;" horiz-adv-x="690" 
d="M660 -100q7 -1 15 1t5 -7q-1 -8 -10 -13t-20.5 -7.5t-23 -1t-17.5 7.5q-6 1 -14 4.5t-16 9l-16 11t-14 9.5q-2 2 -6 2.5t-6 2.5q-3 2 -3.5 5t-2.5 5t-6 2t-6 2t-3 5t-3 5t-6 2.5t-6 2.5q-3 2 -3.5 5t-2.5 5q-6 5 -13.5 9t-13.5 11l1 1q-3 -1 -8 -6t-10.5 -12t-10.5 -14.5
t-9 -11.5q-18 -19 -41 -40t-51 -41t-59 -36t-65 -24q-41 -11 -81.5 -5t-71.5 26t-48.5 54t-12.5 80q1 38 16.5 77.5t38 77t48.5 70.5t48.5 57.5t37.5 39t16 14.5q0 4 -4.5 13t-10.5 19.5t-12 20t-8 15.5q-8 18 -14 39t-11 38q-11 45 -13 86.5t8 76.5q3 12 7.5 18.5t9.5 16.5
q3 5 6 13.5t8 16.5q18 30 47.5 54t64.5 36.5t72.5 12t71.5 -19.5q33 -15 43.5 -43t4.5 -63.5t-25 -75.5t-44 -80t-52.5 -76t-50 -63.5t-38 -43.5t-15.5 -14q0 -2 3.5 -6.5t8 -11t9.5 -13.5t8 -12q9 -14 19.5 -27t19.5 -24q6 -6 10 -12t10 -13l15 -16l14 -15l14 -16
q7 -5 15 -15q11 -12 24 -25l27 -27q13 -13 18 -13.5t16 21.5l11 26q1 3 0.5 11t-0.5 16.5t1.5 15t4.5 8.5q10 4 13.5 -3.5t4 -19t-1.5 -22.5t-3 -14q-4 -12 -10 -24.5t-12 -25.5q-4 -7 -3.5 -11t4 -7.5t10.5 -8t16 -12.5q20 -17 37.5 -32t39.5 -29q8 -5 14 -9.5t16 -9.5
q5 -2 6.5 -3t4 -1.5t8 -0.5t17.5 -1zM401 -58q7 7 15 15.5t14.5 16.5t11 15.5t3.5 12.5q-2 2 -4 3q-5 2 -5 3q-2 2 -2.5 5t-3.5 5q-3 3 -8 5t-9 6q-2 2 -3 5t-3 5q-19 20 -40 40t-35 40q-1 1 -4 0.5t-4 0.5q-8 8 -13 18t-13 18q-1 2 -4 2.5t-5 2.5q-6 7 -10.5 13.5
t-9.5 12.5q-15 20 -25 35t-23 32q-2 3 -1.5 1t-1.5 -2t-3.5 -2t-3.5 -3q-26 -28 -59 -68t-61 -84.5t-46.5 -90t-16.5 -85.5q6 -33 23.5 -56.5t41.5 -37t53 -17t57 2.5q31 7 59.5 21.5t54 32.5t46.5 38t38 38zM167 508q5 -49 20.5 -86.5t29.5 -68.5q5 -10 9.5 -24t5.5 -14
q3 -1 22.5 18.5t45.5 51t55 72t52 82t36 79t7 64.5q-11 28 -31.5 43t-46.5 18t-53.5 -3.5t-53.5 -21.5t-46.5 -36.5t-31.5 -46.5q-5 -11 -7.5 -21.5t-4.5 -19.5q0 -2 -3 -4.5t-3 -4.5q-6 -38 -2 -77z" />
    <glyph glyph-name="quotesingle" unicode="'" horiz-adv-x="130" 
d="M66 454q25 16 33.5 8t7 -25.5t-10 -38t-16.5 -30.5q-5 -9 -6 -13t-9 -8q-15 -7 -18.5 -2t-1.5 17t7.5 29.5t7.5 37.5q0 6 -2 10t1 6q2 2 3.5 4.5t3.5 4.5z" />
    <glyph glyph-name="parenleft" unicode="(" horiz-adv-x="283" 
d="M345 730q1 -8 -3.5 -10t-11.5 -1t-14.5 2t-11.5 0q-10 -5 -22.5 -21.5t-23.5 -30.5q-37 -48 -65.5 -112.5t-46 -139.5t-20.5 -157t11 -165q9 -54 18 -110t20 -107t26.5 -94.5t38.5 -72.5q6 -8 14.5 -15.5t3.5 -12.5q-5 -7 -15 -6t-20.5 5.5t-20 11t-13.5 11.5t-4 10
t-3 10q-18 35 -31.5 78.5t-24.5 92.5t-20 100.5t-16 103.5q-3 23 -8.5 50.5t-6.5 50.5q-2 72 9.5 143.5t31.5 133.5q5 17 12.5 31t12.5 28q4 8 4 16.5t4 15.5q3 8 8.5 11.5t9.5 11.5q5 8 6 16t6 16q4 6 9 11t10 12q9 13 15.5 26.5t15.5 23.5q3 2 7.5 3t7.5 3q11 9 21 18
t33 14q6 1 13.5 3t14.5 2t12.5 -2t6.5 -8z" />
    <glyph glyph-name="parenright" unicode=")" horiz-adv-x="244" 
d="M158 422q5 -44 5 -98.5t-2.5 -111.5t-7.5 -114.5t-9 -107.5q-5 -41 -10 -90t-19 -108q0 -2 -4 -5.5t-4 -5.5q-6 -39 -24 -73q-13 -26 -28 -44.5t-29 -11.5q-4 2 -9 2t-3 7q1 5 8.5 11t12.5 17q11 22 17.5 36.5t10 28t7 31t8.5 46.5q4 22 7.5 42t6.5 39t5.5 38t4.5 41
q7 64 9.5 136.5t4.5 147.5q1 63 -4 125.5t-19 123.5q-13 61 -36.5 120.5t-52.5 98.5q-4 5 -4 6t3 5q5 7 12.5 5.5t15 -6.5t15 -12.5l13.5 -13.5q12 -12 24 -35t22.5 -51t19 -56.5t13.5 -51.5q8 -29 12.5 -57t7.5 -54z" />
    <glyph glyph-name="asterisk" unicode="*" horiz-adv-x="233" 
d="M170 363q2 -14 -6 -15.5t-19 0.5q-3 0 -3 1.5t1.5 3.5t2.5 4.5t-1 5.5q1 -1 -2.5 0t-8.5 2t-9.5 1.5t-6.5 -0.5q-2 -2 2 -13t10 -26t12 -30.5t6 -25.5q1 -5 3 -9.5t0 -9.5q-1 -2 -6 -4.5t-9 -1.5q-6 2 -5.5 9.5t-3.5 18.5q-4 12 -6 17t-4 8.5t-4.5 9t-7.5 17.5l-4.5 13.5
t-4.5 11.5q-1 0 -6.5 -6.5t-11.5 -14.5t-11 -15l-5 -7q-2 -5 -6 -12t-9 -13q-1 -1 -3.5 -4.5t-6 -6.5t-7.5 -4t-8 3q-3 2 0 9.5t8 15.5t10 15t7 9t4.5 4t4.5 5l15 22q9 10 2.5 11t-19 -1.5t-26.5 -5.5t-21 -1q-11 3 -6 6.5t15 6.5t21 5.5t13 2.5q7 2 18 1.5t13 1.5
q1 2 -1 8.5t-6 13.5t-7.5 13t-4.5 8q-2 4 -6.5 11.5t-8 15t-4.5 14.5t4 12l6 2q6 2 12 -2q5 -4 10 -18.5t9 -21.5l2.5 -6t6 -13t6.5 -12.5l3 -5.5q2 -1 5 2.5t6.5 8l7 9t6.5 7.5l3 3.5t8 7.5t10.5 7t9.5 1q8 -5 -0.5 -12.5t-12.5 -12.5q-2 -2 -1.5 -4.5t-1.5 -4.5
q-1 -1 -8.5 -7.5t-9.5 -10.5q-1 -2 0 -3.5t0 -3.5q-1 0 -4.5 -2t-1.5 -4q2 -4 9 -1t18 1q5 -1 14.5 -5.5t10.5 -9.5z" />
    <glyph glyph-name="plus" unicode="+" horiz-adv-x="264" 
d="M221 175q3 -8 -7.5 -12t-29.5 -6h-15.5t-21.5 0.5t-19.5 0t-9.5 -1.5q-2 -2 -2.5 -13t0 -23.5t1.5 -23t1 -11.5q1 -10 1 -13t-4 -6q-8 -5 -13 -5t-8.5 3t-5.5 9t-3 12q-2 8 -1.5 19t1.5 22t1.5 19.5t-1.5 10.5l-9 -0.5t-19.5 -2t-20 -2t-12.5 -0.5q1 0 -2.5 1.5t-8 3.5
t-9 4.5t-4.5 4.5q-2 13 9.5 16t28.5 3q8 0 20 -3.5t22 -5.5q7 4 9 11t2 16t-1 18.5t0 19.5q1 12 4 23t14 15q12 4 16 -2.5t4 -18t-2.5 -26.5t-3.5 -28q0 -4 0.5 -7.5t-0.5 -6.5q0 -1 3 -3.5t4 -3.5q3 -3 9 -3.5t11.5 1t10 3t5.5 1.5q6 0 14.5 1t17 0.5t15 -3t9.5 -7.5z" />
    <glyph glyph-name="comma" unicode="," horiz-adv-x="135" 
d="M69 64q8 -1 11.5 -12t3.5 -14q0 -1 -2.5 -10t-7 -19t-11.5 -16.5t-15 -2.5q-3 3 -4 5t0 5t2.5 8t1.5 14q1 17 3.5 25.5t5.5 12.5t6.5 4h5.5z" />
    <glyph glyph-name="hyphen" unicode="-" horiz-adv-x="246" 
d="M139 171q1 0 9 -2.5t16.5 -7t14.5 -11.5t3 -15q0 -1 -9 -0.5t-20 1.5t-22 1.5t-15 0.5q-5 -1 -13.5 -1.5t-17.5 -0.5q-6 0 -19 -1t-27 -1t-25.5 1t-12.5 6q-2 7 2 11.5t11.5 6.5t16.5 3.5t16 2.5q15 3 25.5 4t20.5 1t20.5 -1t25.5 -4v6v0z" />
    <glyph glyph-name="period" unicode="." horiz-adv-x="158" 
d="M98 53q8 -12 5.5 -19.5t-11 -10.5t-19 -2.5t-18 4.5t-9 11t8.5 17q10 9 22.5 10t20.5 -10z" />
    <glyph glyph-name="slash" unicode="/" horiz-adv-x="311" 
d="M40 -315q2 7 0.5 10t0.5 11q12 51 22.5 107t18.5 99q33 173 62.5 347.5t59.5 347.5q2 12 5 35t9 44t15.5 34.5t25.5 6.5q4 -2 5 -1.5t4 -2.5q3 -2 7 -11t6 -17.5t-0.5 -14t-14.5 -0.5q-2 1 -5.5 7.5t-5.5 5.5q-1 0 -2 -8t-2.5 -18.5t-3.5 -22.5t-3 -20
q-11 -60 -19.5 -122.5t-16.5 -117.5q-10 -66 -19.5 -123t-21.5 -117q-17 -84 -32.5 -169t-32.5 -166q-2 -12 -5.5 -27.5t-7.5 -31t-7.5 -29.5t-5.5 -23q-1 -5 0 -11t-1 -11t-5.5 -13t-9 -15t-12.5 -10t-15 4q-3 3 -3 10t1.5 13.5t2.5 9.5t0 -2z" />
    <glyph glyph-name="zero" unicode="0" horiz-adv-x="353" 
d="M264 312q7 -59 -4 -123.5t-34.5 -118t-56.5 -87t-70 -31.5q-31 2 -51 25t-31.5 58.5t-15 79t-0.5 87.5q3 45 12.5 90.5t22 84.5t27.5 69t30 43q4 4 8 4.5t10 2.5q2 0 1.5 3.5t4.5 2.5q14 -4 29.5 -13t30 -20t27.5 -23.5t23 -23.5q4 -5 10 -18t11.5 -29.5t9.5 -33.5t6 -29
zM172 37q20 34 34 75.5t20.5 85.5t4.5 88t-14 81.5t-35 66t-58 43.5q-5 2 -5 -1.5t-2 -4.5q-2 -3 -3 -6l-2 -4q-1 -1 -1 -2q-11 -26 -21.5 -63t-19.5 -79.5t-14.5 -88t-5.5 -87.5q0 -32 3.5 -62.5t11 -54.5t19 -39t27.5 -15q6 0 13 5.5t13 12.5t10.5 14t6.5 11q1 2 6 3t6 3
q3 4 3.5 9.5t2.5 8.5z" />
    <glyph glyph-name="one" unicode="1" horiz-adv-x="197" 
d="M107 551q16 -4 21.5 -20t5 -37t-4 -44t-4.5 -40q-2 -35 -4.5 -75t-5 -81.5t-5 -81.5t-3.5 -74q-1 -12 -1.5 -41t-1 -61.5t-1.5 -62t-2 -42.5q-2 -14 0.5 -27t-0.5 -22q-7 -18 -15 -19t-16 1q-10 2 -14 8.5t-4.5 17t0 25.5t0.5 34q-1 59 0.5 113t4 106.5t5 106.5t2.5 114
q-6 -3 -11 -18t-11.5 -30t-15.5 -24.5t-23 -0.5q-5 3 -2.5 7t2.5 5q7 38 17 68.5t20 65.5q4 16 9.5 39.5t13 44.5t18 34.5t26.5 10.5z" />
    <glyph glyph-name="two" unicode="2" horiz-adv-x="381" 
d="M347 -115q-1 0 1.5 -2.5t6 -5.5t7 -5t4.5 0q-1 -9 -9 -11t-18.5 0t-22 5.5t-18.5 5.5q-15 4 -38.5 9.5t-50.5 9.5t-55 6t-51 0q-7 -1 -16.5 -4t-20 -6t-22 -5.5t-21.5 -2.5q-18 0 -21.5 8t1 18.5t13 21.5t14.5 19q-1 -1 7.5 7t16.5 17q3 5 3 10t3 9q5 5 9 9.5t9 14.5
q3 4 7 6.5t6 5.5q4 7 6 15.5t6 15.5q17 28 38.5 68t41.5 83t35 86.5t19 79.5q4 30 3 42.5t-3 25.5q-6 35 -22.5 49.5t-50.5 -1.5q-19 -8 -30 -14t-25 -22q-3 -4 -3 -9t-3 -10q-2 -2 -6 -3t-6 -3q-11 -16 -19.5 -34t-14.5 -36t-8.5 -34.5t-0.5 -29.5q0 -4 2 -11t5 -14.5
t7.5 -14t9.5 -9.5q2 -1 10.5 -2.5t8.5 -3.5q-4 -13 -16 -12t-25.5 9t-24.5 19.5t-14 20.5q-5 17 -4.5 34.5t5 34t11 31.5t13.5 28q5 11 10.5 21.5t13.5 21.5l6 12q4 4 9 3.5t9 2.5q2 2 0.5 6t-0.5 6q3 3 16 8.5t21 10.5q9 5 12.5 10t12.5 8q8 3 16.5 3.5t19.5 2.5
q54 6 80 -18q3 -3 6.5 -9.5t7.5 -13t7 -12.5t3 -8q1 -5 2 -15.5t1 -24.5t-1 -29.5t-2 -28.5q-2 -20 -12.5 -53t-24 -68.5t-28.5 -68.5t-27 -54q-3 -6 -8.5 -11.5t-9.5 -13.5q-8 -14 -14 -27t-16 -28q-17 -24 -32.5 -47.5t-35.5 -49.5q-10 -14 -9.5 -19t8 -5t21 2.5t29.5 2.5
q13 0 34 -1.5t44.5 -3.5t46.5 -5.5t40 -7.5q14 -3 28.5 -7t26.5 -11z" />
    <glyph glyph-name="three" unicode="3" horiz-adv-x="394" 
d="M169 166q-1 -2 -3 -3.5t-3 -2.5q-8 -10 -9 -14.5t3.5 -6.5t15.5 -4t27 -6l42 -12q19 -5 39 -9t31.5 -11.5t10 -20t-25.5 -33.5q-12 -11 -21.5 -17.5t-18 -11.5t-18 -10.5t-21.5 -14.5q-34 -26 -74 -57t-79 -66q-2 -2 -4.5 -8t-7.5 -11.5t-12 -8t-18 3.5q-9 5 -4 14.5
t14.5 19.5t21 19t16.5 14q23 21 38 35t29.5 25.5t31 24t42.5 31.5q1 1 12.5 7.5t24.5 15t22.5 17.5t7.5 15q-1 3 -13 6.5t-27.5 7.5t-30.5 6.5t-21 4.5q-12 3 -26 5t-26.5 5t-21.5 7.5t-11 12.5q-2 7 2 14.5t11 16t16.5 18t19.5 18.5q29 29 57.5 55.5t52.5 60.5q6 9 9.5 19
t8.5 18q6 9 13 20.5t13 25t9.5 28.5t1.5 30q-3 24 -21 35t-43 12.5t-53.5 -5t-53.5 -18.5q-14 -6 -30.5 -21.5t-30.5 -27.5q-8 -6 -18 -12.5t-18 -15.5t-13.5 -21t-5.5 -30q0 -5 4.5 -10t-4.5 -8q-15 -5 -21.5 2t-7.5 18.5t2 25t8 21.5q2 2 7 3t6 3q6 14 15 21.5t27 21.5
q11 8 19.5 16.5t17.5 13.5q25 15 51.5 23.5t52.5 13.5q31 5 60.5 4t51.5 -12t33.5 -32.5t7.5 -57.5q-3 -18 -13 -40t-24 -45q-11 -19 -25 -34t-30 -33q-6 -8 -11.5 -18t-13.5 -19q-3 -4 -8.5 -6t-9.5 -6q-8 -8 -13.5 -15t-16.5 -16q-2 -2 -3.5 -6t-3.5 -6t-6 0t-6 0t-3 -6
t-3 -6z" />
    <glyph glyph-name="four" unicode="4" horiz-adv-x="428" 
d="M353 410q-5 -50 -10.5 -103.5t-10.5 -106.5t-9 -104t-7 -95q0 -6 0.5 -26.5t-1 -42t-6.5 -38t-17 -15.5q-9 1 -13 5.5t-4.5 12t0 18.5t-0.5 25q-2 29 -1.5 54t2 50t3 51t2.5 58q0 6 1 20.5l2 29t2 25.5l1 11q-5 7 -23 10t-40.5 3.5t-45.5 -0.5t-38 -1t-36 -0.5t-41 0.5
t-36 5.5t-21 13.5q-8 13 -4.5 31.5t12.5 39t20.5 42t20.5 39.5q13 27 22 46.5t20 39.5q2 3 3 8.5t4 9.5q5 8 12.5 13.5t11.5 11.5q3 3 3 5t0.5 3t2 1.5t6.5 2.5q18 5 21 0t-1.5 -15t-12.5 -23t-13 -23q-8 -18 -13.5 -34.5t-16.5 -39.5q-7 -12 -19 -31t-18 -36
q-3 -8 -7 -19.5t-6.5 -23.5t-3 -22t4.5 -14q8 -9 30.5 -10.5t49 -0.5t53.5 3.5t44 1.5q4 0 12 -1.5t16 -2.5t14.5 -1.5l6.5 -0.5q6 4 9.5 22t6 41t4.5 46t4 37q1 8 4 30.5t8.5 44.5t14 37.5t22.5 9.5q9 -3 10.5 -16.5t0 -32t-5 -39.5t-5.5 -40z" />
    <glyph glyph-name="five" unicode="5" horiz-adv-x="423" 
d="M236 300q51 -2 82.5 -29.5t44.5 -68t7 -88t-30 -89.5q-18 -31 -46.5 -56.5t-67 -43.5t-85 -27t-100.5 -7q-14 0 -25 2t-14.5 5t3.5 6t30 5q45 5 86 9.5t79 21.5q24 11 50.5 31.5t46.5 50.5t29.5 69t1.5 87q-4 21 -21.5 45.5t-33.5 39.5q-8 8 -32.5 10.5t-47.5 -3.5
q-21 -6 -43 -18.5t-48 -24.5q-11 -5 -21.5 -14t-21.5 -11q-34 -5 -45.5 6.5t-10.5 33t10 51.5t16 62l12 73q2 8 6.5 15.5t5.5 15.5q1 12 -3.5 18.5t-2.5 11.5q2 8 12 14t18 11q4 2 6 1t3.5 -2.5l3.5 -3.5t6 -1q7 1 18 5.5t25 6.5q25 3 58.5 3t64 -1.5t53 -5.5t25.5 -8
q5 -9 -2.5 -20t-19.5 -21t-23.5 -16t-15.5 -4q-8 3 -5 10t9 14.5t11.5 14.5t2.5 10t-23.5 3.5t-45.5 0t-47.5 -2t-29.5 -1.5q-23 -2 -32.5 -3t-12.5 -7.5t-3.5 -22.5t-6.5 -47q-2 -13 -11 -36.5t-14 -48.5l-3 -14.5t-6.5 -31.5t-6 -31.5l-2.5 -14.5q3 -3 15.5 3t27.5 14.5
t27.5 16.5t15.5 9q24 9 52.5 14t44.5 4z" />
    <glyph glyph-name="six" unicode="6" horiz-adv-x="436" 
d="M363 147q9 -33 2.5 -64t-21.5 -57t-33.5 -45.5t-32.5 -28.5q-12 -8 -26.5 -17t-32 -17t-38 -12.5t-44.5 -2.5q-14 2 -30.5 6t-30.5 12q-2 2 -3 7t-3 6t-6 -0.5t-6 0.5q-5 3 -4 8t-2 10q-2 2 -6.5 3t-6.5 3q-26 40 -34 91.5t-2.5 106t22 109.5t38 102.5t46 84.5t46.5 56
q7 6 18 13t23.5 13t25.5 10.5t25 6.5q6 1 16 2t22 -0.5t23 -6t18 -14.5q7 -9 10 -20t3 -21t-3.5 -17.5t-9.5 -8.5q-9 -2 -12 1t-3.5 8.5t0 12.5t-2.5 15q-8 20 -23 29t-44 -5q-9 -4 -13 -11.5t-12 -12.5q-2 -2 -8.5 -3t-9.5 -3q-3 -3 -3 -9.5t-3 -9.5q-13 -13 -21.5 -23
t-21.5 -32q-23 -40 -44.5 -89t-34.5 -106q-2 -10 -5 -26t-5 -31.5t-3 -27t1 -13.5q2 -3 8 -1t13.5 6.5t15 10t12.5 8.5q10 7 27 18t36.5 20.5t41 16.5t41.5 7q38 -2 61.5 -18.5t36.5 -36.5q1 -2 6.5 -6.5t5.5 -6.5zM308 31q5 9 10 22.5t9 27t5.5 26.5t0.5 22q-2 12 -9 19
t-10 12q-3 4 -2.5 9t-3.5 9q-15 14 -32 14.5t-41 -2.5q-14 -2 -31 -8t-34.5 -14.5t-34 -19t-28.5 -19.5q-5 -3 -12.5 -11t-15.5 -16.5t-14 -16t-7 -11.5q-2 -5 0.5 -21.5t5.5 -27.5q3 -14 10 -30t16.5 -30t21 -24.5t25.5 -13.5q9 -2 27 0t34 7q17 5 33.5 16t31.5 25t26.5 29
t18.5 27z" />
    <glyph glyph-name="seven" unicode="7" horiz-adv-x="415" 
d="M355 502q1 -5 -1 -15t-6.5 -22t-10.5 -25t-12 -24q-2 -2 -6.5 -3t-5.5 -3q-20 -43 -45.5 -90.5t-52.5 -98.5q-9 -16 -6 -20t13 -3.5t24.5 2t29.5 -3.5q17 -5 22.5 -15.5t1.5 -14.5q-6 -6 -11.5 -6t-10.5 2t-10.5 5.5t-9.5 4.5q-3 1 -10 2.5t-15 3t-16 2t-14 -1.5
t-12.5 -12t-13 -23t-12.5 -27t-11 -24l-24 -46t-19 -39q-3 -8 -2.5 -15.5t-3.5 -15.5q-5 -10 -14 -27t-17 -34q-4 -9 -9.5 -23.5t-13 -27t-17 -18.5t-21.5 2q-7 4 -3.5 20t11 35t16.5 37.5t13 29.5q6 16 9.5 25t5.5 16t5.5 15.5t9.5 23.5q9 19 21 45.5t22 51.5q0 1 1 4.5
t2 6.5q1 4 3 8q-1 1 -14 -1.5t-30.5 -6t-35 -6.5t-27 -3.5t-8 3t23.5 14.5q17 8 31 10.5t36 7.5q-1 0 2.5 0t8.5 1t10.5 2t8.5 3q8 5 17 19.5t18 32t17.5 35t15.5 29.5q5 8 7.5 15.5t10.5 15.5q2 2 5 8t6 13t6.5 14.5t6.5 13.5q6 9 12.5 17t12.5 19q1 2 7.5 13.5t14 25
t12.5 26t2 15.5q-5 6 -19 7.5t-33.5 0t-41.5 -5.5t-43 -8.5t-38 -8t-26 -4.5q-15 -2 -18 -4t1 -5t12 -6.5t14 -7t8 -7t-5 -6.5q-6 -3 -14.5 -2t-18.5 3.5t-19 5.5l-15 5l-15 5t-22 9.5t-13 11.5t13 11q17 4 45 9t58.5 9t58.5 7t46 5q21 2 42 5.5t40 3t32.5 -7t19.5 -25.5z
" />
    <glyph glyph-name="eight" unicode="8" horiz-adv-x="423" 
d="M303 282q-8 -19 -13.5 -36.5t-16.5 -43.5q-1 -2 -4 -7t-6.5 -10.5t-6 -10.5t-1.5 -8q2 -11 11 -13.5t19 -11.5q9 -8 12.5 -15t11.5 -15q11 -11 22.5 -22t20 -25.5t11 -34t-4.5 -47.5q-2 -9 -10.5 -20.5t-19.5 -22t-24 -20.5t-25 -16q-15 -8 -31.5 -14t-33 -9.5
t-31.5 -5.5t-26 -2q-20 1 -47 7.5t-45 17.5q-5 3 -13.5 6.5t-10.5 5.5t0 6t0 6t-6.5 0t-6.5 0q1 0 -2.5 7l-8 16t-9 17t-4.5 9q-5 23 -3.5 46.5t7 45.5t13 40.5t14.5 32.5q10 21 21.5 41t26.5 39q8 8 19.5 18.5t11.5 11.5t-2.5 5t-5.5 9t-6 9.5t-4 7.5q-8 21 -6 47.5
t12 49.5q2 5 8 8.5t10 10.5q3 5 2.5 12t3.5 12q11 15 31.5 31t42.5 30q20 13 41.5 23.5t49.5 13.5q17 1 31.5 -0.5t25 -8.5t15 -21t1.5 -37q-6 -46 -24.5 -85.5t-36.5 -79.5zM309 68q-2 3 -10.5 13.5t-19.5 22t-21.5 21t-14.5 10.5q2 -1 -0.5 -5t-7 -7t-11 -4t-12.5 4
q-5 4 0 14.5t0 22.5q-1 1 -10 8t-21 15t-24 17t-19 15l-2 2l-1 -1q-1 0 -1 -0.5t-2 -0.5q-5 -2 -7 -5t-5 -8q-27 -42 -45 -84t-22 -93q-2 -15 0 -30q1 -10 6 -23.5t12.5 -26t15.5 -22.5t15 -14q4 -2 14.5 -3t15.5 -3q32 -8 65 -1.5t60 22t45 37.5t20 46q0 5 -1 14t-3 18
t-4.5 17.5t-4.5 11.5zM224 184l3 7t7.5 18.5t10 24t10.5 23.5q10 25 17.5 45.5t12.5 34.5q7 19 17.5 44t17.5 49t7.5 44t-11.5 28q-5 3 -11.5 -1.5t-7.5 -4.5q-16 2 -32 -6t-23 -13q-24 -16 -41 -28.5t-26 -32.5q-1 -2 -6 -3t-6 -3q-7 -10 -14.5 -24t-12.5 -31t-7 -36t3 -37
q1 -4 3 -5t4 -2.5t5 -3.5t7 -8q5 -8 7.5 -17.5t4.5 -12.5q5 -6 15 -14.5t20 -16.5t17.5 -13t8.5 -5z" />
    <glyph glyph-name="nine" unicode="9" horiz-adv-x="342" 
d="M259 416q-6 -63 -16 -125t-20 -122t-19 -117.5t-13 -111.5q0 -8 0.5 -20l1 -24t-1 -22.5t-6.5 -13.5q-19 -13 -27 2.5t-10 40t-0.5 47.5t1.5 26q3 46 9 93.5t13 95.5t14 95.5t12 94.5q-17 -22 -29.5 -40.5t-25 -33.5t-27 -27t-34.5 -21q-32 -14 -53 -4t-26 47
q-3 23 -2 39.5t4.5 30t9 25.5t12.5 27q5 10 9.5 24t9.5 19q2 1 6 -0.5t6 0.5q3 4 2.5 9t3.5 9q8 7 20 13.5t23 10.5q28 12 50 13t41 -13q2 -1 5.5 -5t6.5 -8t5.5 -7.5t1.5 -3.5q1 0 6 5t11 10t13 7t13 -4q9 -11 5.5 -24.5t-5.5 -36.5zM191 398q2 8 -2 12t-4 12t4 13t2 12
q-4 14 -13 21t-17 9q-5 2 -7.5 -2t-4.5 -4q-17 -2 -34 -18.5t-31.5 -41t-23.5 -54t-9 -57.5q-1 -20 0 -35t12 -20q15 11 26 22q10 8 18.5 16.5l10.5 10.5q5 6 6.5 12.5t5.5 11.5t9.5 6.5t9.5 6.5t5.5 11.5t6.5 12.5q8 12 18.5 25t11.5 18z" />
    <glyph glyph-name="colon" unicode=":" horiz-adv-x="226" 
d="M103 103q4 -1 10.5 -4t12.5 -8t10 -11t3 -13l-2 -3q-5 -3 -18 -11.5t-26 -3.5q-3 2 -8.5 10t-6.5 10q-1 8 3.5 15.5t21.5 13.5v2v3zM98 175q-14 4 -14 18t14 21q18 9 25.5 3t6.5 -16.5t-9.5 -19.5t-22.5 -6z" />
    <glyph glyph-name="semicolon" unicode=";" horiz-adv-x="247" 
d="M134 109q3 -6 -1 -21.5t-12 -30.5t-19 -24t-22 -2q-3 2 -1.5 9t5 16t7 17t4.5 12q1 5 -2 15t2 14q5 5 17.5 7t21.5 -12zM124 173q-12 -5 -21.5 -0.5t-13.5 13t-2 19t13 17.5q7 5 15.5 6.5t13.5 -1.5q-1 1 -1 -8t1 -11q2 -11 4 -20.5t-9 -14.5z" />
    <glyph glyph-name="less" unicode="&#x3c;" horiz-adv-x="194" 
d="M133 65l4 -4t6 -8t0 -6.5t-13 0.5q-2 0 -4 2l-4 4q-8 5 -22 17t-22 19q-7 5 -14 11t-15 13q-7 5 -16.5 13.5t-9.5 10.5q0 10 12 13t28 11q2 0 2.5 2.5t1.5 3.5q4 1 8.5 2t9.5 4q2 0 2.5 2.5t1.5 3.5q4 1 7 1.5t8 4.5q2 2 2.5 3.5t4.5 2.5q15 2 18 -0.5t-1.5 -7.5
t-13.5 -11.5t-17 -10.5q-14 -8 -27 -12.5t-14 -8.5q-1 -5 7.5 -12t14.5 -12q8 -8 13.5 -12t12.5 -9l29 -30v0z" />
    <glyph glyph-name="equal" unicode="=" horiz-adv-x="288" 
d="M156 80q6 0 18.5 0.5t23.5 -1t18 -7t2 -16.5q-2 -3 -11 -4.5t-21 -1.5h-25h-21q-10 -1 -23.5 -4.5t-28.5 -6.5t-30.5 -4t-29.5 2q-9 2 -16 5.5t-10 8t-0.5 9t14.5 8.5q14 5 27.5 4.5t34.5 1.5q14 2 37 4.5t41 1.5zM206 172q13 -10 19 -19.5t-3 -17.5q-8 -6 -13 -3t-8 9
t-5 12t-3 7q-9 4 -31.5 5t-38.5 1q-13 0 -30 -2t-32 -4q-8 -1 -16 -4t-15.5 -5t-13.5 -2.5t-9 4.5q-5 7 2 12t17.5 7.5t21 3.5t13.5 2q13 2 28 4t29 2.5t26 0.5t20 -1q5 -1 17.5 -2.5t24.5 -9.5z" />
    <glyph glyph-name="greater" unicode="&#x3e;" horiz-adv-x="179" 
d="M26 198q8 5 14.5 -0.5t18.5 -10.5q4 -2 15 -6t23 -9.5t21.5 -11t10.5 -10.5q0 -4 -5.5 -10.5t-12.5 -13t-14 -12t-9 -8.5t-5 -8.5t-6 -10.5q-2 -2 -4 -3.5t-3 -3.5q-2 -4 -4.5 -8.5t-6.5 -9.5t-3 -5t-4 -3q-11 -5 -15 -1.5t-3 10t5 15t9 13.5q7 8 16 22t21 26q9 9 7 9.5
t-18 8.5q-5 2 -13.5 5.5t-17.5 8t-16.5 9.5t-8.5 10q-2 6 1.5 6t6.5 2z" />
    <glyph glyph-name="question" unicode="?" horiz-adv-x="516" 
d="M170 400q6 -1 4 -2q4 -1 9.5 -2.5t5.5 -0.5q-2 -7 -11 -9t-21 -2t-23 2t-17 4q-5 2 -9.5 7t-9.5 7q-8 5 -15.5 7t-8.5 3q-2 2 -2.5 7t-2.5 7q-12 13 -17.5 31.5t-5 39.5t6.5 42.5t16 40.5q11 21 29 43q4 6 7.5 9.5l7 7t8 7.5t11.5 9q2 3 6.5 8t7.5 7q5 3 12 4.5t12 4.5
q5 4 7 8.5t7 6.5q23 12 46.5 18.5t44.5 9.5q4 1 14 2.5t22 2.5t24.5 1t21.5 -1q15 -3 29 -10t26 -17t21.5 -21.5t14.5 -23.5q3 -8 4.5 -21t1.5 -29t-1.5 -32t-4.5 -28q-9 -31 -22.5 -57.5t-29 -51.5t-33 -48.5t-35.5 -48.5q-3 -5 -4.5 -9.5t-5.5 -9.5q-5 -8 -14 -14.5
t-14 -14.5q-4 -5 -6 -9.5t-4 -9.5q-3 -5 -7 -7.5t-7 -6.5q-21 -29 -41.5 -68t-40.5 -86q-14 -32 -26.5 -64t-21.5 -74q-1 -5 0.5 -9t2.5 -7.5t-1 -5.5t-11 -2q-11 -1 -16.5 4.5t-7 14.5t0 20.5t4.5 22.5q4 15 7.5 26.5t7.5 23.5t9.5 26t13.5 34q1 2 5 5t4 5q9 29 23.5 56.5
t29.5 53.5q6 11 10 20.5t9 17.5q6 9 14 17t15 17q10 13 19 25.5t19 26.5q3 5 5.5 10.5t4.5 8.5q7 10 15.5 15.5t13.5 13.5q3 5 4 12t5 12q3 5 7.5 7.5t7.5 7.5q10 15 22 38t21 50t11.5 56t-6.5 57q-8 21 -29 40.5t-43 21.5t-45 -4.5t-46 -14.5q-27 -10 -53 -28.5t-48 -42
t-37.5 -50t-19.5 -52.5q-6 -29 -0.5 -59.5t24.5 -45.5q4 -3 14.5 -7t28.5 -7q2 -1 11 -1.5t12 -0.5zM117 -146q21 10 30.5 2t9 -21.5t-11 -25t-28.5 -8.5q-8 1 -12.5 7.5t-5 14.5t2.5 16.5t10 14.5q1 0 2.5 -0.5t2.5 0.5z" />
    <glyph glyph-name="at" unicode="@" horiz-adv-x="682" 
d="M611 319q5 -37 -5 -78t-32 -79q-21 -38 -52 -71.5t-64 -49.5q-7 -4 -16.5 -8t-16.5 -6q-16 -5 -33 -5.5t-33 3t-29 11.5t-20 21q-1 2 -3 10t-4 8t-9 -7t-16.5 -16t-19.5 -17.5t-17 -10.5q-14 -4 -22 0t-11.5 11.5t-4.5 17.5t1 19q2 11 9.5 23t9.5 16l12.5 17.5t17.5 19.5
t22 15.5t26 7.5q4 0 11.5 -1.5t14.5 -5t13 -8t8 -9.5q7 -15 5 -31.5t-6 -31.5q-2 -8 -4 -9t1 -9l9 -9t12 -10q14 -7 29.5 -7t31 5.5t30.5 15t29 21.5q24 20 42.5 47.5t31.5 56.5t19.5 58.5t6.5 54.5q-1 62 -27.5 92.5t-69 35t-94 -13.5t-102 -51.5t-93.5 -80.5t-68 -100
q-7 -17 -14 -38.5t-12 -45.5t-6.5 -48t2.5 -44q9 -38 26 -66t39 -45q4 -2 8.5 -3.5t8.5 -4.5q5 -2 8.5 -6.5t5.5 -5.5q10 -5 24 -8.5t30.5 -5.5t33.5 -2.5t32 0.5q7 0 22 2.5l33 5.5t35.5 6t29.5 3.5t14.5 -1.5t-9.5 -9q-5 -3 -23.5 -12.5t-41.5 -13.5q-20 -5 -39 -3t-27 2
q-16 -1 -38.5 1.5t-45.5 6.5t-43.5 10t-31.5 13q-3 2 -3.5 3t-3.5 3q-5 3 -13.5 10.5t-16.5 17t-15.5 19t-11.5 16.5q-20 38 -22.5 78.5t3.5 75.5l3 17q1 2 4 3.5t3 3.5q8 64 44 122.5t87 104.5t111.5 75t116 34t100 -17.5t65.5 -80.5q7 -16 8 -35zM316 104q2 1 7 1t7 -1
q3 7 -1.5 16t-9.5 14q-6 10 -11 14.5t-15 3.5q-5 0 -7 -3t-4 -4q-13 -6 -19 -21t-11 -26q-2 -5 -5.5 -12.5t-5.5 -16t-1.5 -15t7.5 -7.5q1 0 4.5 4t7.5 9t7 9.5t4 4.5q3 3 7 6t7 7q8 8 14.5 11.5t17.5 5.5z" />
    <glyph glyph-name="A" unicode="A" 
d="M1046 1062q10 -3 10.5 -1.5t-1.5 -9.5q-2 -8 -7 -15t-6 -13q-3 -17 -11 -40t-18 -48.5t-20 -50t-16 -43.5q-9 -27 -16.5 -53.5t-15.5 -53.5q-7 -20 -11.5 -32.5t-6.5 -34.5q-2 -13 -8 -25t-9 -26q-51 -211 -78.5 -423.5t-44.5 -428.5q-5 -75 -8.5 -149t-2.5 -149
q0 -48 1 -91t25 -79q4 -7 9 -10t8 -5t4.5 -4.5t-1.5 -6.5q-9 -15 -19 -15t-19 6t-15.5 14t-7.5 10q-10 11 -13 15t-8 17q-6 16 -8 23.5t-5 24.5q-8 39 -7 86.5t3 95.5q2 62 6.5 122.5t11.5 121.5q4 34 2 63.5t6 63.5q3 12 5.5 29t4 35.5t3 36t3.5 31.5l15 138q3 32 7.5 62.5
t9.5 62.5q8 50 19 100.5t21 101.5q6 27 11 51.5t11 48.5t13.5 48t17.5 50q4 11 3.5 14.5t-8.5 -13.5q-18 -38 -40 -75.5t-42 -74.5q-65 -118 -128 -235t-129 -235q-18 -32 -47.5 -84.5t-66.5 -113.5t-78.5 -124.5t-83 -117.5t-80.5 -92.5t-71 -48.5q-41 -14 -69 -2.5
t-46.5 37t-30 59t-17.5 64.5q-14 78 -9.5 168.5t22.5 182t45.5 179t60.5 158.5q24 52 56 108.5t71 111.5t84.5 105t97 89.5t109 65t120.5 30.5q27 2 53.5 -2.5t49 -16.5t39.5 -31.5t26 -46.5q9 -33 8.5 -60.5t-5.5 -53.5t-13.5 -52.5t-17.5 -57.5q-5 -2 -4 -3.5t0 -4.5
q5 1 4.5 4t3.5 10q54 92 103.5 185t102.5 186q4 8 5 13t1 8t0.5 5t4.5 3q5 2 6 11t5 17q3 7 8 18t11 22.5t12 20.5t11 13q5 5 9 5.5t10 0.5zM675 399q7 13 4.5 12t-10.5 -13q-14 -23 -24.5 -37t-27.5 -34q-18 -22 -35 -42t-35.5 -37t-39.5 -32t-47 -28q-18 -8 -35.5 -10.5
t-31.5 14.5q-9 12 -3 18t18 8.5t25 2t19 -1.5q18 1 32 8t26.5 17.5t24.5 22.5l24 24l12 12t9.5 10t9 10.5t10.5 13.5q6 9 13.5 18t15.5 20l49 79q26 42 45 92.5t30 98.5q7 35 4 66t-15 66q-3 7 -10.5 17t-17.5 18.5t-20.5 14.5t-18.5 6q-11 0 -12.5 1.5t-4 3.5t-10 3
t-29.5 0q-26 -1 -53 -9t-53.5 -20t-51 -27t-44.5 -30q-26 -21 -53 -44q-6 -6 -9 -8.5t-5 -5t-4.5 -5l-8.5 -8.5q-18 -18 -37 -43t-37 -52t-35 -54t-30 -49q-5 -8 -8 -11t-4.5 -5t-2.5 -5t-2 -12q0 -5 -8 -20.5t-18.5 -35t-20.5 -39t-14 -31.5q-4 -13 -7.5 -22.5l-7 -19
t-7 -20t-7.5 -24.5q-13 -53 -26.5 -98.5t-24.5 -101.5q-7 -35 -11.5 -68.5t-7.5 -68.5q-3 -39 -6 -87t0.5 -96t16 -92.5t39.5 -75.5q9 -10 16.5 -13t15 -1t15.5 7.5t18 13.5q11 9 21.5 18t16.5 22q3 5 7 7.5t9 5.5t10.5 8.5t11.5 16.5q4 8 12 19.5t17 23.5t17.5 23.5
t14.5 20.5l21 30q48 68 92.5 144t88.5 151q14 23 29.5 51.5t32.5 48.5l7.5 10.5t3.5 6.5t1 7t1 12q1 6 3 6t4 -0.5t3 0t1 7.5t8.5 18t13.5 19q23 42 45 82t47 81zM716 478q-3 -7 -0.5 -8t0.5 3q1 1 3 4.5t3 6t0.5 2.5t-4.5 -6zM734 502q1 2 -3 2q-6 -4 -2 -7t5 5zM706 453
q2 1 2 5q-2 2 -3 1t-2 -3t-0.5 -3.5t3.5 0.5zM748 538q-3 -3 -0.5 -3t1.5 5q0 -1 -1 -2z" />
    <glyph glyph-name="B" unicode="B" horiz-adv-x="1614" 
d="M1476 50q24 -53 28.5 -104.5t-6 -101t-33.5 -97t-54 -91.5q-40 -57 -91 -111.5t-108.5 -103t-119.5 -90.5t-123 -74l-7 -3q-68 -33 -148 -65.5t-165 -56.5t-172 -34.5t-168.5 0.5t-155.5 48t-133 109q-2 3 -3.5 5t-3.5 6q-2 5 -5 9.5t-3 6.5q-21 63 -22.5 130t31.5 123
q19 31 36.5 55t37 44t43.5 36.5t57 32.5l5 4q9 4 18 9.5t22 12t31 13.5t44 15q6 2 28.5 7.5t47 11t45.5 7.5t24 -2q2 -5 -3 -8t-12.5 -5.5t-15 -3.5t-10.5 -2q-25 -9 -43 -13.5t-35 -8.5t-36 -9t-45 -15q-93 -45 -150 -102.5t-80.5 -118.5t-14.5 -120.5t47 -109t104 -84.5
t157.5 -46t207 5.5t252.5 70.5q63 25 120 51t116 61l5 4q13 9 29 19.5t31.5 21.5t31 21t28.5 16q7 3 10.5 6.5t6 7t5.5 8t11 10.5q12 8 20 13.5t15 11t14.5 12t18.5 17.5q18 18 34.5 35.5t33.5 35.5q4 4 11 12t14.5 17.5t13.5 18.5t6 15q1 6 3 6.5t4.5 0t5 0t4.5 6.5
q1 4 6 13.5t12 21t13 23t8 17.5q21 41 34.5 83t16 85t-8 85.5t-38.5 83.5q-17 24 -40 44.5t-52 30.5q-8 2 -9 3.5t-2.5 4t-7 5t-21.5 6.5q-58 12 -111 13t-105 -5.5t-103.5 -21t-105.5 -33.5q-21 -8 -41.5 -16.5t-40.5 -17.5q-4 -2 -6 -2.5t-4 -3.5q-3 -5 -0.5 -20.5
t6.5 -33t8 -32t4 -16.5q2 -25 3.5 -60t0.5 -69q2 -72 -1 -140t-17 -131q-3 -11 -7 -22t-10.5 -19.5t-15 -13.5t-19.5 -3q-15 2 -23.5 22.5t-14 48.5t-8.5 58.5t-6 54.5q-5 39 -9.5 66.5t-7.5 50t-5 44.5t-3 51q-5 75 -4.5 150t0.5 141q0 25 0.5 44t-1 35.5t-7 30.5t-17.5 29
q-35 40 -72.5 68t-79 47.5t-87 31t-96.5 17.5q-10 1 -31 4t-44 7t-42 9.5t-24 13.5q-5 13 7 27t33.5 28t49 27.5t53.5 24.5t47.5 19t31.5 12q27 10 65.5 23.5t74.5 24.5q12 3 36.5 9.5t50.5 14t47.5 15t27.5 12.5q7 4 8.5 12t0.5 17.5t-3.5 18.5t-3.5 17q0 -11 -7.5 -18
t-17 -10t-18.5 -2t-13 7q-6 7 -3.5 16.5t8 18.5t12 16t9.5 10q11 11 18 18.5t12 17.5q4 7 8.5 18t10.5 20t14 14t20 1q10 -4 12.5 -25.5t1 -48t-5 -52t-4.5 -36.5q1 -2 1 -12t-2 -12q35 3 60.5 6.5t48.5 4.5q46 6 106 10.5t123 4.5t122 -5.5t102 -19.5q14 -4 30 -11
t31 -17.5t26 -23.5t15 -29q4 -20 -1 -42t-14.5 -43t-22 -40t-24.5 -34q-4 -5 -7 -6t-9 -9q-12 -15 -19 -24.5t-13 -17t-14.5 -15.5t-23.5 -20q-27 -21 -50.5 -43l-47 -44t-48 -43.5t-53.5 -40.5q-9 -6 -13.5 -11t-8 -9t-7.5 -9t-12 -11q-9 -8 -24.5 -19.5t-32.5 -23.5
t-32 -22.5t-24 -14.5q-8 -4 -5.5 -5t8 -0.5t11.5 1.5t7 1q23 6 41.5 12t41.5 11q49 11 101 18.5t103.5 6t101.5 -14t95 -40.5q20 -14 36 -29t36 -29q3 -2 6 -7.5t6 -12t5.5 -13.5t4.5 -11zM762 109q76 56 150 118t149 122q25 20 43 40t44 40q36 28 69 64t63 71
q37 47 45.5 81.5t-3.5 58t-40.5 38.5t-64.5 23.5t-76 11.5t-75 4q-65 2 -123 -3.5t-126 -13.5q-8 -1 -24.5 -1.5t-33 -2.5t-30 -6t-15.5 -12q-3 -9 -5 -35.5t-4 -62.5t-3.5 -77t-2.5 -78.5t-1.5 -67.5t-0.5 -43l-1 -45q0 -18 -2.5 -32.5t1.5 -28.5q3 -14 7 -23.5t8.5 -18
t9 -18t9.5 -22.5q11 -28 17 -53t16 -28zM636 354q1 0 1 8t-1 17q-1 11 -3 24q2 31 3.5 68.5t3 75.5t4 75t7.5 67q4 22 5.5 32.5t-3 13.5t-17.5 0t-38 -8q-12 -4 -20 -7.5t-21 -7.5q-39 -9 -89 -23t-101 -31t-97.5 -37.5t-78.5 -42.5q-30 -21 -23.5 -29.5t36.5 -9.5
q12 -1 28 -3t33.5 -5t34 -6t28.5 -5q27 -5 57.5 -13.5t61.5 -20t60 -26t52 -30.5q4 -3 12.5 -11t18 -17.5t18 -19t13.5 -14.5zM747 -322q6 42 9 89t2.5 94.5t-6 95t-16.5 91.5q-2 7 -3.5 3t-2.5 -3q-6 1 -16.5 -4t-12.5 -8q-4 -6 -4.5 -18t0 -27t2 -31.5t2.5 -29.5
q4 -76 7 -146t15 -142q2 -11 4 -22.5t4 -17.5t4.5 -4.5t5.5 15.5q2 14 2 16v4.5t0.5 10.5t3.5 34zM700 68q-2 2 8 4.5t11 3.5q7 4 6.5 16.5t-5 28t-11 31.5t-10.5 27q-2 8 -1.5 12.5t-5.5 -2.5q-1 -1 0.5 -8.5t0.5 -9.5q1 -8 1 -23.5v-32t1.5 -30t4.5 -17.5zM861 144
q4 0 5 2t0 3.5t-3 1t-3 -4.5q-2 -2 1 -2zM728 -419q2 -2 4.5 1.5t-0.5 5.5q-2 2 -4.5 -1.5t0.5 -5.5z" />
    <glyph glyph-name="C" unicode="C" horiz-adv-x="1134" 
d="M1166 164q5 -5 1.5 -13.5t-10 -17t-13.5 -15.5t-8 -10q-5 -10 -13 -23l-16 -26q-38 -59 -79.5 -121.5t-85.5 -122.5t-89 -115t-90 -101q-14 -14 -27 -25.5t-27 -24.5q-4 -4 -6 -10t-6 -9q-5 -3 -9.5 -3t-8.5 -3q-4 -4 -6 -10t-6 -9q-3 -3 -8.5 -3t-9.5 -3
q-14 -11 -26.5 -25t-27.5 -25q-7 -5 -17 -9.5t-19 -10.5q-21 -14 -46.5 -29t-56.5 -28q-78 -33 -153.5 -37.5t-145.5 37.5q-6 3 -11.5 7.5t-13.5 9.5q-5 4 -13 6.5t-12 5.5q-3 3 -3.5 9t-2.5 9q-3 3 -15 11t-16 13q-5 7 -9.5 19t-10.5 23q-18 35 -29.5 83.5t-16.5 104
t-3.5 114.5t10.5 113q2 11 5.5 21.5t5.5 21.5q6 31 12.5 61t15.5 62q5 20 10.5 41t11.5 39q6 17 16.5 33t18.5 35t14 37.5t15 36.5q41 81 98.5 161.5t128.5 147.5t156 113.5t181 60.5q4 0 14 2t22 3.5t25 2.5t24 0q26 -2 52 -9.5t48.5 -18t40 -23.5t26.5 -25q7 -12 12 -23
q5 -9 8.5 -18t5.5 -13q3 -14 3.5 -31t-1 -34.5t-5 -34t-7.5 -29.5q-3 -11 -9 -25.5t-8 -17.5l-8.5 -8.5t-16 -13.5t-20.5 -13.5t-21 -8.5q-13 -3 -26 -5.5t-22.5 -0.5t-15.5 10t-4 25q2 20 12.5 22.5t23.5 2.5q10 0 13 -3.5t5 -7t5.5 -4.5t13.5 4q10 4 19.5 21t17 38.5
t12 44t3.5 37.5q-2 31 -16.5 55t-34.5 42q-32 27 -76 36t-92 4.5t-95.5 -21t-84.5 -39.5l-32 -20t-34 -24q-7 -5 -12 -12t-12 -13q-33 -28 -65.5 -59t-60.5 -66q-40 -51 -81.5 -116t-71.5 -132q-13 -29 -23.5 -55.5t-22.5 -61.5q-17 -48 -33.5 -107t-29 -124t-17.5 -131.5
t1 -129.5t25.5 -119t56.5 -98q23 -26 63.5 -42.5t89.5 -18.5q47 -3 95.5 10.5t96.5 38t94.5 57t88.5 68.5t79 72t66 68q38 45 71 88.5t65 89t63.5 93.5t66.5 102q12 18 17.5 26.5t9.5 14t6.5 9.5t8.5 12l6.5 10t15 21t17.5 18t15 1z" />
    <glyph glyph-name="D" unicode="D" horiz-adv-x="1594" 
d="M1427 522q25 -51 37.5 -115.5t5.5 -152.5q-3 -37 -11.5 -74t-21 -73t-28 -69.5t-30.5 -62.5q-11 -20 -21 -39t-21 -36q-8 -12 -20.5 -24.5t-22.5 -26.5l-12 -19q-38 -49 -85.5 -96.5t-97.5 -89.5q-19 -15 -42 -38q-4 -4 -9 -6.5t-10 -6.5q-3 -3 -10 -7.5t-15 -10l-16 -11
t-13 -10.5t-10 -7t-9 -6q-5 -5 -21 -12.5t-27 -14.5q-19 -11 -37 -22.5t-43 -23.5q-45 -23 -100.5 -44t-116.5 -38t-125 -27t-127 -10.5t-122 11.5t-110 39q-5 2 -10 6t-9 6q-3 2 -8.5 2t-9.5 3q-4 2 -6 8.5t-6 9.5q-5 2 -10 1.5t-9 3.5q-3 2 -2.5 5.5t-3.5 6.5q-5 4 -14 15
t-16 20q-11 15 -19 37t-11 47t-0.5 51t11.5 48q3 7 2.5 7t3.5 5l4.5 9t7 15.5t7 16t5.5 9.5q11 14 29 29t38 29q8 5 17.5 13t19.5 13q11 6 21.5 8t20.5 7t26.5 14.5t34.5 18.5q14 7 29.5 14.5t38.5 12.5q-3 0 2.5 2t14 4t16 2t9.5 -6q1 -3 -9.5 -7.5t-24.5 -10t-27.5 -10
t-17.5 -6.5q-9 -4 -27 -16.5t-40 -23.5q-11 -5 -22.5 -7t-20.5 -7t-21 -14t-21 -18l-7 -7q-8 -5 -20.5 -13t-21.5 -19q-3 -4 -3 -9.5t-3 -9.5q-17 -19 -32 -55t-11 -81q3 -35 18.5 -62.5t30.5 -45.5q58 -68 157.5 -91.5t239.5 -6.5q26 3 49.5 9.5t48.5 12.5
q71 18 129.5 41.5t120.5 55.5q19 11 40.5 20.5t38.5 20.5q2 1 3 6t3 6l12 6t13 8q10 6 19 10t17 10q9 6 15 15t16 16q5 4 6.5 4t5.5 3q4 4 10 5.5t14 7.5q4 4 6 10.5t6 8.5q5 4 10 4t9 3q4 4 6 10t6 9q6 5 11 9t13 11q27 22 54.5 50.5t53.5 59.5t49.5 64.5t43.5 66.5
q42 70 74.5 156t40.5 180q7 78 -9.5 142t-45.5 112q-3 5 -2.5 6.5t-3.5 5.5q-5 5 -14 21t-17 26q-12 16 -28 30t-33 29q-8 6 -15.5 14.5t-15.5 14.5q-38 27 -82.5 48t-92 37t-95 27t-90.5 18q-40 7 -93 12t-114 6t-127 -3.5t-130 -16.5q-14 -3 -27.5 -7t-27.5 -8
q-22 -5 -40 -9.5t-34.5 -9t-34 -10.5t-37.5 -14q-19 -8 -44.5 -20t-48.5 -27t-38.5 -31.5t-15.5 -32.5q1 -15 12 -25.5t27 -18t33.5 -13t31.5 -11.5q23 -9 46 -18.5t46 -20.5q58 -29 120 -70t106 -91q3 -4 3 -9t3 -9q2 -2 6.5 -3t6.5 -3q2 -3 2.5 -8.5t3.5 -9.5q2 -2 6 -2.5
t6 -2.5q1 -1 3 -6.5t4.5 -12l5 -13t5.5 -10.5q7 -9 10.5 1.5t5 29t2 39.5t0.5 34q2 36 3.5 65.5t2.5 45.5q2 30 3 61.5t4 58.5t9.5 46t19.5 25q20 8 35.5 -3.5t26.5 -30.5q3 -5 6.5 -16t5.5 -24t2.5 -25.5t-2.5 -19.5q-3 -6 -3.5 -8.5t-2 -3t-5.5 -0.5t-13 -1
q-10 -1 -13.5 2.5t-11.5 -3.5q-9 -9 -12.5 -33t-4.5 -53.5t-0.5 -59.5t-0.5 -51q-2 -53 -6 -105t1 -97q4 -35 14.5 -69t16.5 -70q5 -35 7 -71.5t5 -81.5q2 -29 5.5 -72t1.5 -92q-1 -18 -1.5 -43t-2 -49t-3.5 -41.5t-5 -20.5q-13 -9 -21.5 1.5t-14.5 28t-9 36t-4 24.5
q-8 40 -14 86t-10.5 94t-8 97t-5.5 94q-1 25 0 56t1.5 62.5t-2 59.5t-11.5 48q-2 2 -7 5.5t-6 5.5q-4 14 -7 22t-11 20q-7 11 -11 21.5t-14 20.5q-2 2 -6 3t-6 3q-3 4 -2.5 9t-3.5 9q-2 2 -6 2.5t-6 2.5q-10 12 -18.5 25t-18.5 23q-9 8 -22.5 16.5t-26.5 17.5
q-11 8 -21.5 17.5t-21.5 17.5q-6 4 -14.5 5t-15.5 6q-6 3 -9.5 8.5t-9.5 8.5q-17 9 -40.5 16.5t-44.5 16.5q-2 1 -6 6t-6 6q-5 1 -10 -1t-9 0q-6 2 -11.5 8.5t-12.5 8.5t-15.5 2t-15.5 3q-13 5 -27.5 12t-27 16t-21 19t-9.5 22q-2 25 22.5 49t59 44t71.5 35t60 23
q39 14 74 25t66 18q41 8 82.5 11.5t88.5 8.5q59 6 121.5 6.5t124.5 -4t120.5 -14t109.5 -22.5q33 -9 62.5 -22.5t59.5 -26.5q11 -5 19.5 -5.5t17.5 -5.5q72 -36 138.5 -92t106.5 -135zM610 -60q-5 -14 -4.5 -33t3 -37.5t5.5 -33t3 -18.5q1 -20 0.5 -22.5t-1.5 -1.5t-1 -3
t2 -28q0 -5 0.5 -12t1 -11.5t1.5 -3t3 14.5q1 8 0.5 28t-1.5 42t-2.5 42t-2.5 29q0 3 -0.5 12.5t-1.5 19.5t-2 15.5t-3 0.5z" />
    <glyph glyph-name="E" unicode="E" horiz-adv-x="1247" 
d="M1270 164q2 1 5 1.5t4.5 -1t0.5 -5t-6 -9.5q1 -3 -17.5 -25.5t-50.5 -57.5t-74 -78.5t-86.5 -89t-89 -90t-81.5 -80.5t-64 -61t-37 -32q-61 -45 -129 -94t-138 -92t-139 -74.5t-132.5 -39.5t-119.5 12t-100 79q-12 25 -14.5 57.5t0.5 61.5q2 20 7 36t14 39q2 6 2.5 13.5
t3.5 13.5l36 63q13 24 30 50.5t36 52t37.5 49t34.5 40.5q23 25 56.5 57t71 64t76.5 62t73 52q2 1 10.5 5t11.5 4q-4 4 -30 1.5t-57.5 -7.5t-60 -10t-38.5 -6q-29 -2 -63 -0.5t-68 7.5t-64.5 17.5t-52.5 30.5q-23 19 -37 58.5t-7 85.5q1 5 7.5 21.5t12.5 26.5l1 1q1 1 1 1.5
t1 1.5q1 2 2 3q2 4 1 10t1 10q3 7 11 13.5t13 15.5q2 4 1 10t1 10q2 3 5 7t5 7q7 11 17 18t18 18q14 18 26.5 38.5t30.5 39.5q5 6 11 8t11 7q2 2 1.5 7.5t1.5 6.5q18 11 41 30.5t44 36.5q45 36 102.5 73t121 68t131.5 53.5t135 30.5q3 1 6.5 1h6.5q52 9 98.5 9t94.5 -14
q32 -10 55 -21.5t33 -38.5q9 -25 3 -48.5t-19.5 -44.5t-30.5 -38t-30 -29q-12 -11 -33 -22t-44 -24q-7 -4 -16 -10.5t-22 -12.5q-7 -3 -15.5 -6.5t-15.5 -6.5t-11.5 -4.5t-3.5 0.5q-3 -8 6 -16.5t20.5 -17t18.5 -16t0 -13.5q-2 -1 -14 5t-27 12q-4 1 -21.5 6t-36.5 12
t-33.5 16t-13.5 18q1 7 16 12t35 9t40 7.5t32 7.5q18 7 43 23t44 31q15 11 24 18.5t23 24.5q4 5 11.5 15.5t14 23t10 26t0.5 25.5q-7 24 -29 38t-54 20t-70 5t-77 -7q-73 -11 -143.5 -36.5t-122.5 -51.5q-23 -11 -48 -26.5t-51.5 -33.5t-52 -37.5t-48.5 -38.5
q-20 -17 -42.5 -37t-45.5 -43q-20 -21 -37.5 -45t-34.5 -48q-14 -20 -33.5 -44.5t-32.5 -53.5q-6 -14 -11.5 -31.5t-9 -34.5t-4 -33.5t3.5 -29.5q12 -42 45 -62.5t77.5 -27t95.5 -3t98 9.5l30 5t39 7.5t43 9.5t42 10q33 9 52 14.5t41 13.5q10 3 21 3t17 -3t2.5 -9.5
t-22.5 -16.5q-7 -3 -20 -10t-27.5 -14.5t-26 -14t-15.5 -8.5q-27 -16 -47.5 -29t-38.5 -26t-35.5 -26.5t-39.5 -30.5q-13 -11 -27.5 -19t-26.5 -19q-6 -5 -9.5 -14t-8.5 -14q-7 -6 -15 -8.5t-13 -7.5q-12 -12 -20 -25.5t-19 -24.5q-3 -3 -8 -4t-9 -4q-17 -14 -33.5 -38
t-34.5 -47q-14 -19 -29.5 -37t-27.5 -41q-17 -32 -36 -67t-32 -79q-10 -35 -12 -66.5t15 -71.5q49 -43 111 -50.5t132 11t146 59.5t153 95.5t152.5 118t145 127.5t130 124.5l108.5 108.5l79.5 79.5t43.5 37.5z" />
    <glyph glyph-name="F" unicode="F" horiz-adv-x="1106" 
d="M1538 1188q13 2 39.5 5.5t59 7t66.5 5t61.5 -1.5t44 -11t15.5 -23q-1 -12 -11.5 -18t-25 -9t-31.5 -6t-31 -10q-4 -2 -8.5 -6t-7.5 -6q-11 -5 -22 -7.5t-19 -7.5q-5 -4 -10.5 -10.5t-13.5 -11.5q27 16 35.5 20t5.5 1t-14.5 -10.5t-25 -14.5t-25.5 -10t-15 2q-2 3 1 8
t9 10.5t12 10.5t10 7q14 10 27 13.5t19 7.5q4 2 7 8t9 10q1 1 11.5 5t22.5 9.5t21 10.5t8 8q-2 4 -12.5 5.5t-24.5 2t-29.5 0t-26.5 -1.5q-41 -2 -77 -5.5t-71 -8.5t-70 -10.5t-73 -11.5q-79 -11 -167 -26t-177 -32.5t-174 -37t-158 -39.5q-12 -4 -24.5 -5.5t-23.5 -5.5
q-68 -20 -143.5 -46t-144.5 -54q-9 -4 -19.5 -7t-21.5 -8q-14 -7 -30.5 -15.5t-38.5 -18.5q-11 -5 -31.5 -15t-44.5 -22.5t-49 -27t-44.5 -29t-32 -28t-11.5 -24.5q2 -16 18.5 -25t36.5 -18q19 -8 32 -12.5t24 -8l22 -7t26 -9.5q3 -2 6.5 -5t6.5 -4q11 -5 22 -10.5t24 -11.5
q8 -4 17.5 -6.5t15.5 -6.5q22 -13 45.5 -31t45.5 -37t40 -37.5t30 -33.5q19 -23 43 -62t44 -79q3 -6 7.5 -14.5t8.5 -17t6.5 -14l2.5 -5.5q1 0 11.5 1.5t25 3.5t29.5 5l25 5q14 3 20 9.5t7.5 17t1 26t1.5 36.5q2 11 4 21t3 18q2 22 4 38.5t4 37.5q3 28 6 62.5t6.5 70.5t7 70
t5.5 62q3 38 9.5 77.5t6.5 74.5q0 17 -6 29.5t-2 23.5q7 17 16 24t24 2q15 -6 19 -29t2.5 -50.5t-5.5 -53.5t-5 -38q-5 -56 -8 -107t-7 -101.5t-8 -103t-10 -110.5q-2 -8 -4 -18.5t-3 -19.5q0 -5 -0.5 -12t-0.5 -14t0.5 -12l0.5 -5q6 -6 16 -6t21 3t21.5 6.5t19.5 4.5
q37 5 67.5 8.5t57.5 4t52.5 -3.5t51.5 -13q2 -1 3.5 -5t3.5 -5q19 -5 25.5 -12.5t2 -13t-18.5 -7.5t-35 4q-4 1 -10 6.5t-11 7.5q-19 7 -32.5 10.5t-29.5 4t-37.5 -2t-55.5 -6.5q-17 -2 -35.5 -4t-35 -4.5t-28.5 -4.5t-15 -5q-2 -1 -4 -17t-4.5 -38t-5 -46t-3.5 -40
l-19 -179q-1 -7 -3 -42t-4.5 -83.5t-6 -104.5t-6 -105.5t-5.5 -86.5t-4 -48q-1 -9 -4.5 -23.5t-11 -28t-20.5 -22.5t-32 -6q-17 3 -18.5 22t-3.5 51q-1 18 3 55t9.5 85.5t11 105.5t7 116t-2.5 117.5t-17 109.5q-4 19 -10 40l-14 49q-2 7 -6 19.5t-8.5 25t-8.5 22t-6 10.5
q-10 5 -18.5 -1t-23.5 -9q-9 -2 -24.5 -2t-18.5 -2q-6 -6 -2 -10t9.5 -8t8.5 -7t-5 -6q-11 -5 -16 -4.5t-8.5 2.5t-7 5t-12.5 3q-5 0 -24.5 -2t-42 -3t-41.5 0t-22 7q-3 8 9.5 13t31.5 8.5t41 6.5t37 6q11 2 26 7.5t33 9.5q20 5 39 7.5t21 4.5q1 2 -4.5 14.5t-13.5 27
t-15.5 28t-9.5 17.5l-24 40q-26 42 -59.5 81t-72.5 71q-2 2 -7 2.5t-6 1.5q-4 6 -6.5 8.5t-7.5 6.5q-11 8 -30.5 20t-36.5 21q-14 8 -35 16t-38 19q-4 3 -12.5 5.5t-19.5 7.5t-27.5 8t-31.5 13q-7 4 -19.5 7.5t-25.5 8t-23 12.5t-13 22q-2 14 7.5 27.5t26.5 26t38.5 25.5
t42.5 25q41 23 76.5 43.5t66.5 35.5q158 75 338.5 128.5t381.5 92.5q27 5 54.5 8.5t54.5 8.5q96 17 209.5 36.5t229.5 31.5q3 0 6 0.5t6 0.5zM583 223q-2 -2 1 -11.5t7 -21t8.5 -23t6.5 -17.5q13 -42 21.5 -78t16.5 -68q0 -2 2 -10l3.5 -14t2.5 -6t1 15q0 6 1.5 9t2.5 7
q4 42 7.5 84.5t7.5 73.5q2 20 6.5 37t2.5 28q-1 7 -3.5 9.5t-5 2.5t-4.5 -1.5t-1 -1.5q-5 1 -19 -1t-28.5 -5t-25.5 -5.5z" />
    <glyph glyph-name="G" unicode="G" horiz-adv-x="1111" 
d="M1178 -316q1 -7 -9.5 -10t-23.5 -4t-24 -0.5t-12 0.5q-28 -3 -45.5 -5.5t-31.5 -5.5t-28 -6.5t-35 -9.5q-8 -2 -22.5 -4.5t-30 -4.5t-28.5 -5t-18 -7q-9 -7 -14.5 -16.5t-9.5 -19.5t-9 -20t-12 -17l-2.5 -4t-5.5 -9t-5.5 -9.5t-3.5 -5.5q-6 -11 -10.5 -20t-9 -17.5
t-10 -17t-13.5 -18.5q-41 -57 -91.5 -103t-113.5 -77q-27 -14 -58.5 -21t-61.5 -6t-55.5 10t-40.5 27q-14 18 -16.5 37t1.5 37t12.5 33.5t17.5 26.5q30 40 73.5 68t92.5 48.5t100 36t97 29.5q7 2 22.5 6.5t31.5 9.5t29.5 10.5t17.5 10.5q11 18 22 51t20 70t16 72.5t11 58.5
q6 33 10.5 62.5t8.5 58.5t6 59t2 64q0 18 3 26t5 25q2 48 1.5 98t-2.5 98q-4 170 -24 340q-17 -81 -41.5 -167t-53.5 -171.5t-63 -168.5t-70 -157q-3 -7 -3 -11v-5.5t-1.5 -2t-8.5 -1.5q-6 -1 -1.5 -5t2.5 -9q-1 -3 -5 -9.5t-9 -14l-10 -15t-8 -11.5q-27 -48 -54 -90.5
t-62 -84.5q-24 -29 -50.5 -54.5t-57 -42.5t-65 -24t-75.5 1q-38 7 -66 24t-49.5 41t-38 54t-31.5 62q-10 20 -18.5 41t-15.5 43q-16 49 -27 108t-16 120.5t-3.5 121.5t9.5 112q1 6 -1 9l-3 4.5t-0.5 3t6.5 4.5q5 4 5.5 16t1.5 18q2 20 7.5 49t10.5 50q7 31 24 75.5t39 89.5
t46.5 84.5t47.5 61.5q9 9 12.5 15t6 11.5t6.5 11.5t16 15q17 14 30.5 24.5t32.5 22.5q17 11 30 22t29 22l21 12q18 7 40.5 15t46 13.5t47 7.5t42.5 -1q18 -3 30 -5.5t23 -6.5t23 -9t29 -12q39 -17 68 -45.5t48 -64t28.5 -76t9.5 -80.5q0 -53 -14 -107q-5 -19 -8.5 -37
t-9.5 -30q-4 -8 -15.5 -21.5t-26 -25.5t-30 -19t-27.5 -2q-7 3 -8 10t1.5 14.5t5.5 14t3 8.5q2 6 3.5 14.5t4 16t5.5 13t8 6.5q9 1 13.5 -7t5.5 -18.5t0 -21t-4 -13.5q8 2 16.5 17t16 33.5t13 36t7.5 25.5q6 27 11 55.5t3 46.5q-1 11 -3 25.5t-5 29t-6 27t-6 19.5
q-15 33 -39.5 64t-56 53.5t-68.5 35t-75 9.5q-44 -3 -86 -15q-36 -12 -68.5 -34t-61.5 -49t-54 -58t-47 -61q-8 -12 -19 -31.5t-21.5 -40.5t-19 -41.5t-11.5 -34.5q-3 -13 -5 -20.5t-4.5 -13.5t-5.5 -12.5t-9 -18.5q-5 -11 -7 -17.5t-2 -12t-0.5 -12t-2.5 -17.5
q-6 -32 -12.5 -59.5t-11.5 -61.5q-7 -56 -10.5 -104.5t-0.5 -105.5l1 -4q2 -36 7.5 -82.5t16 -96.5t26 -100t37.5 -94t50.5 -77.5t64.5 -50.5q22 -10 42.5 -8.5t39.5 9.5t36.5 21.5t34.5 27.5q13 11 24.5 21t22.5 23q15 18 29.5 41t28.5 43q66 95 119 207.5t95 220.5
q9 23 16 47t9 44q0 2 5 4t5 4q4 12 7.5 27.5l7 31t7.5 29.5t9 23q2 5 2.5 10.5t2.5 10.5t1 7t1 7q2 9 9.5 17t9.5 19q3 11 1 23t1 24q5 20 11 40t11 43q2 14 5 38.5t7 48.5q3 17 6 35.5t10 27.5q13 16 22.5 13t16 -17.5t10.5 -36t6.5 -44t3.5 -41.5t2 -27q11 -115 19.5 -238
t7.5 -247t-16 -245t-52 -232q-6 -19 -8 -35.5t-10 -34.5t-13 -27t-3.5 -12t12.5 -1.5t35 6.5q47 8 95.5 18.5t94.5 21.5q2 0 3 1l10 -1t22 -2t22 -2t10 -2zM791 -441l6 12t8 19.5t2 14t-13 -4.5q-4 -3 -4 -4v-1h-1.5t-8.5 -1q-8 -1 -18.5 -4t-22 -6.5t-22.5 -7.5t-20 -7
q-51 -16 -101 -34t-98 -43q-47 -25 -85 -55.5t-50 -69.5q-11 -37 0 -61t35.5 -35.5t58 -11t66.5 14.5q47 20 87 54.5t73 71.5q3 3 9 8.5t12 11.5t10 11.5t4 9.5q0 7 2 9t5 3t7 3.5t8 11.5q11 23 25 45t26 46zM901 733q2 -1 5 2.5t-1 5.5q-2 1 -4.5 -2.5t0.5 -5.5z" />
    <glyph glyph-name="H" unicode="H" horiz-adv-x="1400" 
d="M1369 281q2 -6 -7.5 -8.5t-23 -3.5t-27.5 -1t-20 -1q-26 -5 -34 -7t-12 -4t-9.5 -5t-26.5 -9q-15 -4 -26 -7.5t-21.5 -7.5t-22.5 -8l-27 -9q-2 0 -10 -2t-17 -4t-16.5 -4t-8.5 -3q-4 -5 -5 -18.5t-0.5 -32.5t1 -41t-0.5 -42q-1 -39 -3 -98t-4.5 -128t-5.5 -143.5
t-5.5 -144.5t-4.5 -130.5t-3 -101.5q0 -11 1.5 -29t3 -37.5t1.5 -39t-3 -34.5q-3 -13 -5.5 -17.5t-13.5 -7.5q-21 -7 -29.5 5t-10 32t1.5 42t3 36q2 78 2 152t-0.5 147.5t1 146t6.5 147.5q2 26 -1 60t-1 69q1 29 2.5 59t2.5 55t1 42.5t-3 20.5q-2 3 -16 -0.5t-31.5 -9.5
t-35 -12.5t-27.5 -9.5q-29 -11 -45 -17.5t-40 -14.5q-32 -13 -76.5 -30t-91.5 -34q-16 -6 -28 -9.5t-31 -9.5q1 0 -3 -1t-9 -3q-6 -2 -14 -3q-3 -5 -4 -24t-0.5 -42.5t1 -45.5t-0.5 -34q-3 -42 -9 -76t-8 -59q-3 -37 -2.5 -74t-7.5 -67q-8 -27 -22 -46.5t-37 -31.5
t-56.5 -16t-79.5 -1q-17 2 -38 7.5t-40 10.5q-15 4 -31.5 7.5t-34.5 9.5q-19 6 -41.5 15t-43.5 20l-20 12q-19 10 -34.5 23t-23.5 29t-6.5 36.5t16.5 45.5l7.5 12t10.5 12q13 15 31.5 31.5t39 32.5t41 30t37.5 25q26 16 64 36t72 39q7 4 17.5 9.5t22.5 11.5t25 12t25 12
q9 4 21 9t23 9.5t19 8t9 4.5l0.5 7.5t1.5 18t2 21.5t1 20q1 17 1.5 32t0.5 30t0.5 31t1.5 36q2 16 6.5 30.5t5.5 24.5q10 88 16.5 183.5t16.5 195.5q3 33 5.5 55t4 41.5t3 41t3.5 52.5q2 18 4 32.5t2 16.5q2 32 2 41t1 15q-1 -1 -0.5 7t3.5 17.5t9 17t16 6.5q9 -2 13 -5
t5 -9t1 -14.5t1 -19.5q5 -51 2 -101.5t-5 -88.5q-8 -114 -20.5 -230t-23.5 -235q-3 -27 -2 -55.5t-2 -66.5q-1 -8 -4.5 -26t-6 -37t-3.5 -34.5t2 -18.5q2 -2 19.5 3t37.5 12.5t38 14t22 8.5q15 5 40 15t45 17q18 6 42 14.5t50 18t52.5 19.5t49.5 18q4 1 12 4t17 6t15.5 5.5
t7.5 3.5q3 6 4 20t1 32t-0.5 37t0.5 34q2 32 3 60.5t2.5 56t4 56t5.5 59.5q8 76 21.5 160t25.5 165q4 26 9 56.5t8 53.5q2 15 1.5 32.5t2 33.5t9.5 28t25 16q-2 0 0.5 1.5t7 2.5t9.5 0.5t9 -3.5q6 -6 8.5 -25.5t5.5 -35.5q7 -38 10 -72t12 -74q2 -11 4.5 -23t5 -22t3.5 -16
l1 -6q-8 -7 -15 -2.5t-13.5 16t-12 27t-10 30t-7 25.5t-2.5 13q-2 16 -4 16t-4 -7t-3 -17.5t-2 -16.5q-6 -35 -10.5 -74.5t-9 -80t-8 -81t-6.5 -76.5q-5 -65 -10.5 -132.5t-10.5 -148.5q-1 -15 -2 -31t-2 -29t-1.5 -22t0.5 -10q0 1 23 9t57 18.5t74 21.5t74.5 17.5t57.5 5.5
t24 -13zM467 -264q2 78 3.5 134t5.5 98q0 6 -24 -3.5t-60 -28t-78.5 -42.5t-80.5 -46.5t-66 -39.5t-34 -22q-8 -7 -20 -17t-19 -14q-11 -7 -22.5 -19t-21 -26.5t-15.5 -30t-4 -29.5q2 -18 10.5 -28.5t19.5 -18t23 -13t20 -12.5q5 -4 6 -3.5t7 -2.5q24 -13 44 -21.5
t40.5 -14.5t45.5 -9.5t60 -6.5q17 -2 33 -4.5t33 -0.5t32 3.5t26 9.5q8 6 14.5 26t11 48.5t7 63.5t3.5 70z" />
    <glyph glyph-name="I" unicode="I" horiz-adv-x="433" 
d="M299 922q8 -57 7 -111.5t-2 -106.5q-2 -130 -7.5 -253.5t-12.5 -250.5q-8 -183 -20 -366.5t-16 -381.5q-2 -18 -3.5 -38t-0.5 -40q0 -7 -1.5 -16.5t-5 -17.5t-10 -12t-16.5 0q-7 3 -10 12.5t-4.5 23t-1.5 29.5v31q0 31 -0.5 39t-0.5 12t0.5 12.5t2.5 39.5q2 60 5 109
t5 84q4 122 6 217.5t7 182.5q4 82 8.5 155t8.5 143.5t7 141t5 147.5q1 51 1 103t-5 103q-2 13 -5.5 33.5t-8.5 37.5q-9 29 -18.5 39.5t-21 8t-25.5 -15.5t-33 -31q-10 -10 -19 -15t-15 -12q-5 -6 -9 -14.5t-12 -18.5q-9 -13 -22.5 -32t-24.5 -41q-6 -13 -13 -28.5t-10.5 -32
t-3 -32.5t8.5 -30q0 -1 5.5 -2.5t10 -3.5t5.5 -5.5t-6 -7.5q-3 -2 -10 -1.5t-14.5 3.5t-14.5 8.5t-10 12.5q-3 6 -4 16t-1 20t1 19.5t2 15.5q2 13 8 28.5t12.5 29.5t13 25t9.5 16q11 19 26.5 40.5t33.5 42t37.5 37.5t39.5 28q2 2 6 0.5t6 -0.5q4 1 13 3.5t19.5 4t21.5 1
t20 -4.5q11 -5 20 -19.5t16.5 -33.5t12.5 -40t7 -40z" />
    <glyph glyph-name="J" unicode="J" horiz-adv-x="1180" 
d="M1248 929h24t36.5 -2t31.5 -7.5t10 -16.5q0 -1 -12 -1t-26 0.5t-26.5 0.5h-15.5q-91 -6 -156 -23t-114 -36q-6 -2 -2.5 -17t8.5 -36q7 -32 13 -71t11 -81t8.5 -84.5t6.5 -79.5q12 -186 5.5 -356t-42.5 -307q-11 -45 -28.5 -84t-34.5 -77q-3 -5 -2.5 -7t-2.5 -6
q-4 -5 -5.5 -10.5t-4.5 -9.5q-4 -5 -5.5 -10t-5.5 -10l-3 -3q-1 -1 -2 -3q-50 -93 -125.5 -163.5t-178.5 -113.5q-33 -14 -79.5 -27t-97.5 -16t-101.5 9.5t-91.5 48.5q-16 14 -23 25t-20 34q-1 2 -7 8t-6 8q-31 80 -21 152.5t46.5 135.5t91.5 115.5t113.5 93t112 67.5
t86.5 40q38 14 83 10t85 -33q1 -1 10.5 -6.5t18.5 -13.5t14.5 -17t-0.5 -16q-7 -8 -17 -2.5t-21 15.5t-22 21t-19 16q-15 8 -33.5 10t-37 -0.5t-35 -7.5t-28.5 -10q-34 -15 -83.5 -44.5t-101 -70t-99.5 -90.5t-79.5 -105.5t-40.5 -115.5t17 -120q1 -6 5 -16.5t9 -22.5
t11.5 -23t13.5 -19q5 -5 9.5 -4.5t9.5 -3.5q4 -3 11.5 -11.5t15.5 -12.5q25 -10 56.5 -12.5t64.5 0t64 9t54 15.5q41 16 81 41.5t69 48.5q52 41 94 92t76 114q11 20 18 42.5t16 44.5q2 7 8 10.5t8 8.5q6 14 9 35.5t8 39.5q39 140 52 326.5t-3 397.5q-2 35 -3 68.5t-4 64.5
q-2 19 -5 30.5t-6 22.5t-5 26t-3 40q0 18 3.5 30.5t-1.5 18.5q-3 3 -20 -0.5t-37 -9.5t-38 -12.5t-25 -7.5q-11 -3 -19.5 -2.5t-17.5 -1.5q-18 -5 -39.5 -13.5t-43.5 -13.5q-16 -4 -32.5 -3.5t-34.5 -3.5q-7 -2 -14 -5.5t-15 -5.5q-50 -11 -96.5 -21.5t-95 -21t-100.5 -20
t-112 -17.5q-8 -1 -23.5 -4t-34.5 -5.5t-40 -2.5t-42 5q-12 3 -32.5 8t-31.5 19q0 -1 -2.5 4t-5.5 10q-4 6 -8 15q-2 17 10 27q6 5 20.5 5.5t22.5 -9.5q6 -6 6 -12t-0.5 -11.5t1 -10.5t10.5 -9q6 -3 19 -4.5t28 -1.5t30.5 0.5t27.5 1.5q5 1 10.5 6t12.5 6q32 5 62 8.5
t53 8.5q57 11 105.5 22t94 21.5t92 21.5t98.5 23q52 11 108.5 23t107.5 32q5 2 15 1t15 3q3 2 4 10.5t6 9.5q7 2 14.5 -4t17.5 -6q14 0 34 8.5t38 12.5q36 9 56.5 14t37.5 7.5t36.5 3.5t54.5 1z" />
    <glyph glyph-name="K" unicode="K" horiz-adv-x="1014" 
d="M1439 909q4 -5 0 -10t-10 -9.5t-12.5 -8.5t-8.5 -5q-20 -18 -38.5 -31.5t-36.5 -26.5q-6 -4 -13.5 -9.5t-15 -10.5t-13 -9.5t-7.5 -7.5q-4 -4 -5 -3.5t-6 -3.5q-24 -20 -47.5 -36t-47.5 -32q5 3 -2 -3t-18.5 -13.5t-23.5 -13t-16 -2.5q-6 4 0 11t15.5 13.5t18 11.5l8.5 5
q14 12 25 23t23 19q14 10 31 21.5t33 22.5t29 22t20 21q-51 -24 -96.5 -50.5t-87.5 -53.5q-8 -5 -13.5 -10.5t-13.5 -10.5q-41 -26 -73.5 -49.5t-69.5 -48.5q-96 -66 -188.5 -131t-182.5 -135q-4 -2 -5.5 -6.5t-4.5 -6.5q-13 -10 -30 -18.5t-31 -19.5q-2 -2 -4 -6t-5 -7
q-15 -11 -29 -23t-25 -20q-9 -7 -15 -12l-12 -10q-8 -6 -12.5 -11.5t-6.5 -12.5t-3.5 -16l-3.5 -21l-8 -53q-1 -6 -4 -22.5t-6 -34.5t-5.5 -32.5t-1.5 -15.5q4 -5 12 -7t18 -3t21 -0.5t20 -0.5q62 -6 117.5 -11t109.5 -9q27 -2 65.5 -2.5t90.5 -6.5q7 -1 30 -4.5t47.5 -8.5
t43 -11t16.5 -11q-1 -3 -13.5 -7t-21.5 -4q-10 -1 -18 2t-14 4q-16 1 -34.5 5t-35.5 6q-41 4 -78 6.5t-73.5 4.5t-73.5 4t-77 5q-7 0 -29 3t-47.5 5.5t-47 3.5t-27.5 -3q-5 -4 -7.5 -17.5t-4 -31.5t-1.5 -36t-1 -31q-4 -46 -9 -108t-10.5 -127t-9.5 -126.5t-5 -105.5
q-1 -31 -5 -49t1 -26q0 -1 6 -1t7 -2q2 -12 -5 -18.5t-9 -7.5q-16 -3 -24 4.5t-11 19t-3 24.5v21q-1 41 2 83.5t5 71.5l26 345q1 7 4 26t6 40t4.5 38t-0.5 19q-3 4 -15 6t-25.5 2.5t-25.5 0t-16 0.5q-23 4 -43 11.5t-26 22.5q-6 16 -1 31.5t15.5 29.5t24.5 27.5t26 25.5
q16 16 36.5 35.5t37.5 33.5q14 12 21.5 18.5t11 13t4.5 16t4 27.5q17 110 35.5 214t39.5 203q16 76 35 153.5t37 149.5q2 8 4.5 17.5t5 17.5t4 13.5l1.5 5.5q-3 4 -6.5 1.5t-6.5 -7t-5.5 -9.5t-2.5 -6q-7 -12 -11.5 -18t-12.5 -20q-26 -44 -49.5 -84.5t-46 -78.5
t-43.5 -75.5t-42 -76.5q-27 -50 -54.5 -99.5t-51.5 -94.5q-22 -42 -43.5 -83.5t-36.5 -77.5q-2 -3 -6 -7t-4 -6q-2 -6 -0.5 -10t3 -6.5l3 -5t-0.5 -6.5t-7.5 -4.5t-9.5 -3.5q-6 -6 -9.5 -12t-5.5 -12.5t-5 -13t-8 -12.5q-1 -2 -5 -14.5t-13 -17.5q-11 -5 -27 -6.5t-23 4.5
q-4 4 -1 14t8.5 21.5t11 20.5t6.5 10q4 8 10 14t10 12q5 10 6 19.5t5 17.5q5 8 11 14t9 12q5 8 6 18t6 18q4 7 10 13t10 13q3 6 4 13.5t3 10.5q8 11 12.5 19t11.5 19q8 13 12.5 26.5t9.5 22.5q33 59 61 109t55 98t56 97t65 106q15 24 31 54.5t39 65.5q11 16 16 21.5t7.5 8
l4.5 4.5t7 11q3 5 5 4t6 4q2 1 -1 5t-1 6t6 1t6 1q5 5 6 7t10 7q27 12 36.5 4t10 -26.5t-5 -41.5t-9.5 -40q-18 -78 -35 -153.5t-33.5 -151t-31.5 -153.5t-29 -162q-2 -13 -5.5 -31.5t-6.5 -35.5t-4.5 -30t0.5 -14q3 -3 9 0t12 7.5t11 9.5l7 7l27 21q10 8 20.5 13.5
t18.5 10.5q2 1 2 5.5t2 6.5q11 8 23.5 16t20.5 14q8 7 17 12t16 10q11 9 21.5 18.5t20.5 17.5q32 23 62.5 42.5t58.5 39.5q33 24 64 47.5t56 40.5q28 19 60 37t67 41q28 17 58 38.5t69 44.5q36 22 65.5 37.5t69.5 35.5q10 6 32.5 18t46.5 22t45 14t28 -6zM351 144q0 3 2 5
q1 1 3 2q0 7 -6 3q-3 -2 -6 -5q-2 0 -5.5 -2.5t-7.5 -5.5t-6.5 -5l-2.5 -2q-8 -10 -20 -23t-15 -17q-6 -7 -14 -15.5t-14.5 -17.5t-9.5 -18.5t1 -17.5q4 -7 18.5 -10.5t22.5 -5.5q15 -3 25.5 -4.5t16.5 1.5t9 11t5 24q2 27 3.5 56.5t0.5 46.5zM1338 853q2 -2 5 1t0 5
q-2 1 -4.5 -1.5t-0.5 -4.5zM529 1058q2 -1 5 1.5t0 4.5q-2 2 -4.5 -1t-0.5 -5z" />
    <glyph glyph-name="L" unicode="L" horiz-adv-x="915" 
d="M1338 -204q6 -12 4 -21t-7 -16t-11.5 -11.5t-10.5 -8.5q-10 -12 -19.5 -24.5t-31.5 -10.5q-9 1 -8.5 4.5t5.5 7.5t11 8t8 6q17 23 16.5 37t-12 21.5t-32 8.5t-43.5 -0.5t-45 -5t-37 -5.5q-65 -11 -121.5 -23t-110.5 -25t-107 -27t-110 -27q-8 -2 -23 -4.5t-31 -5.5
t-28.5 -5.5t-13.5 -4.5q-2 -2 -3 -12t-1 -23v-27v-24q-1 -36 -1.5 -66t7.5 -50q3 -10 6.5 -13.5t-4.5 -11.5q-5 -5 -15 -7t-15 -1q-18 2 -24 21t-7 42.5t1.5 47t2.5 34.5q0 8 0.5 20t0.5 23.5t-0.5 20.5t-1.5 10q-3 2 -13.5 0.5t-23 -4t-23.5 -6t-13.5 -5.5t6.5 -1t37 7
q-67 -14 -123.5 -25t-110.5 -23q-7 -2 -27.5 -7.5t-48.5 -12t-59 -13t-57.5 -8.5t-45.5 0.5t-23 14.5q-5 16 5.5 20.5t26.5 4t31.5 -3.5t20.5 -3q50 4 102 19t114 29q16 3 38 8t45 10.5t44 10.5t35 8q20 4 38 5t22 5q7 7 7.5 32.5t2.5 54.5q9 125 20 234t20 217
q12 137 31 272.5t39 248.5q17 91 35.5 178.5t26.5 176.5q-4 -2 -9.5 -14t-13 -28t-16.5 -33.5t-19 -30.5t-21.5 -19t-23.5 0q-7 3 -4.5 12.5t8.5 20t12.5 19.5t7.5 11q2 5 2 10t2 9q6 14 13.5 27.5t12.5 23.5q5 9 12 22.5t15.5 27t18 23.5t19.5 12q4 1 11 0t14 -2.5t12 -3.5
t6 -3q4 -5 5 -16.5t0 -25t-3.5 -28.5t-3.5 -28q-3 -26 -8.5 -50t-7.5 -38q-13 -75 -25 -144.5t-22.5 -135.5t-20 -130t-18.5 -130q-7 -48 -15.5 -111.5t-17 -132t-15.5 -137.5t-11 -127q-1 -13 -3.5 -24.5t-4.5 -25.5q-1 -6 -2 -22.5t-2.5 -38.5t-3 -45.5t-2.5 -43.5t-1 -33
t1 -14t17 2.5t37 8t42.5 10t35.5 8.5q44 10 96 23.5t104.5 26.5t103 24t91.5 17q34 5 74 9t66 2q10 -1 24.5 -3.5t27.5 -6.5t23 -9t13 -11z" />
    <glyph glyph-name="M" unicode="M" horiz-adv-x="1206" 
d="M1052 1090q16 -2 25.5 -15t14.5 -32.5t6.5 -41.5t1.5 -43.5t-1.5 -38.5t-1.5 -25q-2 -88 -6.5 -167.5t-10.5 -155.5t-12 -150.5t-11 -152.5q-6 -88 -9.5 -165.5t-5.5 -153.5t-3 -154.5t-1 -167.5q0 -7 -0.5 -27t-1 -44.5t0 -49t2.5 -40.5q3 -21 8.5 -31.5t-6.5 -17.5
q-3 -2 -13 -1t-12 3q-6 3 -10 12t-7 20t-5 23t-3 21q-2 11 -1.5 28.5t1 34t1.5 29t1 14.5q-2 52 -2.5 88.5t0.5 71.5q0 14 -2 29.5t-2 32.5q1 23 4.5 48.5t4.5 51.5q0 14 -2 27.5t-1 27.5q1 66 5 134t7 128q7 112 15.5 209.5t17.5 198.5q7 74 13.5 149t4.5 158v49t-3.5 40.5
t-13 17t-28.5 -21.5q-17 -20 -25 -39t-19 -37q-6 -12 -12 -16.5t-13 -18.5q-6 -13 -9.5 -27t-6.5 -25q0 -2 -5 -4t-6 -4q-8 -16 -15 -31t-12 -30q-4 -10 -5.5 -22t-5.5 -23q-2 -3 -5.5 -6.5t-5.5 -7.5q-3 -8 -6 -18.5l-6 -21t-6.5 -19.5t-6.5 -14t-2.5 -6t-1.5 -7
q-23 -59 -41 -116t-38 -120q-11 -35 -25 -78.5t-28 -91.5q-17 -61 -35 -132.5t-33 -133.5l-22 -91q-5 -20 -6.5 -27.5t-2.5 -13.5t-4 -15.5t-10 -33.5q0 -1 -2.5 -13t-8.5 -26t-15.5 -24.5t-23.5 -7.5q-20 5 -22 20t-7 43q-6 29 -8 65.5t-2 71.5t0.5 64.5t0.5 44.5
q-2 86 -6 163.5t-4 163.5q0 44 3 83.5t2 71.5q0 38 -3 76.5t-5 89.5q-2 29 -2 72t-7 94q-3 19 -6.5 44.5t-9.5 48.5t-14.5 40t-19.5 19q-8 1 -20 -8.5t-24.5 -24t-23.5 -30.5t-16 -26q-8 -15 -12.5 -24.5t-11.5 -22.5q-10 -20 -17 -34.5t-15 -33.5q-11 -26 -20.5 -50
t-18.5 -49q-11 -28 -18.5 -52t-15.5 -47q-18 -52 -32.5 -102t-27.5 -100q-5 -21 -11 -46l-12 -50t-11 -49t-9 -42q-5 -26 -9.5 -44.5t-8.5 -39.5q-5 -29 -6.5 -58t-5.5 -55q-5 -28 -11 -54t-9 -55q-2 -16 -1 -32t-1 -30q-7 -70 -12.5 -138.5t-7.5 -156.5q0 -23 0.5 -61.5
t2.5 -79.5t6 -78t12 -56q1 -5 7.5 -2t12.5 5.5t10.5 1.5t1.5 -12l-2.5 -3.5t-5.5 -7t-5 -7l-2 -3.5q-19 -11 -30 -6t-17 16.5t-8.5 25.5t-4.5 22q-4 15 -7 35t-5 41t-3.5 41t-2.5 35q-4 72 -4 136t3 124t8 117t11 115q8 63 19 131.5t19 128.5q1 2 5.5 7t4.5 7q3 14 5 29
t5 29q2 13 2.5 23t2.5 21q0 2 4.5 7t5.5 7q4 15 4 32t4 31q2 7 4 13t4 14q6 24 12 44l12 40q8 32 18 58.5t19 53.5q11 30 19.5 54t19.5 51q11 29 21.5 55t22.5 52q3 6 7.5 10t7.5 11q4 7 4 16.5t3 16.5q5 8 14 18.5t17 23.5q13 21 24 35.5t27 29.5q5 5 10.5 12t10.5 10
q36 20 62 17.5t43.5 -20.5t28 -48t17 -65t9.5 -72t6 -68q11 -131 12.5 -244.5t0.5 -222t-2.5 -219t3.5 -234.5q23 77 44.5 161.5t44.5 169.5q28 103 59.5 208t66.5 197q15 42 27 81t27 77q5 13 10 25t7 22q1 2 5.5 4t6.5 4q1 2 -1 6t-1 6q0 2 4.5 4t6.5 4q4 8 5.5 18t6.5 21
q13 29 27.5 56t28.5 53q9 16 21.5 38t27 41t31.5 31t37 9z" />
    <glyph glyph-name="N" unicode="N" horiz-adv-x="1141" 
d="M1056 1088q4 -5 4 -33t-1.5 -63t-3.5 -67.5t-3 -45.5q-6 -129 -12 -235t-13 -207t-16 -207.5t-21 -235.5q-3 -36 -8.5 -83.5t-12.5 -90.5q-3 -20 -6 -48t-10 -54t-20 -45.5t-35 -20.5q-16 -1 -26.5 8.5t-18.5 26t-14.5 37.5t-13.5 42q-36 112 -64 233t-57 249
q-11 46 -24 100.5t-27 108.5q-5 17 -10 35t-11 42q-8 31 -17 65t-20 67.5t-23.5 64.5t-27.5 57q-11 18 -21 25t-19 9q-13 1 -27 -9.5t-28 -28t-26 -37.5t-21 -38q-6 -11 -12 -25t-14 -27q-3 -5 -4.5 -10t-3.5 -9q-4 -6 -10 -23.5t-11 -28.5q-17 -44 -34 -94.5t-35 -97.5
q-2 -6 -1.5 -7t-2.5 -6q-5 -7 -8.5 -19.5t-6.5 -27t-5.5 -29.5t-5.5 -26q-7 -21 -15 -40.5t-14 -42.5q-14 -53 -26.5 -101t-24 -93.5t-22 -89.5t-21.5 -89q-9 -35 -18.5 -75.5t-19.5 -83.5t-19 -87.5t-16 -87.5q-3 -20 -8.5 -45.5t2.5 -59.5q2 -9 6 -13t6.5 -6t2 -4t-7.5 -7
q-11 -8 -25.5 -2t-19.5 15q-5 8 -6.5 19t-1 20.5t1.5 16t1 5.5q0 23 5.5 55t10.5 57q10 52 19 92.5t17.5 77t17.5 73t19 79.5q4 14 5.5 28.5t5.5 27.5q7 27 16.5 60t17.5 67q6 22 13.5 49t13.5 53q19 77 43 162.5t50 161.5q7 20 14.5 42.5t18.5 41.5q5 7 10 25.5t10 31.5
q13 32 29.5 65t34.5 66q13 22 27 44t30.5 39t35.5 27.5t41 9.5q27 -1 48.5 -24.5t38.5 -58t30.5 -73.5t23.5 -72q23 -76 41 -158t38 -164q28 -114 58 -234t63 -243q9 -33 17.5 -65t22.5 -65q3 -8 5.5 -12.5t5 -3.5t5 9.5t7.5 27.5q5 21 8 37.5t4.5 32t3 31.5t3.5 37
q6 53 12 102.5t8 83.5q5 58 5.5 105.5t3.5 92.5q4 64 8.5 118t9 102.5t9 94.5t9 94t8.5 100.5t9 115.5q1 22 2 48t2.5 52t5 50t10.5 43q2 5 3 8t6 5q2 3 5 6q5 5 9 2z" />
    <glyph glyph-name="O" unicode="O" horiz-adv-x="951" 
d="M845 453q5 -81 -1.5 -159t-19.5 -147q-4 -23 -9.5 -42t-10.5 -41q-6 -23 -9.5 -46.5t-10.5 -43.5q-1 -2 -4.5 -4t-4.5 -4q-2 -7 -3 -13t-4 -15q-5 -14 -10 -27.5t-13 -28.5q-4 -7 -7.5 -16.5t-8.5 -19.5q-9 -16 -19 -41t-22 -45q-11 -18 -24.5 -36.5t-26.5 -36.5
q-18 -24 -41 -49t-48.5 -47.5t-52.5 -42t-54 -32.5q-18 -9 -42 -12.5t-48.5 -2.5t-47.5 6.5t-38 15.5q-5 3 -8 8t-10 10q-6 5 -11.5 6.5t-9.5 5.5q-3 3 -3.5 8.5t-3.5 10.5q-2 2 -5.5 2.5t-5.5 2.5q-2 4 -3 10t-4 10q-2 2 -5.5 2.5t-5.5 2.5q-8 14 -14.5 30.5t-11.5 27.5
q-28 66 -42 147.5t-18.5 167t-1.5 168.5t9 153q1 17 4 43t6.5 55.5t7.5 59.5t8 54q2 10 4.5 20.5t4.5 19.5t3 15.5l1 6.5q-2 6 -12.5 15.5t-24 18.5t-26.5 17.5t-19 13.5q-14 12 -27.5 25t-23 30t-14.5 39.5t-2 53.5q2 27 10.5 51.5t17.5 52.5q3 11 9 25t13.5 29t15.5 28.5
t15 24.5q3 5 8.5 8t9.5 8l19 28.5t24 30.5q19 19 39 31t40 25q11 7 21 13.5t21 11.5t22.5 8t20.5 11q16 12 26.5 36t24.5 50q11 22 22.5 44t28.5 36l5.5 5.5t8.5 3.5q-1 0 0.5 3.5t3.5 3.5q7 1 10.5 -2.5t4 -9.5t-1.5 -13.5t-4 -13.5q0 -1 -1 -7t-2 -7q-5 -8 -12 -6t-12 -4
q-2 -2 -4 -9.5t-4 -11.5q-5 -9 -11.5 -23.5t-12 -29t-9 -26t-1.5 -13.5l13 -2.5t29.5 -5t31.5 -5t18 -3.5q17 -6 36 -13.5t38 -18.5q5 -3 8 -8.5t9 -10.5q6 -4 13.5 -5t12.5 -5t8.5 -9t8.5 -9q16 -14 29 -28t28 -33q11 -14 23.5 -29.5t23.5 -32.5q8 -13 14 -29t13 -29
q7 -14 13.5 -26t12.5 -25q19 -43 34.5 -86.5t27.5 -91t20.5 -101t12.5 -116.5zM805 321q4 81 -4.5 163t-26.5 158.5t-43 144t-53 120.5q-8 15 -19 33t-23.5 35.5t-25 32.5t-22.5 24q-3 3 -3 6.5t-3 6.5q-4 3 -7.5 2.5t-8.5 2.5q-3 2 -5.5 9t-6.5 9q-8 8 -16.5 13.5
t-16.5 10.5q-16 11 -33 23t-31 17q-11 4 -26.5 7t-31.5 4.5t-29.5 1t-18.5 -4.5q-4 -3 -8 -11.5t-5 -10.5q-2 -4 -1.5 -10t-1.5 -10q-9 -27 -17 -50t-16 -49q-5 -16 -8.5 -33.5t-8.5 -35.5q-5 -16 -11.5 -30.5t-11.5 -33.5q-8 -26 -14.5 -66t-14.5 -79q-2 -8 -7.5 -29.5
t-10.5 -45t-8.5 -44t-1.5 -26.5q3 -9 18 -15t25 -14q5 -3 8.5 -9t8.5 -9q7 -5 14 -6t12 -4q11 -8 20 -18t19 -18q16 -14 27 -21.5t20 -15.5t18 -20.5t21 -34.5q1 -3 7 -13t10.5 -22t6 -22.5t-5.5 -14.5q-11 -6 -16 -3.5t-8 10t-5 16t-5 14.5q-22 34 -38.5 57.5t-42.5 40.5
q-11 8 -24 19.5t-20 16.5q-11 7 -19 11t-19 11q-16 11 -25 19.5t-16 3.5q1 -2 -3 -15.5t-5 -19.5q-5 -35 -8.5 -64.5t-6.5 -56.5t-5 -54t-3 -57q-3 -57 -5 -124.5t0 -137.5t9 -138.5t22 -128.5t39.5 -108.5t60.5 -77.5q23 -18 50.5 -21t55 4.5t53.5 22t47 31.5
q15 12 31.5 27.5t27.5 26.5q14 14 26 29t23 31q9 13 16.5 27.5t16.5 30.5q18 29 38.5 64.5t31.5 64.5q4 11 6.5 19t4.5 16q2 3 4.5 7t4.5 8q15 42 27.5 91.5t21.5 89.5q2 10 3 20t3 21q6 38 13 77t9 81zM128 635q11 -8 17.5 -17t10.5 -7q1 1 3.5 21.5t8.5 47.5q4 18 9 33.5
t9 29.5q8 35 14.5 73.5t14.5 64.5q1 2 4.5 4t4.5 4q2 4 1.5 10.5t1.5 10.5q6 20 9.5 32.5t8.5 29.5q2 8 5.5 14.5t5.5 14.5q3 8 6.5 14.5t5.5 13.5q3 9 3.5 18t2.5 17q7 18 13.5 35.5t14.5 27.5q2 3 0 3.5t-4.5 0t-5 -2t-1.5 -2.5q-5 1 -14.5 -2.5t-18.5 -7.5
q-19 -10 -31.5 -20t-23.5 -20q-27 -24 -48.5 -51t-39.5 -54q-7 -9 -12.5 -15.5t-9.5 -13.5q-2 -5 -4 -14.5t-7 -20.5q-4 -9 -9 -15t-8 -14q-7 -19 -14 -40t-8 -30q-7 -62 9.5 -97t43.5 -59q3 -3 13.5 -7t18.5 -10zM291 1126h1h-1z" />
    <glyph glyph-name="P" unicode="P" horiz-adv-x="1241" 
d="M1255 897q4 -14 6.5 -33.5t4 -41t1.5 -43.5t-1 -40q-2 -33 -9.5 -65.5t-16.5 -64.5q-12 -44 -32.5 -92t-43.5 -88q-28 -51 -60.5 -91.5t-67.5 -84.5q-6 -7 -10 -16t-9 -15q-6 -6 -13 -9.5t-13 -9.5q-3 -4 -4.5 -10t-4.5 -9q-4 -3 -8 -3t-7 -4q-4 -3 -5.5 -9.5t-4.5 -8.5
q-4 -4 -8 -4t-7 -3q-24 -23 -50 -48t-55 -48q-8 -6 -15.5 -9.5t-15.5 -9.5q-6 -5 -12 -13t-13 -13q-37 -26 -88.5 -54t-103.5 -51q-6 -3 -17 -7t-22 -7.5t-19 -7t-9 -4.5q-2 -4 -3 -18.5t-1.5 -33l-1 -37t-0.5 -28.5q-1 -35 -1.5 -72.5t-2.5 -76.5t-5 -77.5t-8 -73.5
q-2 -12 -2 -26.5t-6 -28.5q-5 -11 -10.5 -21t-19.5 -5q-8 3 -11.5 11.5t-5 21t-1.5 27.5t-1 31q-3 71 -1.5 142.5t3.5 138.5q0 12 1 28t1.5 31t0.5 26t-1 13q-1 1 -18.5 -0.5t-40.5 -4l-46 -5t-34 -1.5q-30 1 -63.5 8t-65.5 20t-59.5 31t-43.5 42q-12 18 -19 40t-7 43.5
t7 41.5t24 34q4 4 16.5 9.5t23 8t13.5 -1.5t-12 -20q-6 -7 -11 -11t-9 -8t-7.5 -9.5t-6.5 -15.5q-9 -26 -4 -49.5t17.5 -44t31 -36.5t38.5 -26q56 -29 107 -34t111 5q15 3 34.5 4t22.5 5q3 3 4 22t1 41.5v43v27.5q2 43 7.5 73t3.5 50q-2 24 -11.5 50.5t-17.5 52.5
q-8 24 -16.5 47t-18.5 43q-21 43 -45.5 80t-52 70t-57.5 63.5t-62 59.5q-39 36 -80 71q-8 7 -21 18.5t-22 22.5q-3 4 -4.5 11t-6.5 13q-3 3 -8.5 5.5t-7.5 6.5q-10 16 -19.5 46.5t-10.5 55.5q-1 30 8.5 57t24.5 51t33 44t36 36q1 1 2 6t2 6q14 8 29.5 20.5t31.5 24.5
q12 10 34 22.5t42 23.5q22 11 48 23t53 23q60 23 136 41.5t162 24.5q-1 0 1 5t4 2q4 -6 3 -3.5t2 3.5q13 2 27 -1t30 -3q97 -3 175.5 -21.5t148.5 -58.5q83 -47 140.5 -116.5t81.5 -162.5zM1220 743q2 45 -2.5 85.5t-14 75t-22.5 61.5t-28 45q-3 3 -3 8.5t-3 9.5l-11 11
t-11 12q-43 52 -100 88.5t-124 58.5t-141.5 28t-152.5 -4q-4 -1 -11 -1q-72 -3 -148 -27.5t-143 -56.5q-49 -23 -93 -54t-79 -63q-23 -21 -34.5 -37.5t-24.5 -37.5q-4 -7 -8 -10t-7 -9q-17 -39 -13.5 -75.5t17.5 -68.5t34 -57.5t38 -40.5l22 -17q3 -3 5 -9t6 -9
q7 -7 15.5 -11.5t16.5 -11.5q28 -27 53.5 -51t49.5 -50t46 -56t45 -68q11 -18 16 -26.5t8 -13.5t5.5 -11t9.5 -21q1 -2 6 -14.5t11 -27t11.5 -26l5.5 -11.5l0.5 11.5t2 27t2.5 32t2 27.5q11 161 21 324t2 326q3 10 3 22q1 19 0.5 23t-1.5 0t-2 -12.5t-1 -14.5v-9t1 -9
q-7 -21 -17 -41t-12 -34q-3 -16 -6.5 -39t-8.5 -42.5t-11.5 -30t-15.5 -0.5q-5 6 -6 18.5t0.5 26.5t4 27t2.5 20q3 29 6.5 55t5.5 43q3 19 5 43t5.5 46.5t9 40t16.5 24.5q1 1 4 1.5t7 2.5q4 1 9 3q22 1 33 -22t15 -59t3.5 -80.5t-0.5 -86.5q-1 -190 -10 -369t-20 -342
q-3 -36 -7.5 -72t-3.5 -69q0 -8 2.5 -30.5t6 -48.5t7 -48.5t5.5 -28.5q1 2 8 3t8 2q11 4 27 11t32.5 15t30.5 15t22 12q32 19 60 40t51 37l25 20q8 6 15.5 10t14.5 9q6 5 10.5 12.5t9.5 12.5q7 7 15.5 10.5t14.5 9.5q5 5 10 12.5t10 12.5q19 19 39 36t36 34q5 5 9.5 12
t10.5 13q35 40 69 88.5t58 93.5q1 1 3 3.5t2 3.5q3 3 3 5t2 7q4 7 10 12.5t10 12.5q5 8 7.5 18.5t6.5 18.5q23 51 42 111t22 124z" />
    <glyph glyph-name="Q" unicode="Q" horiz-adv-x="916" 
d="M1038 -236q5 5 12 4.5t12 -2.5q8 -2 7 -2v-3q-2 -16 -14.5 -25t-30.5 -14t-38 -7t-36 -2q-17 -1 -39 1t-44 4.5t-41 5t-31 4.5q-32 5 -57.5 7t-54.5 13q-2 1 -8.5 2t-10.5 3q-6 3 -14.5 7t-18.5 9.5t-20 10.5l-18 9l-26 16l-4 2q-2 1 -4.5 2t-4.5 3q-6 4 -13 8
q-9 0 -14 -7.5t-20 -19.5q-2 -2 -8 -7.5t-13 -11.5t-13 -11l-6 -5q-13 -8 -14 -10.5t-3 -3.5q-31 -18 -71.5 -38t-85.5 -34t-92.5 -17.5t-92.5 13.5q-18 7 -39 24.5t-35 35.5q-31 45 -33.5 86.5t16 75t55 57t83 33.5t99.5 3.5t104 -33.5q35 -14 68 -37t68 -42l10 -4
q10 -4 10 -5q6 2 17.5 18t24 36.5t24.5 42t19 33.5q29 50 55 113.5t45 128.5q17 58 29 124t19.5 130.5t10 122.5t1.5 102q-4 121 -27.5 215.5t-74.5 160.5q-15 20 -33 34t-34 27q-3 2 -12.5 6t-20.5 8t-22 7t-15 3q-49 3 -90 -18t-70 -46q-22 -20 -38.5 -37.5t-33.5 -43.5
q-2 -4 -5.5 -7t-5.5 -6q-36 -58 -65 -137t-44 -169.5t-13 -187.5t26 -190q12 -48 31.5 -86t44.5 -73q4 -5 3.5 -6.5t3.5 -4.5t8.5 -12.5t12.5 -16.5t24.5 -20t28.5 -18q1 -1 4.5 -2t6.5 -3q4 -2 8 -5q1 0 9.5 3.5t18 5.5t18 1t10.5 -11q3 -15 -9 -20t-26 -8q-23 -4 -37 0
t-31 12q-1 0 -5.5 4t-9.5 8.5t-10.5 8.5t-7.5 6l-12.5 7.5t-3.5 1.5q-1 1 -2 3q-2 2 -3.5 4t-5.5 6q-17 18 -37 43.5t-34 54.5q-29 63 -46 137t-19 176q-2 45 4.5 92.5t14.5 93.5q5 21 8 44t9 43q5 18 14 35t16 35q11 32 19 59t25 56q13 21 30 46t36 46q5 7 13 13.5t15 14.5
q22 23 56 46t77 34q52 14 99.5 6t87.5 -31q57 -32 93.5 -93t57 -139.5t27 -167.5t3 -178t-15 -171t-27.5 -146q-10 -41 -25.5 -85.5t-34.5 -88t-41 -84.5t-46 -75q-8 -11 -20 -25.5t-23.5 -28t-20 -24.5t-7.5 -15q1 -5 12.5 -12.5t27 -15t30 -14.5t21.5 -10q23 -11 49 -19
t52 -14q33 -8 68.5 -13.5t68.5 -8.5t62 -2.5t48 5.5q14 3 23 6t19 10q2 1 -0.5 5.5t-0.5 6.5zM446 -213q6 5 15 13.5t17 17.5t13.5 16.5t4.5 12.5q-1 -1 -10 1q-4 1 -9 3q-11 6 -25 14.5t-28 18t-27.5 18t-23.5 13.5q-6 3 -26.5 10.5t-43.5 15.5t-43 14t-26 7
q-26 4 -51 -0.5t-35 -7.5q-47 -13 -78 -46.5t-32 -86.5q0 -27 8 -50t21.5 -41t30.5 -30t33 -17q18 -7 45 -9.5t48 -0.5q28 3 59.5 15t61.5 28.5t56.5 35t44.5 35.5z" />
    <glyph glyph-name="R" unicode="R" horiz-adv-x="972" 
d="M1047 1201q25 -15 40 -44t20.5 -66t2 -79t-14.5 -82q-5 -18 -15.5 -46t-18.5 -49q-7 -17 -13 -28.5t-13 -26.5q-2 -4 -2.5 -9.5t-2.5 -10.5q-1 -2 -5.5 -4t-5.5 -4q-2 -7 -3 -12.5t-6 -14.5q-9 -16 -20.5 -31t-22.5 -32q-2 -5 -2 -10.5t-2 -10.5q-1 -2 -5.5 -0.5
t-5.5 -0.5q-2 -2 0 -6.5t0 -6.5q-17 -25 -37.5 -53t-41.5 -53q-2 -2 -6 -1t-6 -1q-1 -2 1 -6.5t0 -6.5q-2 -3 -5.5 -3.5t-5.5 -3.5q-11 -15 -32 -35.5t-38 -37.5q-14 -15 -30 -32.5t-35 -33.5q-35 -30 -78 -62t-91 -60q-23 -14 -47 -28.5t-53 -28.5q-8 -4 -18.5 -5t-20.5 -5
q-3 -2 -9 -4.5t-11 -5.5t-9 -5l-4 -2q-1 -2 -4.5 -16.5t-7.5 -33t-7 -36t-3 -24.5q2 -7 7 -10t15 -12q25 -24 71.5 -56.5t102.5 -66.5t115 -67t109.5 -60t86 -44.5t43.5 -20.5q2 -1 12 -4.5t20.5 -8.5t18 -11t5.5 -12q-3 -8 -10 -11.5t-15.5 -4.5t-17.5 1t-16 5
q-125 68 -214.5 120t-151 90t-99 63.5t-57.5 40t-27 20.5t-8 5q-2 -1 -5 -21.5t-6 -45.5t-5.5 -48.5t-3.5 -30.5q-8 -58 -16.5 -107t-17.5 -106q-5 -26 -8.5 -53.5t-9.5 -53.5q-2 -11 -4 -23.5t-6 -24t-11.5 -19.5t-19.5 -9q-15 -1 -24 10.5t-13.5 31t-5.5 43.5t-0.5 48.5
t2 47t1.5 37.5q2 86 7.5 172.5t13.5 170.5q1 10 2.5 20.5t3 19.5t2.5 14.5l1 5.5q-2 4 -10.5 10t-19.5 11t-22.5 10t-18.5 8q-6 2 -17 6t-23 9q-2 1 -8 1.5t-12 3t-9.5 6.5t-0.5 12q1 3 7.5 5t15.5 3t18.5 0.5t15.5 -2.5q2 -1 6 -6t6 -6q4 -1 13 -5t19.5 -7t20 -4t15.5 4
q6 4 9.5 20.5t5.5 37.5t3.5 41.5t3.5 33.5q18 155 42.5 302t50.5 297q11 65 23.5 126t19.5 134q1 10 2 22.5t1.5 23t0 18t-1.5 9.5q-3 3 -9.5 0.5t-14 -7t-15 -9.5t-11.5 -9q-8 -6 -18 -16.5t-20 -20.5q-22 -21 -36 -38.5t-34 -40.5q-14 -17 -27 -29t-21 -22
q-20 -24 -37 -53.5t-42 -66.5q-9 -14 -20 -27t-22 -30q-4 -5 -4 -7v-4.5t-1 -6.5t-7 -11q3 2 -1 -3t-10 -10.5t-13.5 -9t-12.5 1.5q-1 0 3 9.5t9.5 21.5t11 23t7.5 14q11 18 23.5 33t18.5 24q8 13 15.5 21t16.5 22q1 2 -1 6.5t0 6.5t6 0.5t5 0.5q3 4 3 10t2 10q3 4 8.5 4
t8.5 4q1 2 -1 6.5t0 6.5t6 1t5 1q2 3 2.5 10t2.5 10t8 4t8 4q7 7 14.5 18t16 23t17 23.5t16.5 20.5q13 14 30.5 28.5t34.5 30.5l16.5 16.5t15 13.5t17 10.5t23.5 6.5q17 3 30.5 0.5t21.5 -14.5q10 -17 8 -52.5t-8.5 -76t-14.5 -78.5t-11 -58q-3 -19 -4 -37t-4 -36l-42 -288
t-40 -303q-2 -16 -5.5 -37.5t-6.5 -42t-4.5 -35.5t1.5 -18q11 1 21 3q8 2 16.5 4t12.5 5q9 7 14.5 26t10 43t9 49t9.5 43q2 8 7 17t8 18q4 12 8 27t8.5 31t9 31t8.5 26q15 47 29 85.5t28 72.5t28.5 65.5t29.5 63.5q3 5 2.5 7t2.5 7q2 3 3.5 10.5t6.5 16.5q5 8 10.5 14
t10.5 14q3 5 2.5 10t2.5 10q5 8 14.5 19.5t17.5 23.5q5 8 7.5 17t7.5 17q15 26 38.5 60.5t45.5 60.5q6 6 13 10t15 12q6 7 10.5 14.5t10.5 13.5q34 36 81 68q13 9 29 19t35.5 19t41 14t45.5 3q11 -1 22 -7t25 -14zM1064 980q3 13 4.5 30t2.5 34.5t0.5 33t-2.5 27.5t-8 21.5
t-12 21.5q-10 21 -20.5 32t-23.5 15t-29 2t-37 -8q-35 -9 -66.5 -29.5t-59.5 -46.5t-52 -55t-45 -56q-20 -26 -35.5 -52t-32.5 -53q-20 -32 -39.5 -64t-33.5 -62q-4 -8 -5 -17t-5 -16q-2 -4 -5 -7t-5 -8l-15 -34l-16 -34q-11 -25 -18 -44t-17 -45q-6 -17 -11.5 -35.5
t-12.5 -39.5q-11 -31 -23 -64.5t-26 -84.5q-3 -11 -10 -36.5t-13.5 -52.5t-11 -48.5t-2.5 -23.5q3 -3 17 2.5t33 15.5t38.5 21.5t33.5 19.5q94 55 169 124.5t130 135.5q13 16 25.5 34.5t22.5 29.5q2 4 7.5 4t8.5 4q2 2 0 6.5t-1 6.5q2 2 6 0.5t6 0.5t-0.5 6.5t-0.5 6.5t6 1
t5 1q1 1 3 6.5t2 6.5q11 22 24.5 38t23.5 33q2 4 5 7t5 7q3 5 2.5 10t2.5 10q9 16 19 29t18 27q2 4 2.5 8t2.5 6q7 14 10 27t10 27q1 2 5 4t6 4q2 4 2.5 10.5t1.5 9.5q11 28 20 55.5t14 53.5zM298 -103q1 8 5 27t8 39t7 36t2 18q-2 4 -7.5 8.5t-12 7t-12.5 3t-9 -2.5
q-4 -5 -4 -5.5t-1 -8.5q-4 -40 -9.5 -93t-10.5 -110.5t-9 -114.5t-5 -105q-3 -16 -4 -28q-1 -11 0 -19.5t6 -10.5q-1 1 -0.5 5.5t2 9.5t2.5 8.5t1 2.5q10 52 18.5 110.5t15.5 103.5q5 29 8.5 58t8.5 61zM339 105q1 24 0 33q-2 -3 -9 -5.5t-15.5 -4t-17 -2.5t-12.5 -1
q-4 -6 -4 -18q-1 -7 0 -15q2 -8 10 -14.5t16.5 -10.5t15 -6.5l6.5 -2.5q2 1 3.5 7.5t3 14t2 15t1.5 10.5zM339 143q1 -3 0 -5v5z" />
    <glyph glyph-name="S" unicode="S" horiz-adv-x="1222" 
d="M1273 163q1 -2 1 -5t-4 -8q-4 -4 -14 -10t-11 -7l-35 -20t-28 -15.5t-31 -16.5t-44 -24q-15 -9 -34 -17.5t-38.5 -17.5t-37.5 -18t-32 -19q-2 -1 2.5 -2t3.5 -2q19 -11 35.5 -26t29.5 -29q33 -34 52.5 -73.5t26.5 -79t3.5 -75.5t-16.5 -61q-2 -4 0 -8.5t0 -8.5
q-2 -6 -7.5 -10t-8.5 -10q-2 -4 0 -8.5t0 -9.5q0 -2 -5 -0.5t-6 -0.5t2 -5.5t2 -5.5t-4.5 -4t-4.5 -4q-20 -24 -37.5 -54t-37.5 -50q-3 -3 -4 -6.5t-3 -5.5q-5 -5 -12.5 -7.5t-12.5 -7.5q-6 -6 -7.5 -13.5t-6.5 -12.5t-12 -7.5t-13 -7.5q-36 -32 -78 -62.5t-84 -53.5
q-123 -70 -218.5 -91t-160.5 -5t-98.5 64t-32.5 115.5t37 148.5t109.5 165t186 164.5t266.5 145.5q8 3 7 2t4 1q-25 10 -46.5 19t-43 17t-44.5 15t-51 15q-68 18 -138 34t-140 33.5t-137.5 38.5t-129.5 49q-37 15 -73 38t-52 61q-6 16 -7 31.5t1.5 29.5t6 25.5t6.5 20.5
q2 3 0 8t0 9q8 18 19.5 37t19.5 33q5 7 11.5 10.5t11.5 10.5q8 11 14.5 22.5t16.5 22.5q16 18 37.5 38.5t44.5 40.5t47.5 39t47.5 35q49 35 104.5 68.5t117.5 62.5t131.5 52.5t145.5 38.5q26 5 62.5 9.5t71.5 4.5t64 -6t40 -22q12 -17 5.5 -35t-21.5 -34t-33.5 -30
t-30.5 -23q-52 -42 -99.5 -74.5t-96.5 -64.5l-102 -67q-6 -3 -23 -13.5t-36.5 -20t-38 -13t-26.5 6.5q-5 6 -3 11t6 9.5t9 7.5t6 4q22 20 43 35t41 29q2 1 1 5.5t1 6.5t5.5 1t5.5 0q2 2 1 6.5t1 5.5q2 2 5.5 1t5.5 1q2 1 1 5.5t1 6.5q7 6 16.5 10t17.5 12q7 7 14.5 15.5
t14 15.5t13.5 10.5t14 1.5q8 -2 10 -2t0 -8t-8 -13t-12.5 -9t-11.5 -9.5t-5 -14.5q24 12 42 22.5t35 21t35 22t41 25.5q6 4 11.5 5.5t9.5 3.5q23 14 46.5 32t36.5 38q13 22 10 33.5t-17 16.5t-35.5 4.5t-45.5 -2.5q-57 -5 -104.5 -15t-89 -23.5t-78.5 -29.5t-73 -33
q-54 -25 -101.5 -54t-91.5 -60q-46 -33 -93 -74t-79 -79q-16 -19 -33 -39.5t-31.5 -42t-25.5 -43t-15 -42.5q-2 -7 -2 -12t-1 -11q-3 -34 7.5 -58t30 -41t46 -29.5t55.5 -22.5q90 -32 180 -48.5t177 -36.5q23 -5 40.5 -9t39.5 -9q5 -1 9.5 -2t8.5 -2l10 -4q2 0 4.5 -1
t6.5 -1q2 -1 7 -1q2 0 4 -1q23 -8 52.5 -18t61 -21t62 -22t54.5 -20q24 9 57 23t71 30.5t78.5 35t81.5 36.5q10 4 16 7.5t10.5 6t8.5 4.5t10 4t9.5 1.5t11.5 -3.5zM1016 -138q-16 23 -44 50.5t-54 46.5q5 0 11 2l-15 1l4 -3q-7 -2 -16 -3.5t-21 -6.5q-141 -55 -247.5 -126
t-180 -147.5t-113.5 -152t-47.5 -139t17 -109.5t81 -62.5t144.5 1t207 81.5q53 30 99.5 68t82.5 74q11 11 21.5 24.5t15.5 21.5q6 10 13 14.5t13 12.5q22 33 43.5 71.5t31 82.5t0.5 93.5t-46 104.5zM703 694q10 0 9 7q-11 0 -9 -7z" />
    <glyph glyph-name="T" unicode="T" horiz-adv-x="907" 
d="M1307 1061q15 -2 39 -7t45.5 -15.5t36 -27.5t10.5 -42q-2 -11 -8 -18.5t-13.5 -12t-15 -6t-11.5 0.5q-11 3 -13 11t-2 18.5t-1 22.5t-10 21q-2 2 -10 5.5t-18 7.5t-21 7t-19 4q-32 5 -76.5 4t-107.5 -4q-36 -2 -80 -6t-91 -10t-94 -13t-88 -14q-5 -1 -13 -2l-16 -2
t-13.5 -1.5l-5.5 -0.5l-0.5 -11.5t-1.5 -26.5t-1.5 -30t-0.5 -23v-25.5v-28t0.5 -25.5t2.5 -19q3 -9 9 -17t13.5 -15.5t15 -16t13.5 -18.5q2 -5 2.5 -13.5t4.5 -17.5q12 -29 19 -77t5 -112q-4 -113 -14.5 -232t-28 -238t-41.5 -236t-55 -226q-6 -22 -12.5 -50t-14.5 -52
t-19.5 -39.5t-28.5 -11.5t-21 23.5t-2 45.5t6.5 53.5t5.5 48.5q3 64 9 154t13.5 193.5t15.5 213.5t15.5 214.5t14 197t10.5 161.5q0 9 0.5 20t1.5 20.5t1.5 15.5t0.5 5q-6 14 -32.5 24t-60 16.5t-67.5 10t-55 4.5q-61 2 -135.5 -6t-144.5 -19q-19 -2 -48 -9.5t-56 -8.5
q-17 0 -32 1.5t-17 4.5q-5 7 5 14.5t23.5 14t25.5 10.5l12 4q23 10 44 18t35 13q31 11 58 21t62 21q67 20 144.5 36t159.5 31q12 2 26.5 5t27.5 6t22 5t9 3l-2 17t-4.5 39.5t-5 43.5t-4.5 28q-2 8 -3.5 7.5t3.5 4.5q1 1 6.5 3t13 2.5t15.5 -0.5t13 -5q2 -1 4 -9.5t4.5 -19
t4 -20t1.5 -12.5q1 -6 1 -16v-20t1.5 -18.5t6.5 -12.5q4 -4 26 -1.5t49.5 7.5t55.5 10.5t45 7.5q40 5 92 10.5t108 9.5t113 4t108 -5zM758 603q-2 16 -9 39t-15 43t-16 32.5t-12 7.5q-1 -2 0 -6t0 -6q-3 -28 -6.5 -82t-7 -121.5t-7 -143t-7 -146.5t-7 -132t-6.5 -99
q-5 -56 -9.5 -92t-6.5 -56.5t-0.5 -27t7.5 -3.5q10 4 20 34.5t19 77.5t17.5 106t16 121.5t13.5 123.5t10 111.5t6.5 86t2.5 46.5q1 20 0 46t-3 40zM648 823q3 2 4 24t1 48.5t-1 49t-2 24.5q-1 1 -4 0.5t-7 -2t-6.5 -3t-1.5 -1.5q-3 1 -11 0.5t-18 -1.5t-20 -2.5t-17 -2.5
q-17 -3 -33 -9.5t-28 -8.5q-39 -8 -73 -14t-54 -11q-14 -3 -26 -8t-29 -10q-13 -4 -30 -5t-37 -7q-10 -3 -24 -8.5t-30 -10.5q-3 -1 -12 -5t-18.5 -8t-16.5 -7.5l-7 -3.5q0 -1 8.5 -0.5t20.5 1.5t25.5 2t24.5 3q17 2 36.5 6.5t36.5 5.5q20 2 37.5 0.5t29.5 -0.5q20 2 50 2.5
t61.5 -1t60.5 -5t48 -8.5q2 0 11 -4.5t20 -9.5t20 -8.5t11 -1.5zM129 835q1 -2 4.5 1t0.5 5q-1 2 -4.5 -1t-0.5 -5z" />
    <glyph glyph-name="U" unicode="U" horiz-adv-x="962" 
d="M816 -16q-2 -38 -5.5 -78.5t-6.5 -81.5t-3.5 -81t4.5 -77q1 -7 4 -17.5t6.5 -22.5t6.5 -24t5 -22t4.5 -23t4 -25.5t0.5 -23t-6 -14.5q-14 -12 -27 -2.5t-27 30.5q-12 17 -13 37t-3 31q-3 27 -5 46.5t-2.5 36t0 33t0.5 37.5q1 46 3 94t4.5 92t5 81t4.5 62q3 42 4.5 82
t3 80.5t4 84.5t6.5 94q2 26 8 70t10 94q2 16 1.5 38t1.5 47q0 6 3 18t5.5 24.5t3 23t-2.5 13.5l-2.5 -5t-6.5 -11t-7 -12t-4 -7l-3 -9t-2 -7t-2.5 -9.5t-5.5 -16.5q-45 -121 -86.5 -239t-89.5 -234q-5 -11 -6.5 -21t-6.5 -21q-35 -78 -75 -158t-89 -156q-17 -26 -39 -61
t-51 -62q-31 -29 -67 -47.5t-76 -11.5q-44 8 -68.5 48t-36 98.5t-12 129t4.5 140t12 130.5t12 101q5 44 9.5 83.5t8.5 82.5t8.5 92.5t10.5 112.5q3 30 7 64.5t6 71t2 73t-5 71.5q-3 25 -8.5 48.5t-13.5 26.5t-17.5 -6t-18.5 -22t-16.5 -27t-11.5 -21q-9 -17 -18.5 -36
t-16 -40t-9 -43.5t3.5 -44.5q2 -6 11 -12t12 -11q2 -5 1.5 -7t-9.5 -6q-9 -3 -16.5 1.5t-13.5 14t-10.5 24t-5.5 30.5q-3 29 4 56t11 41q6 19 15 41.5t22.5 42.5t31 34t40.5 16q1 0 17 1t31 -10q11 -8 19 -24t13.5 -35.5t8 -41t3.5 -42.5q4 -67 -3 -133t-12 -129
q-10 -126 -22.5 -249.5t-24.5 -242.5q-8 -70 -12.5 -135t-2.5 -121q1 -31 4.5 -66t11 -66t18.5 -53t26 -26q16 -5 38.5 5.5t42.5 26.5q14 11 26.5 27.5t24.5 30.5q19 22 35.5 43.5t34.5 49.5q26 41 51.5 87.5t46.5 90.5q29 61 57.5 129t56 139.5t54.5 145.5t53 147
q6 16 14.5 31t12.5 29q6 23 14.5 49.5t19.5 52.5q7 15 11 27t9 19.5t12 10.5t19 1q15 -3 22.5 -15t9.5 -28.5t1.5 -36.5t-1.5 -38q-1 -51 -5 -105.5t-9.5 -109.5t-10.5 -108.5t-8 -102.5z" />
    <glyph glyph-name="V" unicode="V" horiz-adv-x="879" 
d="M1237 1219q2 -2 4 -4.5t-5 -7.5q-8 -5 -10.5 -4.5t-4.5 2t-4.5 1t-9.5 -7.5q-15 -14 -28.5 -39t-28.5 -48q-8 -11 -14 -22.5t-14 -23.5q-6 -10 -14.5 -19.5t-14.5 -20.5q-2 -4 -1 -8.5t-1 -9.5q-2 -3 -6 -4t-5 -4l-37 -65q-30 -56 -59 -112t-56 -116q-2 -5 -3 -11.5
t-4 -13.5q-2 -5 -7.5 -10t-7.5 -10q-2 -6 -2.5 -14.5t-3.5 -16.5q-5 -14 -13 -32.5t-16 -38.5q-53 -149 -91 -308.5t-78 -323.5q-16 -65 -32.5 -129.5t-45.5 -124.5q-10 -20 -16 -29.5t-17 -23.5q-2 -3 -9.5 -8t-16.5 -10t-19 -9t-17 -4q-33 -2 -60.5 19t-50 57.5t-40.5 84
t-32 99.5t-24.5 103.5t-17.5 95.5q-9 57 -19 135t-20 160t-20 160t-19 137q-4 26 -12 67t-19 83q-4 16 -9.5 36.5t-11 39t-11.5 32t-12 16.5q-11 7 -14.5 -1.5t-12.5 -19.5q-5 -8 -11 -23.5t-11 -24.5q-10 -21 -13.5 -35t-8.5 -33q-2 -7 -6.5 -23t-9 -35.5t-7.5 -40
t-2 -37.5t6.5 -28t19.5 -11q27 0 22 -9t-24 -19t-42 -15.5t-31 1.5q-5 4 -5.5 16t0 26.5t2.5 28t3 21.5q1 13 3.5 32t5.5 39t6 38t6 29l4.5 11t10 23.5t10 23.5t4.5 12q5 10 12 25t17 29t24.5 24.5t34.5 11.5q19 1 34 -8t27 -25t20.5 -36.5t15.5 -42.5q9 -30 17.5 -65.5
t15.5 -72t13 -72t11 -66.5q15 -92 26.5 -187.5t25.5 -193t33 -195.5t48 -194q6 -20 16.5 -49t23 -56t26.5 -47t26 -21q8 -1 15.5 5t15 15.5t14 20.5t11.5 20q7 13 11 23.5t9 27.5q7 20 15 35.5t14 35.5q20 63 31.5 117t23.5 104q18 75 38.5 161t43.5 167q4 14 6 28.5t7 28.5
q4 11 11 22.5t11 22.5q5 14 6.5 28.5t6.5 28.5q9 25 19.5 50t21.5 52q2 6 3.5 13t3.5 13q3 5 8 9.5t7 10.5q3 8 3 15.5t3 15.5q2 5 7 10t8 10q15 34 32.5 70.5t37.5 72.5q6 11 13.5 22.5t14.5 23.5q2 4 1 9t1 10q2 2 5.5 3.5t5.5 3.5q2 5 3.5 12.5t3.5 12.5q4 6 11 10.5
t10 10.5q4 7 4 13t3 12q12 21 27.5 42t29.5 44q17 29 38.5 65t47.5 62q5 3 12 7t9 8q8 3 18 2t12 -6z" />
    <glyph glyph-name="W" unicode="W" horiz-adv-x="1623" 
d="M1442 832q28 -99 43.5 -191t21.5 -179t3.5 -169t-11.5 -160q-8 -68 -22.5 -129t-30.5 -118q-5 -21 -11 -38t-12 -32q-8 -20 -15 -34.5t-16 -31.5q-16 -30 -37 -62.5t-47 -55.5q-19 -16 -42 -27.5t-47.5 -16.5t-49.5 -3t-47 13q-21 11 -35.5 29t-27.5 35
q-22 31 -39.5 70.5t-31 82.5t-23 87.5t-16.5 85.5q-14 87 -19.5 170.5t-6.5 164.5t1 158.5t3 152.5q-28 -110 -51 -212.5t-46 -203.5q-9 -44 -17.5 -90t-18.5 -84q-17 -65 -32 -121.5t-36 -117.5q-5 -14 -12 -36.5t-17 -47.5t-23 -50.5t-29.5 -45.5t-36 -32t-42.5 -11
q-30 1 -54 18t-43 42.5t-33 58t-24.5 65t-17 62.5t-10.5 52q-12 67 -15 131t-1.5 125.5t5.5 121t6 118.5q0 11 2 26.5l4 31t3.5 29.5t2.5 23q2 15 2 27t2 21q4 19 9 40.5t7 34.5q2 16 -1 29t2 30q11 38 21 71t18 73q6 28 10.5 65t6.5 69q1 17 2.5 32.5t-5.5 20.5t-17.5 -0.5
t-20 -15t-17 -18t-8.5 -9.5q-11 -12 -20.5 -19.5t-18.5 -18.5q-2 -2 -1.5 -6t-1.5 -6q-3 -4 -8 -5t-8 -5q-5 -5 -6.5 -10t-5.5 -10q-78 -97 -142 -209.5t-107 -227.5q-2 -5 -6 -10t-6 -10q-3 -8 -2.5 -15.5t-1.5 -15.5q-3 -12 -8 -30t-8.5 -35.5t-4 -31.5t4.5 -19
q4 -3 13.5 4.5t20 20t21 27t17.5 23.5q11 15 20 29.5t17 25.5t15 18t13 6q9 -2 10.5 -3.5t-0.5 -3.5t-5.5 -5t-5.5 -6q-17 -35 -36.5 -61.5t-37.5 -49.5q-11 -14 -21 -29t-27 -22q-23 -9 -36.5 -5t-20 15.5t-8 28.5t0 33.5t4 30.5t4.5 21q5 17 12 29.5t11 22.5q2 8 1.5 16.5
t1.5 14.5q3 8 8.5 13.5t8.5 13.5q5 10 8.5 21.5t5.5 16.5t4.5 7.5t4.5 6.5q6 14 10 29.5t10 27.5q13 26 29 49t35 54q23 35 40 65.5t37 56.5q11 15 19 26.5t17 22.5q3 4 4.5 7.5t4.5 6.5q3 4 8 5t8 4q5 6 5.5 13t5.5 13q5 5 12.5 8t13.5 10q2 2 1.5 6t1.5 6q3 4 8.5 5.5
t7.5 3.5q17 18 35 36t41 28q41 18 62.5 10t29.5 -30.5t6 -55t-6 -65.5q-5 -40 -13 -74t-14 -67q-11 -57 -18.5 -110t-18.5 -105q-6 -29 -10.5 -57t-5.5 -59q0 -12 -2 -24t-2 -24q0 -14 -1.5 -32.5t-2.5 -38t-1.5 -37.5t-0.5 -30q0 -23 -1 -40.5t-2.5 -36.5t-1 -42t3.5 -55
q3 -25 5 -50t5.5 -52.5t8.5 -59t13 -68.5q6 -27 16 -58.5t23.5 -59t30 -46.5t36 -22.5t40 13t42.5 61.5q4 8 10 15.5t8 12.5q10 29 17.5 51t14 41.5t12.5 38t12 40.5q23 89 43.5 169.5t40.5 162.5q7 31 14 66t14.5 70.5t14.5 70.5t14 65q9 37 16 74t16 75q5 21 12.5 41.5
t12.5 40.5q3 10 3.5 15.5t0.5 9t0.5 7t2.5 11.5q3 10 6.5 31t9.5 41t15 34t22 11q9 -2 12 -9t4 -15.5t0 -16t-1 -9.5q0 -8 0.5 -22.5t0.5 -24.5q0 -2 -4 -6.5t-4 -6.5q-1 -7 -0.5 -10t1 -5t1 -4.5t0.5 -9.5q-7 -83 -10.5 -171t-1.5 -169q1 -67 1 -130t5 -123
q5 -70 13.5 -139t22.5 -132q2 -10 7.5 -29t11.5 -40.5t12.5 -42t11.5 -33.5q10 -24 23 -47.5t29.5 -42.5t35.5 -30.5t40 -11.5q25 1 50.5 12t41.5 25t28.5 28.5t21.5 28.5q31 48 54.5 110t40 130.5t26.5 140.5t15 139q3 50 4.5 99.5t-0.5 96.5q-4 84 -17.5 173t-35.5 180.5
t-53 182.5t-69 179q-5 10 -17 34.5t-24 50t-18.5 47t-0.5 27.5q7 7 13 5t9.5 -7.5t6 -12t3.5 -8.5q2 -4 7 -13.5t10 -20.5t9.5 -21.5t6.5 -14.5q19 -42 38.5 -92t38 -100t34 -97t26.5 -84zM928 652q2 -1 4.5 2t-0.5 5q-2 1 -4.5 -2t0.5 -5z" />
    <glyph glyph-name="X" unicode="X" horiz-adv-x="1097" 
d="M1107 166q13 4 12 -4.5t-4 -18.5q1 7 0 5t-3 -9.5t-5 -17.5t-5 -18q-7 -23 -13.5 -43t-10.5 -31q-6 -17 -11 -27.5t-11 -26.5l-12 -33q-2 -5 -1.5 -10t-1.5 -10q-2 -6 -9.5 -13.5t-10.5 -15.5q-4 -8 -5.5 -18.5t-6.5 -20.5q-15 -39 -34.5 -84.5t-41.5 -87.5
q-4 -8 -9.5 -14.5t-10.5 -14.5q-5 -9 -6.5 -18.5t-6.5 -14.5q-2 -3 -10 -7.5t-13 -9.5q-9 -8 -20.5 -18t-26.5 -17.5t-33 -12t-38 -1.5q-30 4 -58 26t-53.5 51.5t-46.5 62.5t-36 59q-19 33 -31 58t-22 49t-20 50t-24 61q-3 8 -7.5 20.5t-9 24.5t-8 20.5t-5.5 9.5
q-6 3 -9.5 0.5t-6 -8.5t-5 -13.5t-5.5 -14.5q-8 -15 -17 -33.5t-18 -38t-18 -38.5t-16 -35q-16 -37 -29 -67.5t-25 -59t-23 -56.5t-23 -61q-4 -12 -11 -24t-11 -24q-8 -23 -14 -49.5t-17 -56.5q-2 -5 -7 -9.5t-8 -12.5q-5 -16 -10.5 -37t-11.5 -42q-4 -13 -8.5 -30.5
t-8 -33.5t-6 -28t-1.5 -13q2 -3 6 1.5t9 12.5t10.5 18t10.5 19q9 17 18 30.5t16 26.5q7 12 16 32t19 39t20.5 32t20.5 11q7 -1 7 -4.5t-3 -7.5t-7 -8t-5 -6q-2 -10 -5.5 -13.5t-8.5 -14.5q-2 -4 -1 -9t-1 -10q-11 -20 -22.5 -35t-22.5 -36q-9 -17 -14.5 -34.5t-22.5 -41.5
q-3 -5 -11 -16t-18 -20.5t-20.5 -15t-19.5 0.5q-4 2 -5.5 12.5t-1 23t1.5 24t1 14.5q2 14 10.5 29t11.5 25q2 9 3 16.5t3 15.5q5 17 10 42t11 44q10 32 22.5 58.5t20.5 49.5t13.5 43.5t14.5 43.5q33 90 76.5 186.5t88.5 189.5q2 5 8 16t12.5 23t11.5 22.5t5 14.5
q0 5 -7.5 24t-12.5 34q-12 35 -28.5 77.5t-28.5 80.5q-18 57 -34 111t-32 107.5t-33.5 107t-39.5 108.5q-12 31 -31 68.5t-40 67.5q-8 11 -16.5 24.5t-12.5 13.5t-8 -6.5t-7.5 -15.5t-7 -18.5t-5.5 -15.5q-6 -17 -12.5 -40.5t-12 -48.5t-8 -49.5t-0.5 -42.5q0 -7 1.5 -18
t4 -22t5 -20t5.5 -12q5 -6 9 -3t12 1q2 -1 1 -5.5t1 -6.5q-1 1 6.5 4t17 5.5t18 3.5t10.5 -3q2 -5 -4 -13t-18 -14.5t-27 -9t-31 2.5q-18 6 -29 27.5t-16.5 50.5t-6.5 60.5t1 57.5q3 64 18.5 109.5t57.5 61.5q5 2 16.5 7.5t28.5 1.5q2 -1 4.5 -6t4.5 -5q3 -1 7 1.5t6 1.5
q22 -11 41.5 -39.5t36.5 -65t32.5 -76t28.5 -73.5q14 -36 27 -68.5t25.5 -67t26 -73.5t29.5 -88q6 -19 13.5 -48t17.5 -58q11 -31 20 -60t15 -33q5 -3 11 4.5t11.5 17.5t9.5 19.5l4 9.5q10 17 16 28t11.5 20.5l11 19t14.5 23.5q2 4 5.5 8t5.5 7q2 4 1 9.5t1 9.5
q11 18 22.5 32.5t18.5 25.5q10 17 17.5 33t15.5 30q5 8 10 14.5t10 14.5q3 4 2 9t1 10q1 2 6 1.5t7 1.5t-1 6t-2 6q16 26 30 43.5t31 43.5q2 3 5.5 7t5.5 7q2 4 1 10t1 9q3 5 9.5 5.5t8.5 4.5q3 4 1.5 10t1.5 9q32 48 68 98t75 106q18 26 44 65t58 80q8 9 17.5 18.5
t21.5 20.5q1 1 6.5 5.5t12.5 8.5t14.5 4t11.5 -9q1 -2 -1 -7.5t-5 -11t-7 -10.5t-6 -6q-3 -2 -10 -2t-9 -2q-35 -33 -58 -69t-51 -78l-21 -29q-5 -8 -7 -14.5t-7 -12.5q-1 -2 -6 -1.5t-7 -1.5q-1 -2 2 -6t1 -6q-20 -32 -49 -69.5t-53 -75.5q-9 -14 -17 -28t-18 -29
q-8 -12 -18 -25t-18 -26q-2 -4 -1 -9t-1 -10q-4 -7 -9.5 -12.5t-10.5 -16.5q-4 -8 -11 -19.5t-14 -22.5l-48 -85q-7 -11 -13 -19.5t-11 -22.5q-4 -8 -11 -19.5t-14 -22.5q-4 -7 -6.5 -13.5t-7.5 -14.5q-6 -11 -12 -19.5t-12 -22.5q-5 -12 -17 -32.5t-21 -37.5t-18.5 -31.5
t-9.5 -24.5q-1 -14 9 -39.5t18 -48.5q21 -57 48 -118.5t53 -117.5q8 -17 17 -37.5t19 -40.5t19.5 -38t18.5 -31q3 -5 11.5 -11.5t14.5 -14.5q7 -9 17.5 -21t22.5 -21.5t24.5 -16t24.5 -5.5q16 1 30 11.5t25.5 24.5t21 29.5t17.5 27.5q3 5 8.5 8.5t8.5 7.5q2 5 1 10t1 9
q11 19 23.5 37t21.5 35l4 10t5 10q2 4 5 8t5 7q4 8 6 20t5 19q8 17 18 35.5t19 40.5q8 19 14.5 40t14.5 41l29 81q3 9 7 21.5t8 23.5t8 19.5t7 9.5z" />
    <glyph glyph-name="Y" unicode="Y" horiz-adv-x="1283" 
d="M1282 226q2 -1 7.5 -2t10.5 -2.5t7.5 -5t-1.5 -8.5q-2 -2 -11 -1.5t-21 2t-23 2.5t-15 1q-3 0 -15.5 -2t-29.5 -5t-36 -7t-35 -9t-28 -10.5t-15 -7.5q-4 -9 -7 -25.5t-6 -35l-6 -37t-7 -31.5q-8 -29 -14.5 -51t-12.5 -42t-12.5 -39.5t-15.5 -41.5q-11 -26 -26 -62
t-29 -65q-2 -4 -2 -10t-2 -11q-2 -2 -7 -4t-6 -4q-4 -8 -5 -17.5t-5 -17.5q-5 -11 -13.5 -21t-16.5 -23q-5 -7 -8.5 -15.5t-8.5 -19.5q-7 -14 -22 -31.5t-26 -34.5q-11 -16 -18 -30t-18 -28q-10 -12 -23.5 -22t-27.5 -24q-12 -12 -16 -16.5t-7 -7.5t-8 -7l-20 -16
q-24 -19 -55.5 -39.5t-68.5 -35t-79 -19.5t-87 7q-15 4 -27 8t-26 12q-25 14 -40 46.5t-13 74.5q2 38 14.5 73t30.5 67t40.5 61.5t45.5 55.5q34 39 74.5 77t84.5 76q60 52 130 110t142 110q11 8 28 21t24 18q13 9 29.5 17t30.5 17t31 17t22 16q8 12 10 37.5t7 52.5
q19 104 30.5 212.5t9.5 234.5q-2 47 -1.5 97.5t-11.5 101.5q-5 19 -12.5 38.5t-16.5 35.5t-20.5 26.5t-23.5 11.5q-5 0 -14 -4.5t-20.5 -12.5t-23 -18.5t-21.5 -20.5q-14 -16 -25.5 -36t-21.5 -37q-56 -89 -100.5 -194.5t-83 -217.5t-74 -224.5t-72.5 -213.5
q-7 -17 -16.5 -44.5t-22.5 -59t-30 -63.5t-38.5 -57.5t-48 -41t-58.5 -14.5q-25 1 -43.5 16t-32.5 38t-23.5 51.5t-15.5 55.5q-18 81 -17.5 160.5t2.5 159.5q2 73 4.5 146.5t12.5 150.5q5 40 12.5 86.5t16 96t17.5 100.5t17 100q3 20 7.5 43.5t7.5 58.5q2 26 3.5 49.5
t0.5 24.5q-7 7 -24 -5.5t-36 -32t-35 -38.5t-21 -25q-14 -18 -25.5 -35t-22.5 -31q-23 -29 -40.5 -52.5t-30.5 -62.5q-2 -7 -5.5 -19t-6 -25t-2.5 -25t5 -19q2 -4 8.5 -5.5t12 -3.5t8 -5t-3.5 -10q-7 -7 -19.5 -8.5t-23.5 3.5q-13 6 -17 23t-2.5 38.5t7.5 44.5t14 41
q4 50 39 105.5t83 103.5q12 15 23.5 31.5t25 31t31.5 25t43 14.5q2 0 11 4.5t24 -0.5q3 -1 5 -6.5t4 -5.5q2 -1 7.5 1t6.5 0q9 -8 13.5 -33.5t5.5 -51.5q1 -14 -4.5 -33t-7.5 -35q-4 -38 -7.5 -76t-8.5 -73q-12 -95 -24.5 -187t-21.5 -185.5t-14 -189t-2 -197.5
q2 -58 9.5 -120.5t29.5 -115.5q8 -20 12.5 -30.5t15.5 -12.5q9 -2 18 2.5t18.5 13t18 19t16.5 19.5q8 11 14 29t14 35q5 10 12 17.5t12 18.5q28 74 55 157t53 158q7 20 12.5 38.5t12.5 38.5q22 63 44 126.5t47 126.5t53 123.5t62 116.5q22 35 43.5 71t46.5 61q1 1 9 8.5
t17 16t17 15.5l8 7q38 22 68 21.5t52.5 -17t38 -45.5t26 -66t16 -78t8.5 -80q4 -56 2 -122t-7 -134.5t-13.5 -135.5t-18.5 -124q0 1 -1 -5.5t-2.5 -15.5t-3 -16.5l-1.5 -7.5q3 1 16 5t32.5 8t41.5 8.5t42.5 6.5t37 2t24.5 -5zM1002 137q-47 -26 -95 -60t-95.5 -71t-93.5 -75
t-88 -73q-3 -2 -6 -7.5t-6 -7.5q-23 -18 -50 -43.5t-52 -48.5q-27 -25 -53.5 -53.5t-52.5 -66.5q-2 -3 -11.5 -17t-20 -29.5t-19.5 -28t-9 -13.5q-5 -14 -11.5 -33t-11 -41t-5 -45t6.5 -44q3 -9 10 -17.5t15.5 -15.5t16.5 -12.5t14 -7.5q23 -9 53.5 -8t61.5 9t59.5 20.5
t48.5 25.5q22 14 43.5 30.5t42.5 38.5q30 31 58 71t52.5 83.5t46.5 89t42 88.5q16 36 32.5 81.5t30.5 93.5t26 96t20 91zM1096 246v-4v4z" />
    <glyph glyph-name="Z" unicode="Z" horiz-adv-x="998" 
d="M122 -463q-4 -5 -6 -13t-7 -16q-18 -31 -30.5 -51t-17 -33.5t-1 -21t18.5 -12.5q6 -2 15 -0.5t17 -0.5q17 6 34 14t28 12q22 8 39.5 12t33.5 9q8 2 15.5 8t15.5 8q39 11 78.5 26.5t78.5 23.5q24 5 52 8.5t56 4.5t52.5 -1.5t42.5 -8.5q1 -1 14 -8t25.5 -17t18.5 -21
t-6 -20q-7 -5 -15 -2t-15 8.5t-12 11.5t-6 6l-10 5t-16 8.5t-14.5 7.5l-6.5 3q-37 6 -81.5 -6t-89.5 -23q-43 -11 -78 -21t-68 -21t-68.5 -24.5t-79.5 -29.5q-32 -12 -63.5 -9.5t-47.5 30.5q-8 14 -7.5 27.5t12.5 33.5q4 7 6 11.5t6 10.5q4 8 6 18.5t7 18.5q4 7 9 11.5
t10 11.5q4 8 6 14.5t7 14.5q3 5 9.5 11.5t8.5 11.5q102 189 210.5 354t224.5 321.5t241 312t261 326.5q9 13 20 29.5t19.5 33t12.5 31t0 23.5q-6 15 -25 18t-44.5 -0.5t-55.5 -12.5t-57 -18.5t-48.5 -18.5t-31.5 -12q-18 -6 -34 -10t-33 -10q-49 -17 -105 -39t-113.5 -46
t-113.5 -48t-105 -46q-42 -19 -89 -41.5t-89 -44.5q-19 -10 -21 -15.5t-6 -9.5t1 -5.5t13 -2t15.5 -1t7.5 -2.5q0 -5 3.5 -7t-4.5 -7q-8 -6 -19.5 -11t-23.5 -7q-8 -1 -30.5 -0.5t-43 4t-31.5 11t4 20.5q18 16 42 27.5t45 22.5q90 48 189 90t186 77q69 28 132 52.5t126 47.5
q74 26 142.5 49t144.5 32q10 1 27.5 3t35.5 0.5t32.5 -7.5t19.5 -21q4 -14 0.5 -31t-11 -34.5t-17 -34.5t-18.5 -31q-101 -161 -217.5 -320t-237.5 -319.5t-241 -324.5t-228 -335q-8 -12 -12.5 -17.5t-8 -10t-7.5 -10t-10 -15.5z" />
    <glyph glyph-name="bracketleft" unicode="[" horiz-adv-x="214" 
d="M276 -329q4 -11 -5.5 -14t-24.5 -2.5t-29.5 3t-18.5 4.5q-11 4 -27.5 11.5t-33 17t-30 21.5t-18.5 25q-6 16 -9.5 45t-5 61t-2 63.5t-0.5 53.5q0 35 1 81.5t2.5 98.5t3 105t3.5 101q2 70 3.5 139t11.5 141q3 24 7 44.5t15 30.5q3 2 5.5 2t7.5 2q14 5 26 1.5l36 -10.5
q14 -4 22.5 -4t21.5 -4q-2 0 4 -3t6 -1q2 -8 -11 -7.5t-30.5 4.5t-33 8t-18.5 3q-6 -3 -10 -12.5t-6 -23t-3 -29.5t-2 -31q-5 -68 -7 -139.5t-3 -143.5t-1 -144.5t-2 -142.5q-1 -29 -1 -58t-2 -56q-1 -29 -2.5 -56.5t0.5 -53.5q1 -11 3 -29t9 -32q5 -10 13 -18t19 -17
q18 -14 39 -24t51 -11q1 0 5 1.5t8 2t8 0t5 -3.5z" />
    <glyph glyph-name="backslash" unicode="\" horiz-adv-x="306" 
d="M248 -327q-1 5 0 2t2.5 -9.5t1.5 -13.5t-3 -10q-8 -7 -15 -4t-12.5 10t-9.5 15t-5 13q-2 5 -1 11t0 11q-2 9 -5.5 23t-7.5 29.5t-7.5 31t-5.5 27.5q-17 81 -32.5 166t-32.5 169q-12 60 -21.5 117t-19.5 123q-8 55 -16.5 117.5t-19.5 122.5q-2 8 -3.5 20t-3 22.5
t-2.5 18.5t-2 8q-2 1 -5.5 -5.5t-5.5 -7.5q-12 -5 -14.5 0.5t-0.5 14t6 17.5t7 11q3 3 4 2.5t5 1.5q16 7 25.5 -6.5t15.5 -34.5t9 -44t5 -35q30 -173 59.5 -347.5t62.5 -347.5q8 -43 18.5 -99t22.5 -107q2 -8 0.5 -11t0.5 -10z" />
    <glyph glyph-name="bracketright" unicode="]" horiz-adv-x="254" 
d="M160 679q7 -25 8.5 -55t0 -61t-4.5 -61t-4 -55q-5 -86 -9.5 -166.5t-9 -159.5t-8.5 -159.5t-8 -167.5q-1 -21 -1.5 -41t-2 -36.5t-4.5 -28.5t-7 -17q-9 -11 -23 -14t-31.5 -2.5t-37 2.5t-39.5 1q-5 -1 -11 0.5t-11 -0.5q-2 -2 -2.5 -5t-5.5 -4q-10 -2 -18 -4.5t-13 4.5
q-4 7 3 12t18.5 8t24 4.5t19.5 1.5q13 1 25.5 0.5t17.5 -0.5q12 0 23 -3.5t21 3.5q4 3 6 19.5t3 37t1.5 40.5t0.5 30q3 141 10.5 264t18.5 249q3 32 5 61.5t4.5 59.5t4 62.5t3.5 70.5q0 7 0.5 26t0 40t-3 39t-9.5 22q-1 1 -18 -5.5t-38.5 -13t-41 -9.5t-23.5 6q-5 8 4.5 9
t20.5 5q9 2 21 6.5t25 8.5t24.5 7.5t20.5 3.5q5 0 18.5 1t21.5 -6q4 -3 6 -11.5t4 -18.5z" />
    <glyph glyph-name="asciicircum" unicode="^" horiz-adv-x="249" 
d="M196 475q2 -8 5 -10t-2 -5q-11 -7 -19.5 1.5t-15 24t-10.5 33t-7 27.5q-5 18 -11 11t-15 -22l-19 -30q-3 -5 -8 -13t-11 -15.5t-13 -12t-13 -0.5q-1 0 -1.5 0.5t-1.5 0.5h-1v2q2 8 6 13t9 13q11 17 19 34q11 20 19 38.5t18 28.5q2 2 5 2.5t7 1.5v2v2q20 2 26.5 -14
t14.5 -42q6 -22 9 -38t10 -33z" />
    <glyph glyph-name="underscore" unicode="_" horiz-adv-x="334" 
d="M237 57q17 -2 28 -2.5t8 -17.5q-2 -8 -9.5 -11t-19 -3.5t-24 -0.5t-24.5 -1q-17 -2 -42 -5.5t-48 -5t-41 1.5t-22 15q-5 15 1.5 17.5t13.5 7.5q5 3 27 5t50 3t56 0t46 -3z" />
    <glyph glyph-name="grave" unicode="`" horiz-adv-x="156" 
d="M95 504q8 -4 4 -7.5t-17 -2.5q-11 1 -25 14.5t-18 31.5q0 3 -1.5 9t-1.5 8q1 5 3.5 4.5t6.5 1.5q2 1 8.5 3t11.5 -3q1 -1 1 -10.5t2 -15.5q3 -11 9 -19t17 -14z" />
    <glyph glyph-name="a" unicode="a" horiz-adv-x="438" 
d="M455 166q12 -2 14 -6t-0.5 -9t-7 -9.5l-6.5 -6.5q-7 -8 -27 -24t-47 -34.5t-58 -36t-61 -28.5t-57 -12t-45 13q-11 9 -17 24.5t-10 31t-6.5 28t-5.5 14.5q-4 2 -16.5 -7t-26 -21t-25 -22.5t-12.5 -10.5q-18 -7 -31 -4t-21 11.5t-11 19.5t0 20q1 4 1 7t0.5 6.5t2.5 8.5
t8 15q4 8 14.5 22.5t27 25t38 12.5t48.5 -16q11 -8 16.5 -19.5t3.5 -17.5q-1 -2 -3 -2t-4 -1q-10 -1 -13 3q-6 8 -10 19t-11 15q-17 3 -30 -6.5t-22 -22t-13.5 -23.5t-5.5 -11q-2 -4 -5 -10.5t-5.5 -13t-2.5 -13.5t5 -13q12 0 26 14.5t29.5 29.5t33 23t37.5 -6q11 -8 16 -23
t8 -31t7 -30t12 -20q10 -7 34 0t53.5 21t58.5 31.5t49 31.5q14 11 29.5 24.5t19.5 16.5l7 6q2 1 4 3.5t4 5.5t4 5.5t5 1.5z" />
    <glyph glyph-name="b" unicode="b" horiz-adv-x="391" 
d="M421 164q5 -3 0.5 -12t-21.5 -18q-26 -14 -49 -26.5t-46 -20.5q-4 -1 -14.5 -4.5t-22 -8t-21 -8.5t-12.5 -6q-8 -8 -16 -25.5t-18.5 -39t-25 -44.5t-34.5 -42q-21 -20 -44 -31q-6 -2 -14.5 -6t-16.5 -4q-9 0 -15.5 3t-8.5 1q-4 -3 -6.5 -16.5t-7 -28.5t-11 -26t-18.5 -8
q-5 1 -8 1t-5 2.5t-3 10t-2 23.5q0 6 0.5 14t2 15t2.5 12.5t1 6.5q3 60 5.5 135t6.5 156t9.5 162.5t13.5 155.5t19 135t26 100q3 8 3 8.5t9 3.5q22 8 22 -6.5t-4 -54.5q-2 -24 -5.5 -50.5t-7.5 -54t-7 -54t-4 -49.5q-6 -91 -9.5 -180.5t-9.5 -186.5q-1 -18 -3 -36t-4.5 -33
t-3.5 -24.5l-1 -9.5q3 -6 12 9t18.5 36t18.5 42t13 27q9 14 20 35t25 35q6 6 14.5 12.5t19 10.5t23.5 4t29 -7q11 -7 13 -19.5t2 -32.5q0 -7 -2 -15t-4 -15.5t-2.5 -14t2.5 -10.5q1 -2 7 -0.5t15 4.5t19 6.5t19 7.5q15 5 36 14.5t41 18.5q9 4 16.5 12t15.5 10q4 2 5 1.5
t3 -2.5zM183 43q-12 -4 -24 -7.5t-25 -10.5q-3 -2 -11.5 -7.5t-14.5 -10.5l-3.5 -3.5l-8 -8t-8 -8.5t-3.5 -5q-8 -18 -14 -35t-15 -39q-6 -16 4 -16.5t31 11.5q5 3 6.5 6t5.5 6q19 15 27.5 24t14 17.5t10.5 20t18 33.5q9 16 10 33zM200 79l4 15.5t7.5 34t5.5 35.5t-1 20
q-5 4 -13 0t-16.5 -11t-15.5 -14.5t-8 -10.5q-5 -7 -13 -21.5t-16 -31t-15 -30.5t-9 -19q-1 -3 3.5 -0.5t12.5 5.5t14.5 5t18.5 7t24.5 9.5t16.5 6.5z" />
    <glyph glyph-name="c" unicode="c" horiz-adv-x="307" 
d="M335 166q12 -2 7.5 -10t-15.5 -18t-23.5 -18.5t-16.5 -12.5q-10 -8 -17 -17t-15 -15q-5 -3 -10.5 -5t-10.5 -6q-2 -1 -3 -5t-3 -5q-11 -5 -23 -12t-25 -15q-5 -3 -8 -8t-8 -8t-10.5 -2.5t-10.5 -2.5q-21 -11 -42.5 -22.5t-48.5 -9.5q-24 2 -47 18.5t-27 45.5q-6 34 5 69
t31 64t46 49.5t51 25.5q13 2 31.5 4t32.5 -10q8 -6 12 -17t3 -20.5t-7.5 -15t-18.5 -0.5q-6 2 -9.5 0.5t-6.5 4.5q-3 9 -4 17t-3 13t-7 4.5t-18 -7.5q-26 -15 -39.5 -36.5t-29.5 -54.5q-5 -9 -12 -18.5t-9 -18.5q-3 -14 -3 -30t3 -30.5t9.5 -26t16.5 -14.5q9 -3 20 -0.5
t22.5 8t23 12.5t20.5 12q47 27 83.5 55.5t81.5 66.5q11 10 16.5 17t15.5 5z" />
    <glyph glyph-name="d" unicode="d" horiz-adv-x="288" 
d="M265 790q2 -5 0 -16t-5.5 -23.5t-7 -26t-4.5 -22.5q-6 -45 -13.5 -107.5t-15 -129.5t-14.5 -131t-11 -111q-8 -94 -15 -201t2 -225q0 -11 2 -21q1 -4 1 -9q1 -8 1.5 -18t-0.5 -18.5t-4.5 -13.5t-10.5 -3q-10 2 -16 11t-10 21t-7 27t-6 29q-5 20 -6 31t-1 23q-2 29 2 60
t6 71q0 9 -0.5 20.5t0.5 22.5q0 1 1 6.5t1.5 12.5t0.5 14t-2 10q-2 9 -4.5 8t-4.5 -6t-4 -11.5t-3 -8.5q-11 -11 -21.5 -34.5t-24 -47.5t-33 -42.5t-49.5 -19.5l-4 1.5t-9.5 3t-10 3l-4.5 1.5q-3 3 -7 11.5t-7 20t-5.5 23.5t-2.5 22q-1 29 10 61.5t28.5 61.5t38.5 50t39 28
q13 5 25.5 9t28.5 -1q1 0 4.5 -2.5t7.5 -5.5t7 -5l3 -2q4 2 7 14t5 29.5t4.5 37.5t4.5 38q3 28 8 66t11.5 80t14 85.5t15 84t14.5 74t13 56.5q2 10 7 21.5t10 16.5q2 1 4 3t4.5 3t5.5 -1t6 -9zM45 -13q9 13 23 39.5t26.5 54.5t19.5 51t1 31q-8 11 -13 15t-8.5 4t-7.5 -2
t-10 -4q-14 -5 -25.5 -22t-17.5 -27q-5 -9 -8.5 -14.5t-5.5 -10.5t-4.5 -11.5t-5.5 -16.5q-2 -7 -7 -15t-7 -18q-3 -14 -3.5 -31t1 -32.5t4 -26.5t5.5 -13q5 -3 12.5 4.5t14 17t11.5 18.5z" />
    <glyph glyph-name="e" unicode="e" horiz-adv-x="218" 
d="M256 164q2 -2 -4 -8.5t-14.5 -13t-17 -12.5t-10.5 -8q-16 -13 -34.5 -29.5t-38 -32.5t-38 -28.5t-34.5 -17.5q-12 -4 -27 -5t-26 4q-17 8 -25 31.5t-4 52.5q2 20 12.5 42t25.5 41.5t33 33t36 16.5q16 2 28 2t18 -11q5 -10 0 -22.5t-14 -24.5t-19.5 -20.5t-16.5 -10.5
q-21 -7 -37 0q-1 0 -3 3.5t-4 2.5q-4 -2 -10 -18.5t-9.5 -36.5t-2 -38.5t12.5 -24.5q7 -4 16.5 -1.5t18.5 7t17.5 10.5t13.5 9q16 11 26.5 19t20 16.5t21.5 18.5t31 25l12 9t17 12t17 9t12 -1zM99 209q-5 1 -13.5 -6.5t-17 -16.5t-14 -17t-4.5 -9q3 -3 8.5 -2t11.5 3t10.5 4
t5.5 3q9 6 16 18t5 23q-2 6 -4 3t-4 -3z" />
    <glyph glyph-name="f" unicode="f" horiz-adv-x="251" 
d="M238 -12q7 -6 1 -10.5t-17 -8t-22.5 -6t-15.5 -3.5q-12 -5 -18.5 -8t-12 -5.5t-12.5 -5t-19 -6.5q-11 -4 -26 -9t-28.5 -10t-23.5 -9.5t-11 -6.5q-3 -4 -3 -13.5t1 -22t2 -27t1 -29.5q0 -17 -2.5 -33.5t1.5 -27.5q6 -18 25 -33.5t35 -29.5q4 -3 11.5 -15.5t14.5 -29
t12.5 -33.5t6.5 -29q1 -15 -5.5 -36.5t-18.5 -37t-29 -20t-39 13.5q-21 17 -33.5 52t-19.5 72q-2 10 -1 25.5t1 32t-1.5 32t-6.5 26.5q-6 11 -29 21t-42 17q-20 3 -36 7q-14 4 -26 9.5t-14 13.5q-2 10 7.5 20t24 19t30 16.5t25.5 12.5q2 1 11 5t19 8.5t18.5 9t10.5 7.5
q1 1 1 8.5v17v21v20.5q1 22 3.5 58t6.5 78.5t9 88t10 87t9.5 75.5t7.5 54q3 15 6.5 33.5t8 37.5t9 37.5t8.5 34.5q3 12 10 32t22 26t24.5 4t15.5 -11.5t9 -26.5t6 -41q1 -11 2.5 -25t2.5 -26.5t0 -22.5t-4 -12q-9 -7 -15.5 -1t-10.5 16.5t-6.5 23t-3.5 19.5q-3 21 -5 25
t-3.5 -2.5t-3.5 -19t-4 -22.5q-5 -23 -10.5 -58.5t-11.5 -77t-11.5 -86.5t-10.5 -88t-8.5 -80.5t-5.5 -63.5q-1 -16 -3 -34t-3 -34.5t-1 -28t3 -14.5q24 15 48 25t37 15q1 0 16.5 6t35 11.5t38.5 8.5t26 -3zM37 -308q-6 -7 -6 -17t2 -21t5 -21.5t5 -19.5q1 -8 1 -12v-8v-9
t3 -14q1 -3 5 -14.5t9 -24t11 -22t11 -9.5q3 0 11 13t10 25q2 13 -0.5 34.5t-4.5 32.5t-3 15t0 5q-2 2 -6 10q-2 3 -5.5 9.5t-8 13.5t-8.5 12t-5 6q-11 7 -15.5 15t-10.5 1zM-19 -177q0 13 1 18t2 8t0.5 6t-2.5 12q-2 6 -11.5 3.5t-21 -8.5t-21.5 -12.5t-13 -7.5
q-7 -4 -15.5 -8t-16 -8t-12 -8.5t-2.5 -9.5q-1 3 16 -2.5t38 -13t39 -14t20 -4.5t0.5 17t-1.5 32z" />
    <glyph glyph-name="g" unicode="g" horiz-adv-x="329" 
d="M339 162q7 6 13 3t-4 -17l-17.5 -25t-21 -30.5t-20 -30t-15.5 -23.5q-10 -14 -19 -31t-17 -28q-11 -16 -14 -26.5t-2.5 -20.5t3 -21t3.5 -28q2 -35 0.5 -62.5t-3.5 -53.5q-1 -9 -1.5 -18t-2.5 -18q0 -2 -1.5 -10.5t-3 -18.5t-2.5 -18l-1 -8q-3 -14 -11 -34t-18 -41
t-20 -39.5t-18 -30.5q-9 -13 -23.5 -30.5t-32 -31.5t-36 -19.5t-35.5 6.5q-12 9 -17 25.5t-5 36.5t3 40.5t7 36.5q4 18 11 37.5t14.5 38.5t16 36.5t15.5 29.5q9 17 22 40t23 40q9 15 25 38t27 38q2 3 5.5 8.5t7 10.5t5.5 9t2 3q2 10 -3.5 23t-7.5 30q-2 20 -4 44.5t-4 48.5
t-5 46t-7 38q-8 -14 -15 -24.5t-14 -20.5l-28 -36q-5 -6 -14 -16t-20 -20.5t-23.5 -19t-25.5 -12.5q-22 -6 -32.5 0t-13 20t1.5 32.5t10 37t13 33.5t12 23q1 1 4 6l6 10l8 14q11 14 30.5 29.5t38.5 18.5q18 3 28 -3t13 -16.5t0.5 -23t-9.5 -22t-17 -14t-21 1.5q-4 7 0 14.5
t8.5 14.5t6.5 13.5t-6 11.5q-6 4 -14 -1t-15 -12.5t-12.5 -15.5t-7.5 -11q-8 -12 -14 -20.5t-15 -24.5q-2 -3 -8 -16t-10.5 -29.5t-5.5 -31.5t8 -21t23 2.5t28 22t25.5 28.5t17.5 22q7 9 17 24t19.5 31t16.5 31.5t8 27.5q1 17 1 29t5 31q1 4 6.5 15.5t12.5 22.5t16 18t18 3
t9.5 -11.5t-2 -15.5t-6.5 -15.5t-5 -10.5q-3 -15 -5.5 -24.5t-4 -17.5t-1.5 -16v-21q2 -23 2.5 -44t2.5 -46q1 -11 3.5 -31t5 -39.5t4.5 -34.5t3 -16q1 0 1 -4.5t0 -3.5l24 35l16 24t20 31t19 30t14 22q6 10 14.5 22t13.5 17zM152 -391q13 39 20.5 71.5t10.5 65t2 67
t-5 77.5q-32 -43 -64.5 -99t-62.5 -132q-2 -4 -3.5 -6.5t-3.5 -7.5q-2 -10 -4 -16l-4 -12t-4 -14t-4 -21q-2 -7 -6.5 -22.5t-2.5 -32.5q2 -19 7.5 -38.5t15.5 -22.5q11 -4 24 5.5t24.5 23.5t20.5 28t12 19q8 13 11.5 20.5t5.5 13t3.5 12.5t6.5 21z" />
    <glyph glyph-name="h" unicode="h" horiz-adv-x="389" 
d="M410 165l3.5 -3.5t-1.5 -6.5q-5 -12 -16.5 -30.5t-26.5 -38.5t-31.5 -39.5t-32.5 -34.5t-29.5 -23t-21.5 -4q-11 2 -18 10.5t-11.5 19t-7.5 21.5t-4 19q-2 11 -1.5 26t-0.5 25.5t-5.5 13t-14.5 -10.5q-30 -38 -54 -89t-44 -101q-1 -2 -2 -8.5t-3 -9.5q-4 -6 -7.5 -14
t-9.5 -14t-14 -10t-21 -3q-1 0 -9.5 2t-9.5 3q-7 6 -10.5 26t-5 44.5t-1 49t0.5 39.5q0 14 -2 29.5t-2 30.5q0 21 2 53t6 69.5t9 78t10 79t10 71t10 55.5q7 32 17 61t19 58q5 16 9 33.5t10.5 33.5t17.5 28.5t29 18.5q10 4 22 4t15 -8q2 -5 -1 -8t-7.5 -5t-9 -3.5t-5.5 -2.5
q-2 -2 -5.5 -11t-7.5 -20t-8 -21.5t-5 -16.5q-5 -18 -7.5 -36.5t-6.5 -38.5q-4 -17 -7.5 -35.5t-6.5 -38.5q-5 -31 -10.5 -77.5t-10.5 -98t-9 -102.5t-7 -91q-2 -17 -4.5 -49.5t-3.5 -61.5t1 -44t10 3l33 63q2 4 2 9t3 10q1 2 5 8.5t8.5 14t8.5 13.5t6 8q8 14 24.5 33.5
t38.5 25.5q15 4 22.5 2.5t12 -9t7 -22t5.5 -35.5q5 -29 4 -48.5t7 -24.5q7 -4 19 4t26 23t29 35t28 38t22.5 32t13.5 19q7 5 9 5.5t4 -0.5z" />
    <glyph glyph-name="i" unicode="i" horiz-adv-x="261" 
d="M282 149q2 2 1.5 1t-3.5 -5zM31 258q-6 2 -8 9t-2 14.5t1.5 13l1.5 5.5q3 3 9 5t12 2.5t10.5 -1t5.5 -6.5t6.5 -7.5t5.5 -4.5q-6 -12 -9 -18.5t-4.5 -10.5t-2 -6t-2.5 -4q-5 -6 -11 -2.5t-13 11.5zM275 163q1 1 4.5 2t6 0.5t2.5 -4t-6 -12.5q-4 -3 -15.5 -15.5
t-21.5 -21.5q-15 -13 -26.5 -24t-23 -21t-25 -19.5t-31.5 -19.5q-22 -13 -51 -22.5t-63 1.5q-11 3 -24 19t-15 36q-1 15 1 34t7 36t11.5 30t14.5 16q16 5 20 -1t2.5 -18t-5 -28.5t-3.5 -32.5q0 -23 1 -44t14 -29q22 -9 51.5 3.5t59 34.5t55.5 45.5t42 36.5q-1 0 1.5 2.5
l5.5 5.5l6 6t5 4z" />
    <glyph glyph-name="j" unicode="j" horiz-adv-x="191" 
d="M229 164q5 -5 -7 -16.5t-29.5 -23.5t-33.5 -21.5t-19 -11.5q-11 -8 -18.5 -15.5l-15.5 -15.5q-11 -10 -18 -17.5t-18 -19.5q-1 -15 2 -27.5t4 -25.5q5 -80 -2.5 -154t-25.5 -140t-45 -122.5t-61 -102.5q-8 -12 -15.5 -23.5t-14.5 -19.5q-5 -5 -19 -14t-24 -16
q-5 -3 -11 -8.5t-14 -10.5q-9 -5 -22.5 -12t-30 -12.5t-36 -8t-39.5 2.5q-41 8 -61 48.5t-12 103.5q2 18 11.5 44.5t22.5 53.5t26 51.5t22 39.5q46 72 96.5 134.5t93 110t72 77.5t34.5 37q-2 21 -5 39q-2 15 -4 29.5t-3 19.5q-2 9 -8 28.5t-10.5 41t-3 41.5t15.5 29
q12 8 16 6t5.5 -10.5t1 -22t2.5 -28.5q2 -11 7.5 -26.5t10.5 -34.5q2 -10 4.5 -23t5 -25t4 -21t2.5 -9q2 -1 14 7t25.5 19t26 21t16.5 13q3 1 14 10t24.5 18t27 14t19.5 -1zM-64 -482q24 45 43 99.5t31.5 114.5t17 123.5t0.5 126.5q-1 7 -3.5 3.5t-3.5 -3.5q-2 1 -7.5 -3.5
t-11.5 -10.5t-11.5 -11l-5.5 -5q-25 -28 -66 -74t-84 -101.5t-82 -115.5t-61.5 -116t-21 -103t39.5 -77q14 -13 32 -14.5t36 4.5t34 16t26 19q3 2 6.5 3t5.5 3t0.5 6t-0.5 6l13 6q10 10 16 17.5t14 19.5q9 14 17 23.5t14 19.5zM0 322q-6 -2 -11 -0.5t-9 5t-7.5 7.5t-4.5 7
q-5 11 2.5 24.5t15.5 18.5q15 8 30 3.5t19 -22.5q1 -4 -3.5 -11t-10.5 -13.5t-12 -12t-9 -6.5z" />
    <glyph glyph-name="k" unicode="k" horiz-adv-x="246" 
d="M208 -24l4.5 -4.5t-3.5 -7.5q-11 -8 -22.5 -1t-26.5 14q-9 4 -27.5 16t-36.5 24t-31.5 22t-13.5 12q-6 -2 -10 -20t-7 -44.5t-4.5 -59t-0.5 -63.5q0 -22 1 -47t3 -50.5t4.5 -49t5.5 -41.5q1 -8 4 -19t5.5 -22t2.5 -19.5t-5 -12.5q-14 -11 -21.5 0t-11.5 29t-5 36.5
t-2 21.5q-9 74 -11 133t-3 118q0 48 -0.5 91t2 87.5t9.5 94t21 111.5q5 23 13.5 53t18 60.5t19 59.5t15.5 50q2 4 4 9q2 4 3.5 9.5t3.5 10.5l10 28q3 18 0.5 22.5t-8 1t-13.5 -10.5t-16 -11q-10 -6 -19 -10q-8 -3 -14.5 -4.5t-8.5 3.5q-3 6 8.5 16t28 19.5t32.5 16.5t23 7
q22 0 28.5 -15t4 -36.5t-10 -45.5t-13.5 -43q-13 -44 -27 -93.5t-26 -99t-20.5 -96t-9.5 -82.5q20 23 35.5 46t41.5 36q18 4 25.5 -3.5t8 -19t-3 -23.5t-6.5 -17q-3 -4 -8 -9t-7 -9q-5 -7 -16 -17.5t-22.5 -21t-18.5 -20t-4 -15.5q5 -10 13.5 -16t13.5 -11q4 -3 -0.5 0
t-0.5 0q9 -9 19 -16.5t20 -15.5q11 -9 31 -17.5t33 -18.5zM65 102q5 -1 5 7q20 20 37.5 41.5t26.5 50.5q-20 -19 -43 -41.5t-31 -51.5q0 -2 3 -1t5 2q-5 -1 -3 -7zM96 554q-1 -2 -1 -5q0 -1 -1 -1z" />
    <glyph glyph-name="l" unicode="l" horiz-adv-x="266" 
d="M283 166q5 -2 3.5 -6.5t-1.5 -6.5q0 -1 -6.5 -13.5t-16.5 -31t-22 -40t-22 -40t-17.5 -31t-7.5 -13.5q-8 -14 -23.5 -38t-35 -43.5t-42.5 -28.5t-45 8q-11 9 -16 17.5t-12 25.5q-11 28 -15.5 55t-5.5 61q-2 85 5.5 170t19.5 165t27.5 154t29.5 138q1 2 0.5 3t-0.5 3
q-25 -8 -28 -1.5t3.5 18t16.5 22.5l10 11q5 5 7.5 12t9.5 12q8 5 21.5 9t20.5 0q5 -3 6 -7.5t0.5 -10t-2 -11.5t-1.5 -10q-2 -16 -5 -35.5t-6.5 -39t-7.5 -37t-7 -30.5q-5 -17 -8 -32l-6 -30q-4 -20 -9.5 -40t-8.5 -40q-8 -52 -14.5 -94t-11.5 -83q-5 -42 -7 -83.5t-3 -89.5
v-25.5t0.5 -28t1 -25t0.5 -15.5q0 -7 1 -21t3 -28.5t7 -27t13 -17.5q5 -2 13 1t17 9t17 14t13 15q3 4 8 12t8 13l15 22q26 39 51.5 84t48.5 87q3 5 7 10t9 3z" />
    <glyph glyph-name="m" unicode="m" horiz-adv-x="599" 
d="M625 165q3 0 -1 -9q-1 -2 -1.5 -1.5t-1.5 -1.5q-6 -14 -21 -32t-24 -29q-13 -14 -22.5 -24t-20 -18t-23.5 -15.5t-32 -15.5q-15 -6 -32 -11t-34.5 -6.5t-35 2.5t-32.5 15q-21 16 -27.5 40t-9.5 64q0 2 1 12.5t-1 11.5l-4 -2q-2 -1 -8 -7q-9 -11 -19 -24.5t-12 -15.5
q-5 -6 -9.5 -16t-7.5 -15q-10 -16 -21.5 -33t-22.5 -37q-2 -3 -8 -10.5t-13.5 -15t-16.5 -12t-17 -1.5q-10 4 -13.5 16.5t-3.5 28.5t2 32t3 27q2 19 7.5 50t10.5 66q2 16 4.5 34t3.5 34.5t-0.5 29t-7.5 18.5q-7 7 -15.5 -2.5t-17.5 -28.5t-17.5 -44.5t-15.5 -50t-12.5 -45.5
t-6.5 -31q-2 -12 -2 -26.5t-1 -27.5t-4 -23.5t-12 -13.5q-18 -8 -28 4t-14 30.5t-5 37.5t-1 25q-2 23 -2 48.5t2 43.5q1 15 1 27.5t2 21t8 12t19 0.5q11 -3 12 -4t3 -11q-2 9 -1.5 4t2 -14.5t4.5 -19.5t5 -10q1 0 10 17t20 38t21.5 39.5t15.5 21.5q2 2 7.5 4.5t8.5 3.5
q2 1 5.5 0t8.5 -2q25 -3 34 -28t9.5 -58t-4.5 -68t-8 -59q-3 -20 -7.5 -41t-6 -35.5t2.5 -17.5t17 14q1 1 4 4.5t6 8t5.5 8.5l2.5 4q5 6 7 11.5t7 11.5q5 8 8.5 13.5t8.5 11.5q7 10 16 25t19.5 27.5t23 19.5t26.5 2q16 -6 19.5 -26t4.5 -43.5t3.5 -45.5t15.5 -32
q17 -12 41.5 -9t50 13.5t47 25t32.5 25.5q5 5 16 15t21 22q4 5 10 13.5t12.5 16.5t12.5 13.5t11 5.5q2 -1 2 -0.5t1 -0.5z" />
    <glyph glyph-name="n" unicode="n" horiz-adv-x="482" 
d="M516 164q3 -4 -4 -12t-16 -16.5t-18 -15.5t-10 -9q-13 -10 -21.5 -17.5t-16 -14t-16.5 -13.5t-22 -16q-19 -11 -42 -17.5t-44 4.5q-2 1 -5 6t-7 11t-7 12l-4 8q-4 8 -10.5 21.5t-11.5 27.5q-4 9 -6 19t-4.5 18.5t-5.5 14.5t-9 8q-11 3 -24 -7.5t-25 -25.5t-22 -30
t-15 -22q-12 -17 -21.5 -29.5t-24.5 -37.5q-4 -6 -8.5 -15.5t-10 -20t-12 -19t-15.5 -12.5q-4 -2 -10 -3t-12.5 -1t-12 1t-8.5 3q-4 3 -7.5 22.5t-5.5 48.5t-2.5 64t1 68t4 60.5t6.5 42.5q1 0 3.5 -0.5t3.5 0.5q13 9 21.5 5t13.5 -15t7.5 -25.5t2.5 -26.5q2 -18 0 -41.5
t-4 -43.5q-2 -32 -4.5 -50t8.5 -20q7 -2 14.5 4.5t14 16.5t12 20.5t10.5 16.5q2 3 6 5t7 7q8 11 21 26t30 29q11 9 24 20t33 10q15 -1 26 -8.5t18.5 -19.5t13 -27t11.5 -30q4 -11 6 -23t4.5 -21.5t6.5 -17t13 -9.5t22 3.5t26.5 14t25.5 18t18 14.5q4 3 15 12.5t25 20.5
q7 5 13 11.5t12 11.5t12 7t13 -1z" />
    <glyph glyph-name="o" unicode="o" horiz-adv-x="273" 
d="M296 165q2 -1 2.5 -4.5t-3.5 -6.5l-8 -7q-2 -2 -2.5 -2t-3.5 -2l-6 -6q-2 -2 -3 -2t-4 -2q-10 -8 -20.5 -14.5t-22.5 -11.5q-17 -7 -39.5 -9t-39.5 -3q-2 -5 -3.5 -10t-3.5 -12q-6 -20 -12.5 -44t-26.5 -43q-23 -35 -58 -30q-11 1 -23.5 10.5t-18.5 26.5q-4 11 -6 28
t-3 35.5t0 38t4 34.5q2 14 8 27.5t11 27.5q3 8 8 25t13 25q3 4 9 5.5t11 3.5l3.5 2.5t10 5t14 2.5t14.5 -6q4 -3 5 -8.5t0.5 -11t-1.5 -10t-1 -5.5q0 1 6.5 -1.5t13.5 -10.5q-1 -3 4 -3q2 -2 3.5 -5.5t3.5 -5.5q0 -1 0.5 0t1.5 0l2 -8l2 -3l2 -5q0 -1 2 -1q1 0 1 -1l1 -6
l1 2q0 -4 1 -7l3 -9q2 -8 2 -17.5v-17.5h2q18 1 31.5 2t26.5 4.5t25.5 10t28.5 17.5q5 3 5.5 3.5l3.5 3.5l7 6l3 3q1 1 2 1l1 1t4 1q1 0 1.5 0.5t2.5 -0.5q1 0 2 -1zM115 97l-2 1q-17 2 -37.5 14.5t-29.5 26.5q-4 -7 -3.5 -14t-0.5 -11q-1 -11 -3 -31.5t-2 -41.5t3 -38
t12 -20q10 1 18 10.5t14 20.5q7 13 13 30q5 10 7.5 18.5t5.5 19.5zM121 114q0 9 -3 26v2t-0.5 2.5t-0.5 1.5v6q0 2 -1 5q-1 2 -1 3.5t-1 3.5t-1 4l-9 12l-2 2q-12 13 -24.5 15.5t-17.5 -16.5l-3 -7q-1 -3 -2 -5.5t0 -5.5q1 -2 0 -3.5t1 -3.5q2 -3 1 -3t1 -4t2 -4.5t2 -2.5
q8 -7 12.5 -11.5t8.5 -7.5t9.5 -5.5t17.5 -3.5q4 -1 4.5 -1h1t1 0.5t4.5 0.5z" />
    <glyph glyph-name="p" unicode="p" horiz-adv-x="413" 
d="M423 161q5 6 12.5 4.5t2.5 -8.5q-4 -6 -5 -7l-4 -4q-29 -33 -69.5 -48t-80.5 -28q-8 -3 -10.5 -4l-7.5 -3l-13 -3q-3 -15 -13 -38q-9 -22 -18 -41t-26 -38q-14 -15 -23.5 -23.5t-31.5 -16.5q-2 -1 -6.5 -2.5l-9 -3t-7.5 -2t-2 0.5q-3 -5 -4.5 -23t-4.5 -35
q-6 -40 -11.5 -76t-10.5 -72t-9.5 -74t-10.5 -81q-2 -12 -2.5 -30t-3.5 -34.5t-9 -28.5t-19 -12q-17 1 -22 15t-8 30q-4 17 -4.5 38t-1.5 37q-5 83 -5 167.5t2 168t6.5 164t10.5 156.5q2 22 3 45.5t3.5 43t9 33.5t18.5 17q14 5 19.5 -1.5t10.5 -32.5q3 -19 4.5 -45.5
t1.5 -50.5t-1.5 -41t-3.5 -18q-7 -3 -10 -1t-4.5 6t-2 8.5t-3.5 6.5q-5 5 -6 -2.5t-0.5 -20.5t1.5 -27.5t1 -23.5q-4 -113 -6.5 -231t-4.5 -247q0 -14 -1.5 -31.5t-2.5 -33t-1.5 -27t1.5 -12.5q4 22 7 41q2 17 4 32t3 21q3 28 6 51t5.5 45t5.5 44.5t6 48.5q1 4 4 19.5t6 32
t5.5 30t2.5 14.5q-4 3 -9.5 7t-10.5 10t-9 16t-5 26q-2 24 11.5 41t27.5 28q5 4 11 7t9 8q4 6 5.5 17t4.5 23t5 21t4.5 18t5.5 18.5t8 23.5q3 9 8.5 25t15 29.5t23.5 21t34 0.5q4 -2 9 -8t9 -14.5t7.5 -17t4.5 -15.5q2 -10 3.5 -24.5t-0.5 -36.5q-1 -11 -4 -23t-1 -17
q2 0 2.5 -1t6.5 1t11.5 4.5t13.5 3.5t23 6t31.5 11t32 13.5t24.5 15.5q7 6 13 11t13 13zM224 117q2 26 -2.5 40.5t-7.5 26.5q-4 20 -8.5 20.5t-6.5 -0.5q-5 -1 -4 -3.5t-1 -6.5q-3 -6 -6 -10.5t-7 -11.5t-8.5 -17t-9.5 -27q-3 -10 -7 -21.5t-7 -22t-4.5 -18t0.5 -9.5
q1 -1 7 0t13 3.5t13 4.5t7 2q14 3 23.5 6t10.5 5q2 5 2.5 15t2.5 24zM175 -37q16 23 23 46.5t11 42.5q-5 0 -15.5 -1.5t-21.5 -3.5t-20 -4.5t-12 -5.5q-2 -2 -4 -10.5t-4.5 -18t-4 -19t-1.5 -12.5q-1 -5 -3 -15.5l-4 -21t-3 -18.5t0 -9q9 2 18.5 8.5t17.5 14.5t14.5 15.5
t8.5 11.5zM94 -53q2 8 4 18.5t3 19.5t0 14.5t-5 2.5l-10 -9q-9 -5 -11 -17.5t-0.5 -25.5t5.5 -22.5t8 -7.5q4 3 6 27z" />
    <glyph glyph-name="q" unicode="q" horiz-adv-x="398" 
d="M419 155q-2 -2 -0.5 -0.5t0.5 -0.5q-27 -35 -62.5 -56.5t-67.5 -33.5t-55 -16t-24 -4h-1v-3l12 -11q11 -14 19.5 -29t16.5 -32q19 -35 27 -71.5t9 -73.5t-4 -74t-12 -73q-3 -13 -9.5 -44.5t-18.5 -63t-30 -53.5t-44 -15q-12 3 -20 18t-13 37t-8 48t-4 49.5t-1.5 41.5
t-0.5 26q0 45 0.5 84.5t5.5 77.5q2 12 6.5 25t6.5 25q3 23 5.5 47.5t5.5 39.5q1 6 -9.5 11t-13.5 11q-6 12 -2 15.5t11 3.5t14 -1t8 2q6 32 11 62.5t10 60.5q2 9 7 33.5t10 51.5t8 49t0 25q-3 4 -6.5 1.5t-6.5 -7.5t-5 -10t-2 -6q-4 -13 -8 -22t-7 -17l-20 -52q-3 -9 -3 -16
t-2 -14q-12 -41 -24.5 -85.5t-29.5 -80.5q-3 -7 -7.5 -17t-11 -19.5t-15 -17.5t-20.5 -12q-31 -9 -44.5 6.5t-16.5 40t0 49.5t5 34q8 45 22.5 73.5t46.5 30.5q18 1 27.5 -4.5t14 -13t5 -13.5l0.5 -6q3 0 6 7t6.5 16t6.5 19t5 17q2 6 5 14.5t6 18t6 18t5 13.5q3 6 11 25
t19 37.5t25 31.5t28 7q13 -5 14.5 -26t-0.5 -60q-1 -7 -3.5 -26t-6 -43t-8 -51t-8.5 -51.5t-7 -42.5t-4 -25q16 -2 45.5 7t60.5 24t57.5 33.5t37.5 36.5l2.5 0.5t5 -0.5t3 -3.5t-2.5 -7.5zM192 -466q10 -8 24.5 16.5t27 67.5t20.5 98.5t6 110t-17.5 101.5t-49.5 74
q0 -1 -0.5 -2t-0.5 -3v-5q-5 -2 -3.5 -4.5t0.5 -7.5q-7 -42 -12 -80.5t-7.5 -78.5t-3.5 -82t1 -90q0 -19 0.5 -38t1.5 -35t4 -27.5t9 -14.5zM68 52q4 10 10.5 23t11 27t6 27.5t-2.5 25.5q-3 7 -9 12t-12 8q-7 4 -15 5q-5 -2 -5.5 -9.5t-2.5 -10.5q-21 -56 -16 -116
q2 -26 2.5 -38.5t11.5 5.5q7 11 12 21t9 20zM210 65v-2v-2v4z" />
    <glyph glyph-name="r" unicode="r" horiz-adv-x="325" 
d="M273 233q10 4 12 -4.5t-2 -14.5q-5 -8 -19 -12t-30.5 -2.5t-32.5 10.5t-25 28l-4 4t-8.5 9.5t-8.5 9.5l-4 4q-6 -1 -13 -11.5t-13 -27.5t-12 -37t-10.5 -39t-8 -34.5t-4.5 -22.5q-4 -18 -8 -45t-7 -54q-3 -33 -3.5 -60t-11.5 -32q-17 -8 -28 9.5t-18 44t-10.5 54.5
t-4.5 42q-2 26 -1.5 54.5t3.5 55.5q6 54 19 93t24 62q3 6 1.5 7.5t4.5 4.5q9 5 20 7.5t16 -5.5q1 -2 -0.5 -15.5t-4 -31t-5.5 -34.5t-4 -24q-2 -14 -4.5 -37t-3 -40t1.5 -22.5t9 14.5q6 15 12 39t14.5 46.5t20 39t28.5 17.5q22 1 30 -10t15.5 -24t21 -23t46.5 -7
q0 -1 2.5 5.5t7.5 8.5z" />
    <glyph glyph-name="s" unicode="s" horiz-adv-x="275" 
d="M306 166q5 1 9.5 1t2.5 -8q1 -4 -3.5 -7t-7.5 -4q-2 -1 -4 -3t-6 -4q-17 -9 -44 -27t-51.5 -35.5t-41 -30.5t-11.5 -13q1 -2 6 -9t11 -17t11.5 -19.5t8.5 -15.5q2 -5 1.5 -6.5t2.5 -5.5q1 -3 3 -11t2.5 -19t-1.5 -24t-8 -26q-6 -15 -22 -27.5t-36 -20.5t-41.5 -10.5
t-39.5 3.5l-16 6q-5 3 -14.5 13t-11.5 18q-2 13 2 29.5t11 32.5t14.5 29t12.5 19q1 0 5.5 4.5t9.5 10t10 10t6 5.5l2.5 2.5t7 6t9.5 8t9 8.5q1 2 -4.5 6.5t-7.5 6.5q-11 14 -28 29.5t-25 24.5q-13 13 -25 28t-16.5 32t2 35.5t29.5 39.5q4 4 14 12.5t21 16.5q8 5 15.5 7.5
t11.5 3.5q8 3 18.5 4.5t19 0t13 -7.5t0.5 -19q0 -5 -5 -7.5t-11 -3.5t-10 -0.5t-3 2.5q-7 -2 -14 -3t-18 -9q-5 -5 -15.5 -16t-15.5 -28q-3 -10 0.5 -21t9.5 -21.5t13 -19.5t11 -14t12 -13.5t16 -17.5q7 -7 12 -15.5t10 -8.5q3 2 19 13.5t35.5 25t38 25.5t27.5 16
q1 0 5.5 4.5t12 10.5t16.5 11t18 7zM158 -44q-1 3 -6.5 12t-11.5 19t-11.5 18l-5.5 8l-16 -13.5t-34 -34t-31.5 -44.5t-9.5 -45q0 -17 8 -25t20 -9.5t26.5 1.5t26.5 9q32 15 43 38.5t2 65.5z" />
    <glyph glyph-name="t" unicode="t" horiz-adv-x="179" 
d="M497 533q1 0 9.5 -2t13.5 -5t3.5 -8t-19.5 -11q-3 -1 -13 -3.5t-22 -4.5t-24 -3t-20 1q-9 1 -8.5 3.5t0.5 4.5t-5 4.5t-24 4.5q-21 2 -23 1.5t-0.5 -2t-2 -3.5t-27.5 -2h-42.5h-60h-61h-46.5q-5 0 -12.5 -0.5t-14.5 -1t-11.5 -0.5t-3.5 1q-4 -3 -8 -25t-7.5 -55.5
t-7 -73.5t-5.5 -79.5t-3.5 -73.5t-1.5 -55q-2 -92 -2.5 -170t4.5 -145q3 -35 6 -66t16 -63q3 -8 7 -12.5t6.5 -8t3 -6t-3.5 -6.5q-8 -8 -19.5 -3.5t-23 15t-20.5 23.5t-12 24q-4 11 -5.5 25.5t-1.5 13.5q-3 18 -4.5 42t-1.5 51t0.5 53.5t0.5 49.5q1 104 0 206t7 202
q2 15 6 35.5t5 26.5q1 9 1.5 19t2.5 18q-2 0 -5 2.5t-1 4.5q2 1 6 7.5t0 11.5q-5 5 -16.5 5.5t-26.5 -1t-30 -3.5t-25 -3l-14 -1.5t-32 -2t-33.5 1t-17.5 7.5t1.5 8.5t10.5 3t15 1t15 1.5q16 3 26 4t20.5 1.5t23 0.5t33.5 1q25 1 36 2.5t15.5 8t6.5 20t8 37.5q4 18 11 36
t5 26t-6 9.5t-8 1t-7 1t-4 9.5q0 10 5 26.5t13.5 34.5t17.5 37t16 35l1.5 6t1 3t2.5 1t7 1q2 1 7 5t11 0q8 -6 10 -24t0 -40.5t-5.5 -46t-6.5 -40.5t-10 -47t-12 -58q0 -2 -1 -7.5t-2 -11.5t-1.5 -11.5t-0.5 -6.5q0 1 11 1.5t26 0.5h32h29q24 1 57 2.5t65.5 3t60.5 2.5t43 1
h18t26 -0.5t26.5 -1.5t20.5 -2zM23 469q2 19 1.5 16t-2.5 -16h1z" />
    <glyph glyph-name="u" unicode="u" horiz-adv-x="478" 
d="M485 157q6 6 11.5 8.5t8.5 1t2.5 -7.5t-7.5 -18q-4 -6 -13.5 -16.5t-20.5 -21t-21.5 -20t-16.5 -14.5q-8 -8 -19 -18t-26 -20q-22 -14 -47 -22.5t-57 -1.5q-26 5 -40.5 19.5t-22 31.5t-11 33.5t-6.5 25.5t-8.5 7.5t-17.5 -20.5q-9 -14 -21 -31t-26.5 -30.5t-31.5 -22
t-35 -6.5q-21 2 -33.5 17.5t-18.5 39t-6.5 51.5t2.5 56q2 15 5.5 29t14.5 20q24 -8 28.5 -12.5t2.5 -22.5q-2 -23 -4.5 -49.5t-0.5 -43.5q0 -16 1.5 -32t8 -24.5t18.5 -5.5t32 26q4 6 9 12t10 15q4 6 3.5 4.5t-1.5 -3.5q6 11 14 29t17 35t20 29.5t25 11.5q18 -2 27.5 -13.5
t14.5 -29t7.5 -38t7 -39t12 -32.5t23.5 -19q21 -7 46.5 5.5t49.5 32.5t45 42.5t33 35.5q1 1 4.5 6t8.5 10z" />
    <glyph glyph-name="v" unicode="v" horiz-adv-x="294" 
d="M299 164q27 6 27 -3t-33 -17q-10 -2 -16.5 -4t-11.5 -3t-10.5 -1.5t-12.5 -0.5q-14 -1 -22 1t-14 4.5t-12.5 3.5t-15.5 -2t-16.5 -11t-14 -18t-12 -20t-10.5 -17q-7 -12 -13.5 -26.5t-14 -27.5t-17 -21.5t-23.5 -7.5q-14 0 -24 16t-17 40t-11 52t-5 53q-1 12 -2 26
t-1 28.5t1 26.5t4 20q2 4 8 3.5t11 1.5q4 2 11 3.5t13 -3.5q4 -4 7 -18t4.5 -31t2.5 -35.5t1 -31.5q1 -11 -1 -33.5t0 -42.5q0 -8 3.5 -22t2.5 -17q3 3 10.5 14t15.5 24t14.5 24t8.5 13q5 6 12.5 15.5t16.5 19t19 16.5t21 9q9 1 31 -5t48 -5q11 1 18.5 4.5t18.5 5.5zM64 28
q0 -1 0.5 -0.5t0.5 1.5z" />
    <glyph glyph-name="w" unicode="w" horiz-adv-x="378" 
d="M418 162q3 -5 -5.5 -11.5t-21.5 -12.5t-28 -10.5t-25 -5.5q-9 -2 -21 -1t-23 2.5t-19.5 2t-10.5 -0.5q-2 -2 -3.5 -15t-2 -30t-1.5 -33t-2 -22q-2 -9 -2.5 -20.5t-4 -22.5t-10.5 -19.5t-20 -9.5q-13 -2 -21 2t-13.5 10.5t-9 14.5t-6.5 16q-6 14 -7.5 33t-2 37t-2.5 32
t-8 19q-2 1 -6 -7t-7.5 -16.5t-4.5 -12.5t2 5l-22 -72q-4 -11 -8.5 -26t-12 -27.5t-18.5 -20t-29 -2.5q-4 1 -14.5 10.5t-15.5 22.5q-11 30 -14 68t-1 74.5t8 68.5t14 50q2 5 3.5 8t6.5 5q1 1 8.5 7t14.5 2q6 -4 6 -24t-2.5 -45.5t-5.5 -51t-3 -40.5q0 -8 1 -23t3 -31
t5 -28.5t7 -14.5q1 0 7 12.5t13 29t13 31.5t8 18q2 5 6 19.5t11 28t17.5 21.5t27.5 1q15 -7 17.5 -30.5t8.5 -53.5q2 -11 5 -31.5t6.5 -36t8 -19.5t10.5 17q3 10 5.5 29t4.5 41t2.5 43t0.5 36q-1 21 -4 43t-3 39t5 26.5t20 5.5q13 -4 14.5 -17t6.5 -36q1 -6 1.5 -16l1 -20
t2 -18.5t6.5 -12.5q4 -5 16.5 -5t25.5 1.5t23 4t9 2.5q3 1 11.5 5t18 7.5t18 4.5t11.5 -4z" />
    <glyph glyph-name="x" unicode="x" horiz-adv-x="338" 
d="M365 165q2 -1 2 -6q0 -3 -1 -5t-13 -15t-27.5 -29.5t-30 -31.5t-19.5 -21q-48 -51 -90.5 -76t-71.5 -6q-6 1 -14 8t-15.5 15t-12 14.5t-3.5 6.5q-2 0 -2.5 -2.5t-2.5 -3.5q-3 -5 -8.5 -13t-10.5 -16.5t-8.5 -16t-4.5 -9.5q-8 -13 -12.5 -23t-6.5 -9q-15 -1 -17.5 6.5
t1.5 18t9.5 19.5t6.5 11q4 8 8.5 15t8.5 13q21 30 19 35l-16 35q-5 11 -10.5 23.5t-10.5 24.5q-5 11 -10.5 22t-8.5 19q-5 10 -10 20.5t-6.5 17.5t3.5 10t22 -1q9 -2 12.5 -3t4.5 -2t0.5 -2t-0.5 -4q2 -10 5.5 -11t5.5 -6l17 -34q6 -13 10 -25.5t7.5 -22.5t6.5 -15.5t7 -4.5
q2 0 4.5 2.5t10.5 13.5q1 1 4.5 3.5t4.5 4.5q7 9 15.5 20.5l17 23t17.5 22t17 17.5q3 3 12 12.5t20 14.5q10 5 20 5.5t15 -4.5q5 -18 2 -22.5t-9.5 -3.5t-15.5 2.5t-15 -4.5q-12 -12 -24 -26.5t-23.5 -29.5t-21 -28t-15.5 -21t-14 -18.5t-9 -18.5q11 -17 21 -25t18 -15
q9 -8 20 -9.5t21.5 0.5t19 6.5t13.5 9.5q16 11 35 28.5t37.5 37t36 39.5t31.5 35q3 4 7 6.5t7 1.5q1 1 3 1q3 0 4 -1z" />
    <glyph glyph-name="y" unicode="y" horiz-adv-x="435" 
d="M466 164q3 -3 -2.5 -8.5t-14.5 -11t-18 -10t-12 -6.5q-8 -5 -22 -14t-24 -17q-10 -7 -16 -13t-9 -14t-4 -20t-2 -32q-1 -14 -0.5 -28t-1.5 -27q-6 -38 -18 -81t-26 -78q-2 -6 -1.5 -7t-3.5 -5q-3 -4 -7 -12.5t-8 -19t-8.5 -20.5t-8.5 -16q-11 -14 -20 -30.5t-24 -36.5
q-4 -5 -6 -9t-5 -9q-11 -14 -25 -29t-32 -32q-15 -14 -33 -29t-38.5 -27t-42.5 -17.5t-46 -0.5q-3 1 -9 4t-13 7.5t-13.5 9.5t-9.5 10q-8 13 -10 32.5t-1 40.5q0 18 5.5 38.5t14 41t18 39.5t18.5 34q55 83 112 141.5t103 96t75.5 55.5t29.5 19q2 5 0.5 23.5t-6.5 39t-13 38
t-20 21.5q-14 5 -35 -9.5t-42.5 -34.5t-40 -40t-27.5 -26q-6 -5 -12.5 -12t-15 -14t-19 -10.5t-24.5 -0.5q-19 4 -31 24t-17.5 47.5t-5.5 58.5t5 57.5t15 44t24 19.5q1 1 8.5 1t16.5 -3q3 -2 8 -3.5t7 -3.5q3 -6 -0.5 -16t-5.5 -18q-3 -11 -8.5 -22.5t-10 -25.5t-7.5 -32
t-2 -42q1 -21 3 -36t8 -21t17 -2t28 22q9 9 16 17.5t12 13.5q11 10 22 21t24 21q1 1 5 4.5t8 6.5l10 8q14 8 33.5 17t32.5 7q15 -1 28 -9.5t22.5 -22t15.5 -30.5t8 -36v-10q0 -3 4 -0.5t10.5 6.5t14 9t13.5 8q13 8 21.5 12l25.5 12q8 5 18 12t18 0zM304 30q0 8 -3 8
q-2 0 -3 -2q-11 -5 -28.5 -17t-39.5 -29.5t-46 -39.5t-47 -47q-27 -29 -51.5 -60t-45 -59.5t-34.5 -52t-20 -37.5q-5 -11 -10.5 -26t-9.5 -33t-5 -37.5t4 -38.5q6 -22 15.5 -30.5t22.5 -7.5t28.5 8.5t32.5 17.5q34 20 52.5 39.5t38.5 46.5q14 17 24.5 34t19.5 33
q9 15 14.5 28t12.5 27q15 31 29 67.5t24.5 73.5t17 71.5t7.5 62.5z" />
    <glyph glyph-name="z" unicode="z" horiz-adv-x="257" 
d="M265 24q2 -3 -0.5 -9.5t-9.5 -6.5l-149 -18l-8 -1.5t-18 -2t-19 -0.5t-11 3q-4 6 -3.5 13.5t3 15.5t6.5 17t7 18q2 5 9 17t9 17q1 1 9 19.5t17.5 40t17.5 39t9 16.5q-5 8 -12 6t-15 -3q-11 -1 -23.5 -0.5t-23.5 -4.5q-8 -3 -18.5 -10.5t-18.5 -7.5q-4 0 -8 2.5t-7.5 6
t-5.5 6.5l-2 3q-2 13 17.5 17.5t45.5 11.5q29 7 46.5 9.5t37.5 3.5q1 0 5.5 1.5t10.5 2.5t12.5 0t9.5 -6q8 -11 3 -18.5t-10 -18.5l-6 -15l-38 -69q-3 -6 -9 -15.5t-13 -20.5t-14 -23.5t-11 -22.5t-6 -18.5t-4 -9.5q7 -3 30.5 1t51.5 9.5t54.5 10.5t38.5 3q9 -1 13 -9z" />
    <glyph glyph-name="braceleft" unicode="{" horiz-adv-x="365" 
d="M454 -351q3 -7 -3 -11.5t-16 -7.5t-21.5 -4.5t-17.5 -1.5q-13 1 -28 5.5t-29 11.5q-11 5 -21 12.5t-22 15.5q-3 2 -7 2t-7 2q-5 4 -13 11t-16 13q-11 8 -20.5 14.5t-17.5 13.5q-54 48 -78 108.5t-25 145.5q0 13 1 27t0 27t-6.5 23t-18.5 16q-5 2 -13.5 4t-18 5t-17 6.5
t-8.5 8.5q-1 4 6.5 13t17 18.5t19.5 18t13 11.5q6 6 19.5 19t23.5 25q36 46 52 112t24 142q5 51 8 102.5t16 99.5q6 26 15 43t26 34l12 12t23 8q17 3 32.5 -0.5t23.5 -11.5q3 -3 5 -8.5t3.5 -11.5t1.5 -10.5t-3 -5.5q-6 -3 -11.5 2t-11 12.5t-12 14.5t-13.5 7q-8 0 -15.5 -8
t-13.5 -19.5t-10.5 -23t-6.5 -18.5q-11 -33 -16 -70.5t-8 -75.5t-5.5 -75t-7.5 -69q-11 -65 -35.5 -123t-69.5 -99q-7 -6 -16.5 -13.5t-23.5 -18.5q-11 -10 -21.5 -17t-8.5 -12q1 -3 6.5 -5.5t12.5 -5.5t13.5 -5.5t9.5 -3.5q12 -5 23.5 -10t14.5 -10q7 -10 8.5 -25.5t1 -32
t-1.5 -32t0 -27.5q2 -31 11.5 -61.5t23.5 -59.5q6 -12 12 -26.5t14 -25.5q1 -2 5 -2.5t5 -1.5q2 -5 3.5 -8t6.5 -8q2 -3 4.5 -5t4.5 -4t3 -6t3 -6q7 -6 18 -11.5t20 -12.5q13 -10 24.5 -20t28.5 -20q2 -2 6.5 -2t7.5 -2q2 -1 2.5 -4t2.5 -4q16 -8 32.5 -13t27.5 1q3 1 8 4
t10.5 5.5t10.5 2.5t8 -4z" />
    <glyph glyph-name="bar" unicode="|" horiz-adv-x="264" 
d="M153 687q-1 -20 0 -40t0 -37q-3 -82 -5.5 -168t-5.5 -171.5t-5 -169.5t-3 -161q-2 -75 -4.5 -149.5t-0.5 -152.5q0 -5 2.5 -21t5 -34t4.5 -32.5t1 -14.5q-5 -3 -21.5 5t-21.5 20q-2 5 -1.5 9.5t-0.5 9.5q3 -9 2.5 0t-2.5 25t-4 34.5t-2 29.5q-4 123 0.5 235t8.5 230
q1 39 1 79.5t0.5 80.5t1 77.5t1.5 69.5q1 43 1.5 96.5t3.5 118.5q1 21 5.5 39.5t-0.5 32.5l-3.5 10.5t-1 1l-2 -2t-4.5 0.5q-12 8 -8.5 20.5t10.5 30.5q5 17 7.5 23t10.5 8q18 5 25 -7.5t8 -34t-1 -47t-2 -44.5zM97 -420v2v-2z" />
    <glyph glyph-name="braceright" unicode="}" horiz-adv-x="347" 
d="M267 238q8 -9 15 -17q5 -7 10 -12.5t5 -7.5q0 -3 -8 -7.5t-17.5 -8.5t-19 -8.5t-13.5 -7.5q-2 -2 -4 -6t-4 -6q-15 -17 -21.5 -43.5t-9 -58t-2.5 -64.5t-3 -64q-4 -42 -12 -75t-25 -62q-5 -8 -13.5 -17.5t-16.5 -18.5q-9 -11 -24 -23t-32 -26q-5 -3 -13 -9.5t-17.5 -12
t-18.5 -8.5t-14 2q-3 2 3 8t15 12l18 12l12 8q26 24 49 50t36 63q8 26 12 63t6 74q2 25 1.5 51.5t1.5 49.5q3 26 8.5 49.5t13.5 35.5l4.5 4.5l8 8t9.5 8.5t8 7q4 2 11.5 5t15 5.5t13 4l5.5 1.5q4 10 -6.5 18t-22.5 19q-9 8 -12 11t-4.5 5t-4 5t-9.5 11q-4 5 -10 8t-9 8
q-4 5 -5.5 10t-5.5 10q-16 24 -29 53.5t-20 67.5q-5 35 -4.5 77.5t-1.5 84t-11 77t-33 56.5q-11 10 -30.5 15t-43.5 1q-10 -5 -17 -8q-7 -2 -12 -3t-7 3q-3 5 2.5 9t15 6t20.5 3.5t20 1.5q12 1 30 -1t30 -7q6 -3 13 -9.5t16 -14.5q13 -13 24.5 -33.5t16.5 -43.5q5 -26 6 -61
t2 -72t4.5 -73t13.5 -64q2 -5 5.5 -9t4.5 -7q3 -7 3.5 -11.5t2.5 -9.5q9 -17 20 -32.5t21 -27.5q6 -8 9 -10.5l6 -5t7 -5.5t12 -11z" />
    <glyph glyph-name="asciitilde" unicode="~" horiz-adv-x="327" 
d="M242 126q4 1 9.5 1t8.5 -0.5t1.5 -3t-10.5 -7.5q-12 -6 -29.5 -12t-37.5 2q-12 5 -21.5 15t-14.5 10q-6 1 -19 -5.5l-23 -11.5q-12 -5 -12 -4l-5 -4q-5 -3 -12 -6t-10 1q-5 5 1.5 12.5t16.5 14.5t19.5 12.5t11.5 6.5q26 8 44.5 5t36.5 -15q7 -5 11 -8t8 -4.5t9.5 -1
t16.5 2.5z" />
    <glyph glyph-name="exclamdown" unicode="&#xa1;" horiz-adv-x="210" 
d="M107 493q1 1 6 5t9 1q5 -5 6.5 -24t0.5 -43t-2.5 -49t-2.5 -43q-3 -78 -6.5 -157.5t-5.5 -164.5q0 -17 0.5 -38.5t-1.5 -43.5q-1 -13 -0.5 -25t-1.5 -20.5t-8.5 -11.5t-19.5 1q-10 3 -14 10.5t-5 17.5t0 21t1 22q0 20 0.5 42t1.5 40q1 41 4.5 71.5t5.5 71.5
q2 37 2.5 67.5t1.5 58.5t2 55.5t4 59.5q2 17 6 33t7 33l2 8zM132 647q10 -2 15.5 -12.5t4 -22t-9.5 -20.5t-24 -6q-10 1 -15.5 8.5t-6.5 16.5t3 18t13 13l8 4t12 1z" />
    <glyph glyph-name="cent" unicode="&#xa2;" horiz-adv-x="1135" 
d="M1166 164q5 -5 1.5 -13.5t-10 -17t-13.5 -15.5t-8 -10q-5 -10 -13 -23l-16 -26q-38 -59 -79.5 -121.5t-85.5 -122.5t-89 -115t-90 -101q-14 -14 -27 -25.5t-27 -24.5q-4 -4 -6 -10t-6 -9q-5 -3 -9.5 -3t-8.5 -3q-4 -4 -6 -10t-6 -9q-3 -3 -8.5 -3t-9.5 -3
q-14 -11 -26.5 -25t-27.5 -25q-7 -5 -17 -9.5t-19 -10.5q-21 -14 -46.5 -29t-56.5 -28l-39 -15q-2 -22 -3 -40t-1 -31q0 -5 1 -21t2.5 -34t2.5 -32.5t0 -14.5q-3 -2 -9 -0.5t-13 5.5t-12.5 9t-7.5 11q-2 5 -1 9.5t1 9.5q2 -9 2 0t-0.5 25t-1 34.5t-0.5 29.5q0 7 0.5 14
t0.5 15q-58 -15 -113.5 -10.5t-107.5 36.5q-6 3 -11.5 7.5t-13.5 9.5q-5 4 -13 6.5t-12 5.5q-3 3 -3.5 9t-2.5 9q-3 3 -15 11t-16 13q-5 7 -9.5 19t-10.5 23q-18 35 -29.5 83.5t-16.5 104t-3.5 114.5t10.5 113q2 11 5.5 21.5t5.5 21.5q6 31 12.5 61t15.5 62q5 20 10.5 41
t11.5 39q6 17 16.5 33t18.5 35t14 37.5t15 36.5q30 58 67.5 116.5t83.5 112.5t98.5 100t112.5 81q2 26 3.5 47.5t-0.5 28.5q-2 9 -2.5 10.5t-1.5 1t-2 -2t-4 0.5q-11 8 -7 20.5t12 30.5q7 17 9.5 23t11.5 8q12 3 18 -9t8.5 -33t1.5 -48t-3 -54q38 18 77 30.5t81 18.5
q4 0 14 2t22 3.5t25 2.5t24 0q26 -2 52 -9.5t48.5 -18t40 -23.5t26.5 -25q7 -12 12 -23q5 -9 8.5 -18t5.5 -13q3 -14 3.5 -31t-1 -34.5t-5 -34t-7.5 -29.5q-3 -11 -9 -25.5t-8 -17.5l-8.5 -8.5t-16 -13.5t-20.5 -13.5t-21 -8.5q-13 -3 -26 -5.5t-22.5 -0.5t-15.5 10t-4 25
q2 20 12.5 22.5t23.5 2.5q10 0 13 -3.5t5 -7t5.5 -4.5t13.5 4q10 4 19.5 21t17 38.5t12 44t3.5 37.5q-2 31 -16.5 55t-34.5 42q-32 27 -76 36t-92 4.5t-95.5 -21t-84.5 -39.5q-2 -2 -4 -2l-5 -52q-2 -20 -2.5 -40t-2.5 -37q-9 -82 -18 -168t-18 -171.5t-17 -169.5t-14 -161
q-2 -19 -5 -53t-6.5 -76.5t-8 -91.5t-8.5 -98.5t-8 -97t-7 -87.5q55 21 109.5 55t104.5 74t93.5 82.5t77.5 78.5q38 45 71 88.5t65 89t63.5 93.5t66.5 102q12 18 17.5 26.5t9.5 14t6.5 9.5t8.5 12l6.5 10t15 21t17.5 18t15 1zM488 609q1 7 2.5 21.5t3.5 32.5l-17 -13
q-7 -5 -12 -12t-12 -13q-33 -28 -65.5 -59t-60.5 -66q-40 -51 -81.5 -116t-71.5 -132q-13 -29 -23.5 -55.5t-22.5 -61.5q-17 -48 -33.5 -107t-29 -124t-17.5 -131.5t1 -129.5t25.5 -119t56.5 -98q23 -26 63.5 -42.5t89.5 -18.5q23 -2 47 1.5t49 9.5q3 48 7.5 110t10 129
t12 136t12 132t11 116t9.5 88q3 39 6.5 79.5t6.5 80.5t6.5 77.5t6.5 69.5q4 43 8 96.5t12 118.5z" />
    <glyph glyph-name="sterling" unicode="&#xa3;" horiz-adv-x="484" 
d="M617 -242q2 -10 -17 -15t-42 -6q-13 -1 -29.5 2.5t-33.5 6.5q-15 2 -30 4.5t-29 5.5q-29 6 -58.5 14.5t-56.5 14.5q-15 3 -31 4t-33 5q-14 3 -27.5 7.5t-27.5 7.5q-32 6 -65.5 10.5t-56.5 3.5q-5 0 -17 -2t-25.5 -3t-24.5 0t-13 8q-1 4 8.5 9.5t22 10.5t24.5 9.5t16 6.5
q12 6 19 11.5t13 10.5q11 8 21 17t18 24q5 9 8.5 18.5t8.5 23.5q1 2 4 5t3 5q1 3 -0.5 6.5t-1.5 6.5q1 2 4.5 5t3.5 5q1 3 -1 6.5t-1 6.5q1 2 4.5 5t3.5 5q8 48 13.5 98.5t11.5 113.5q0 -1 1 6t2.5 16.5t2.5 17.5t0 9t-15 -2t-32.5 -7t-36 -8t-24.5 -6l-3 -2.5t-7.5 -5
t-8.5 -3t-6 2.5q-3 6 9 12t29 11.5t34 10t25 6.5q9 2 19.5 3.5t14.5 5.5q3 3 5 16t3.5 29t2.5 31.5t2 22.5q4 41 6 75t10 74q0 2 3.5 5t3.5 5q2 8 2 18t2 18q2 5 5.5 9t5.5 10q8 20 17.5 39.5t35.5 29.5q28 10 38 7t15 -9q10 -11 8.5 -29t-14.5 -20q-4 0 -6.5 6t-4 13.5
t-3.5 14.5t-5 8q-5 1 -10.5 -3t-10 -10t-7.5 -11.5t-4 -6.5q-13 -23 -21.5 -58t-14.5 -71q-2 -17 -4 -42t-5 -57q-1 -12 -2.5 -29t-3 -32t-2.5 -26t0 -12q4 -4 10.5 -4t15.5 2t20 4t24 3q14 1 31.5 0.5t31.5 -5.5q3 -2 7 -4q2 -2 4.5 -3t2.5 0q1 -7 -9 -8.5t-23 -1t-26 2.5
t-17 2t-13 -1t-19.5 -2t-20 -2.5t-12.5 -3.5q-6 -4 -8.5 -15.5t-3.5 -25.5t-1.5 -28t-1.5 -22q-6 -62 -12.5 -115t-23.5 -107q-7 -20 -11.5 -29t-12.5 -23q-5 -10 -15.5 -22t-18.5 -23q-2 -3 -10 -8t-17.5 -10t-18 -10t-12.5 -6q-11 -5 -13 -7t1.5 -3t11 -1h15.5
q26 -2 53.5 -4t45.5 -5q37 -8 61.5 -15.5t53.5 -13.5q16 -4 31.5 -5t31.5 -5q15 -3 30 -7t30 -7q35 -7 67.5 -15t50.5 -9q4 0 12.5 2.5t17 4.5t15.5 1.5t8 -5.5z" />
    </font>
</defs>
</svg>
