<svg xmlns="http://www.w3.org/2000/svg" width="23" height="22" viewBox="0 0 23 22">
    <g fill="#FFF" fill-rule="nonzero">
        <path d="M11.45 12.343c3.396 0 6.15-2.764 6.15-6.172A6.146 6.146 0 0 0 11.45.017C8.056.017 5.3 2.781 5.3 6.171c0 3.389 2.755 6.172 6.15 6.172zm0-10.717c2.49 0 4.528 2.045 4.528 4.545s-2.037 4.544-4.527 4.544S6.923 8.67 6.923 6.17c0-2.5 2.038-4.545 4.528-4.545zM.811 21.981h21.355c.452 0 .81-.36.81-.814 0-4.26-3.451-7.744-7.715-7.744H7.716C3.47 13.423 0 16.888 0 21.167c0 .454.358.814.811.814zm6.905-6.93h7.545c3.094 0 5.64 2.31 6.037 5.302H1.678c.397-2.973 2.944-5.302 6.038-5.302z"/>
    </g>
</svg>
